<svg width="61" height="62" viewBox="0 0 61 62" fill="none" xmlns="http://www.w3.org/2000/svg">
<path d="M35.7113 2.1L35.6113 6.6C38.7113 7.3 41.6113 8.5 44.3113 10.4L47.6113 7.2C48.4113 6.4 49.7113 6.4 50.4113 7.2L54.2113 11.1C55.0113 11.9 55.0113 13.2 54.2113 13.9L50.9113 17.1C52.7113 19.8 53.8113 22.8 54.4113 25.9L58.9113 26C60.0113 26 60.9113 26.9 60.9113 28L60.8113 33.5C60.8113 34.6 59.9113 35.5 58.8113 35.5L54.3113 35.4C53.6113 38.5 52.4113 41.4 50.5113 44.1L53.7113 47.4C54.5113 48.2 54.5113 49.5 53.7113 50.2L49.8113 54C49.0113 54.8 47.7113 54.8 47.0113 54L43.8113 50.7C42.2113 51.7 40.5113 52.6 38.7113 53.2V45.9C40.2113 45.1 41.6113 44.1 42.8113 42.9C49.8113 36.1 49.9113 25 43.2113 18C36.4113 11 25.3113 10.9 18.3113 17.6C11.3113 24.4 11.2113 35.5 17.9113 42.5C19.1113 43.7 20.4113 44.7 21.7113 45.5V53C19.9113 52.3 18.2113 51.4 16.7113 50.3L13.4113 53.5C12.6113 54.3 11.3113 54.3 10.6113 53.5L6.81133 49.6C6.01133 48.8 6.01133 47.5 6.81133 46.8L10.1113 43.6C8.31133 40.9 7.21133 37.9 6.61133 34.8L2.11133 34.7C1.01133 34.7 0.111328 33.8 0.111328 32.7L0.211329 27.2C0.211329 26.1 1.11133 25.2 2.21133 25.2L6.71133 25.3C7.41133 22.2 8.61133 19.3 10.5113 16.6L7.31133 13.3C6.51133 12.5 6.51133 11.2 7.31133 10.5L11.2113 6.7C12.0113 5.9 13.3113 5.9 14.0113 6.7L17.2113 10C19.9113 8.2 22.9113 7.1 26.0113 6.5L26.1113 2C26.1113 0.9 27.0113 0 28.1113 0L33.6113 0.1C34.8113 3.7998e-07 35.7113 0.9 35.7113 2.1ZM24.3113 20.3C20.9113 22.4 18.5113 26.2 18.5113 30.5C18.5113 34.1 20.1113 37.3 22.6113 39.5C24.1113 40.8 25.0113 42.6 25.0113 44.5V59.1C25.0113 60.1 25.8113 60.9 26.8113 60.9H28.7113V43.5C28.7113 42.7 29.3113 42 30.1113 41.9C31.0113 41.8 31.8113 42.5 31.8113 43.4V60.8H33.7113C34.7113 60.8 35.5113 60 35.5113 59V45.2C35.5113 43.1 36.4113 41.2 38.0113 39.9C40.8113 37.7 42.6113 34.3 42.5113 30.5C42.5113 25.9 39.9113 21.9 36.0113 19.9C35.8113 19.8 35.5113 20 35.5113 20.2V27.4C35.5113 29.4 33.8113 31.1 31.8113 31.1H28.7113C26.7113 31.1 25.0113 29.4 25.0113 27.4V20.6C24.9113 20.3 24.6113 20.2 24.3113 20.3Z" fill="#4A3AFE"/>
<path d="M24.2879 20.4344C20.8879 22.5344 18.4879 26.3344 18.4879 30.6344C18.4879 34.2344 20.0879 37.4344 22.5879 39.6344C24.0879 40.9344 24.9879 42.7344 24.9879 44.6344V59.2344C24.9879 60.2344 25.7879 61.0344 26.7879 61.0344H28.6879V43.6344C28.6879 42.8344 29.2879 42.1344 30.0879 42.0344C30.9879 41.9344 31.7879 42.6344 31.7879 43.5344V60.9344H33.6879C34.6879 60.9344 35.4879 60.1344 35.4879 59.1344V45.3344C35.4879 43.2344 36.3879 41.3344 37.9879 40.0344C40.7879 37.8344 42.5879 34.4344 42.4879 30.6344C42.4879 26.0344 39.8879 22.0344 35.9879 20.0344C35.7879 19.9344 35.4879 20.1344 35.4879 20.3344V27.5344C35.4879 29.5344 33.7879 31.2344 31.7879 31.2344H28.6879C26.6879 31.2344 24.9879 29.5344 24.9879 27.5344V20.7344C24.8879 20.4344 24.5879 20.3344 24.2879 20.4344Z" fill="#EEC800"/>
</svg>
