<svg width="61" height="61" viewBox="0 0 61 61" fill="none" xmlns="http://www.w3.org/2000/svg">
<path fill-rule="evenodd" clip-rule="evenodd" d="M57.6432 9.15872L48.3346 18.4673C48.816 20.3745 49.0717 22.3702 49.0717 24.4245C49.0717 30.6131 46.7517 36.2646 42.9359 40.5546L45.3774 42.9961C45.646 42.7275 46.0088 42.5775 46.3874 42.5775C46.7674 42.5775 47.1303 42.7275 47.3974 42.9961L59.6632 55.2618C60.7789 56.3761 60.7789 58.1876 59.6632 59.3019C58.5489 60.4176 56.7375 60.4176 55.6232 59.3019L43.3574 47.0361C43.0888 46.769 42.9388 46.4061 42.9388 46.0261C42.9388 45.6475 43.0888 45.2847 43.3574 45.0161L40.9159 42.5746C36.6259 46.3904 30.9745 48.7104 24.7859 48.7104C11.3815 48.7104 0.5 37.8289 0.5 24.4245C0.5 11.0202 11.3815 0.138672 24.7859 0.138672C33.9031 0.138672 41.8531 5.17297 46.006 12.6116L43.8946 14.7245C40.3531 7.76728 33.1231 2.99583 24.7859 2.99583C12.9586 2.99583 3.35716 12.5973 3.35716 24.4245C3.35716 36.2517 12.9586 45.8532 24.7859 45.8532C36.6131 45.8532 46.2146 36.2517 46.2146 24.4245C46.2146 23.2174 46.1146 22.0331 45.9217 20.8788L43.3331 23.4688C43.3488 23.7845 43.3574 24.1045 43.3574 24.4245C43.3574 34.6746 35.0359 42.9961 24.7859 42.9961C14.5358 42.9961 6.21432 34.6746 6.21432 24.4245C6.21432 14.1745 14.5358 5.85299 24.7859 5.85299C32.3445 5.85299 38.856 10.3788 41.7531 16.8659L33.3573 25.2617L28.653 20.5574C28.0959 19.9988 27.1902 19.9988 26.633 20.5574L21.9287 25.2617L17.2244 20.5574C16.6672 19.9988 15.7615 19.9988 15.2044 20.5574L9.49005 26.2717C8.93291 26.8288 8.93291 27.7345 9.49005 28.2917C10.0472 28.8488 10.9529 28.8488 11.5101 28.2917L16.2144 23.5874L20.9187 28.2917C21.4758 28.8503 22.3816 28.8503 22.9387 28.2917L27.643 23.5874L32.3473 28.2917C32.9045 28.8503 33.8102 28.8503 34.3673 28.2917L55.6118 7.1387H47.6431C46.8546 7.1387 46.2146 6.4987 46.2146 5.71012C46.2146 4.92155 46.8546 4.28154 47.6431 4.28154H59.0718C59.4504 4.28154 59.8146 4.43154 60.0818 4.70012C60.3504 4.96726 60.5004 5.33155 60.5004 5.71012L60.4989 17.1373C60.4989 17.9259 59.8589 18.5659 59.0703 18.5659C58.2818 18.5659 57.6418 17.9259 57.6418 17.1373L57.6432 9.15872Z" fill="#4A3AFE"/>
<path d="M48.3346 18.3287L57.6432 9.02005L57.6418 16.9987C57.6418 17.7872 58.2818 18.4272 59.0703 18.4272C59.8589 18.4272 60.4989 17.7872 60.4989 16.9987L60.5004 5.57145C60.5004 5.19288 60.3504 4.82859 60.0818 4.56145C59.8146 4.29287 59.4503 4.14287 59.0718 4.14287H47.6431C46.8546 4.14287 46.2146 4.78288 46.2146 5.57145C46.2146 6.36003 46.8546 7.00003 47.6431 7.00003H55.6118L34.3673 28.153C33.8102 28.7116 32.9045 28.7116 32.3473 28.153L27.643 23.4487L22.9387 28.153C22.3816 28.7116 21.4758 28.7116 20.9187 28.153L16.2144 23.4487L11.5101 28.153C10.9529 28.7102 10.0472 28.7102 9.49005 28.153C8.93291 27.5959 8.93291 26.6902 9.49005 26.133L15.2044 20.4187C15.7615 19.8601 16.6672 19.8601 17.2244 20.4187L21.9287 25.123L26.633 20.4187C27.1902 19.8601 28.0959 19.8601 28.653 20.4187L33.3573 25.123L41.7531 16.7273C38.856 10.2401 32.3445 5.71432 24.7859 5.71432C14.5358 5.71432 6.21432 14.0358 6.21432 24.2859C6.21432 34.5359 14.5358 42.8574 24.7859 42.8574C35.0359 42.8574 43.3574 34.5359 43.3574 24.2859C43.3574 23.9659 43.3488 23.6458 43.3331 23.3301L48.3346 18.3287Z" fill="#EEC800"/>
</svg>
