<svg width="61" height="65" viewBox="0 0 61 65" fill="none" xmlns="http://www.w3.org/2000/svg">
<path d="M50.7122 62.4361C54.7444 62.4361 58.0132 59.1673 58.0132 55.135C58.0132 51.1028 54.7444 47.834 50.7122 47.834C46.6799 47.834 43.4111 51.1028 43.4111 55.135C43.4111 59.1673 46.6799 62.4361 50.7122 62.4361Z" fill="#4A3AFE" stroke="#4A3AFE" strokeWidth="4.59588" stroke-linejoin="round"/>
<path d="M50.4612 17.6021C54.4935 17.6021 57.7623 14.3333 57.7623 10.3011C57.7623 6.26879 54.4935 3 50.4612 3C46.4289 3 43.1602 6.26879 43.1602 10.3011C43.1602 14.3333 46.4289 17.6021 50.4612 17.6021Z" fill="#4A3AFE" stroke="#4A3AFE" strokeWidth="4.59588" stroke-linejoin="round"/>
<path d="M10.2874 39.8472C14.3196 39.8472 17.5884 36.5784 17.5884 32.5462C17.5884 28.5139 14.3196 25.2451 10.2874 25.2451C6.25512 25.2451 2.98633 28.5139 2.98633 32.5462C2.98633 36.5784 6.25512 39.8472 10.2874 39.8472Z" fill="#4A3AFE" stroke="#4A3AFE" strokeWidth="4.59588" stroke-linejoin="round"/>
<path fill-rule="evenodd" clip-rule="evenodd" d="M38.129 13.4129C37.8319 13.3922 37.5254 13.457 37.2471 13.6178L20.2495 23.4313C19.5072 23.8599 19.2547 24.8025 19.6833 25.5448L21.2627 28.2804C21.6913 29.0227 22.6338 29.2753 23.3761 28.8467L40.3737 19.0332C41.116 18.6046 41.3685 17.662 40.94 16.9197L39.3605 14.1841C39.0927 13.7201 38.624 13.4475 38.129 13.4129Z" fill="#EEC800"/>
<path d="M40.3735 46.2941L23.3761 36.4806C22.636 36.0534 21.6898 36.3069 21.2625 37.047L19.6832 39.7825C19.2559 40.5225 19.5095 41.4688 20.2495 41.896L37.2469 51.7095C37.9869 52.1368 38.9332 51.8832 39.3604 51.1432L40.9398 48.4076C41.3671 47.6676 41.1135 46.7214 40.3735 46.2941Z" fill="#EEC800"/>
</svg>
