<svg width="75" height="60" viewBox="0 0 75 60" fill="none" xmlns="http://www.w3.org/2000/svg">
<path d="M62.4952 8.04039L71.2149 16.7576L67.4833 20.4875L58.7636 11.7694L62.4952 8.04039ZM44.0136 26.5237L41.9411 28.5945L23.7405 46.7985L24.1388 47.1909L32.4619 55.5123L66.1745 21.7946L57.4539 13.08L44.0136 26.5237ZM72.3364 6.91804C69.9288 4.50964 66.0293 4.50964 63.6167 6.91804L72.3364 15.6327C74.7448 13.2268 74.7448 9.3256 72.3364 6.91804ZM20.8486 54.0481L25.2097 58.4042L31.1649 56.8084L22.4435 48.0904L20.8486 54.0481ZM19.9481 57.4152L19.2536 60L23.4443 58.8784L20.3777 55.8084L19.9481 57.4152ZM43.0879 57.4152C48.0954 57.4152 52.1679 53.3427 52.1679 48.336V47.1655L41.9174 57.4152H43.0879ZM11.0816 10.2218H41.9411V17.231L51.773 7.39989C51.8388 7.33744 51.9088 7.28175 51.9764 7.2193C51.1173 3.10206 47.4583 0 43.0879 0H9.93563C4.92727 0 0.856445 4.06998 0.856445 9.07666V48.3368C0.856445 53.3435 4.92811 57.416 9.93563 57.416H11.6276L12.6175 53.7325C12.6951 53.4355 12.793 53.1443 12.901 52.86C12.9449 52.5621 13.0065 52.2633 13.0892 51.9688L14.3668 47.1917H11.0808L11.0816 10.2218Z" fill="#4A3AFE"/>
<path d="M62.4955 8.03998L71.2152 16.7571L67.4836 20.487L58.7639 11.769L62.4955 8.03998ZM44.0139 26.5232L41.9413 28.5941L23.7408 46.798L24.1391 47.1905L32.4621 55.5118L66.1747 21.7942L57.4542 13.0796L44.0139 26.5232ZM72.3367 6.91763C69.9291 4.50923 66.0296 4.50923 63.617 6.91763L72.3367 15.6323C74.7451 13.2264 74.7451 9.32519 72.3367 6.91763ZM20.8488 54.0477L25.2099 58.4038L31.1651 56.808L22.4437 48.09L20.8488 54.0477ZM19.9484 57.4148L19.2539 59.9995L23.4446 58.878L20.3779 55.808L19.9484 57.4148Z" fill="#EEC800"/>
</svg>
