<svg width="21" height="20" viewBox="0 0 21 20" fill="none" xmlns="http://www.w3.org/2000/svg">
<g id="vscode-icons:file-type-pdf2">
<path id="Vector" d="M15.3139 1.29492L18.7914 4.91992V18.7049H5.80078V18.7499H18.8358V4.96555L15.3139 1.29492Z" fill="#909090"/>
<path id="Vector_2" d="M15.2683 1.25H5.75391V18.705H18.7889V4.92062L15.2683 1.25Z" fill="#F6D7D7"/>
<path id="Vector_3" d="M5.65781 2.1875H1.66406V6.45437H14.2266V2.1875H5.65781Z" fill="#7A7B7C"/>
<path id="Vector_4" d="M14.2942 6.38231H1.74609V2.1123H14.2942V6.38231Z" fill="#DD2025"/>
<path id="Vector_5" d="M5.90672 2.83368H5.08984V5.83368H5.73234V4.82181L5.87422 4.82993C6.01208 4.82756 6.14864 4.80287 6.27859 4.75681C6.39253 4.71762 6.49735 4.65575 6.58672 4.57493C6.67766 4.49794 6.74935 4.40078 6.79609 4.29118C6.85878 4.10899 6.88117 3.91537 6.86172 3.72368C6.85782 3.58675 6.83381 3.45113 6.79047 3.32118C6.75101 3.22737 6.69246 3.14281 6.61854 3.07287C6.54462 3.00292 6.45694 2.94914 6.36109 2.91493C6.27822 2.88493 6.1926 2.86316 6.10547 2.84993C6.03948 2.83975 5.97286 2.83432 5.90609 2.83368M5.78797 4.26743H5.73234V3.34243H5.85297C5.90621 3.33859 5.95963 3.34677 6.00928 3.36635C6.05894 3.38593 6.10356 3.41641 6.13984 3.45556C6.21504 3.55619 6.25522 3.67868 6.25422 3.80431C6.25422 3.95806 6.25422 4.09743 6.11547 4.19556C6.01551 4.25053 5.90173 4.27591 5.78797 4.26743ZM8.08234 2.82556C8.01297 2.82556 7.94547 2.83056 7.89797 2.83243L7.74922 2.83618H7.26172V5.83618H7.83547C8.05473 5.84219 8.27304 5.80503 8.47797 5.72681C8.64291 5.66138 8.78897 5.55592 8.90297 5.41993C9.01382 5.28272 9.09338 5.12296 9.13609 4.95181C9.18519 4.75798 9.20914 4.55863 9.20734 4.35868C9.21947 4.12253 9.20119 3.8858 9.15297 3.65431C9.10721 3.48391 9.02151 3.32686 8.90297 3.19618C8.80996 3.09066 8.69612 3.00554 8.56859 2.94618C8.45908 2.89551 8.34388 2.85815 8.22547 2.83493C8.17838 2.82715 8.13069 2.8236 8.08297 2.82431M7.96922 5.28493H7.90672V3.36993H7.91484C8.04369 3.35511 8.17406 3.37836 8.28984 3.43681C8.37463 3.50451 8.44372 3.58981 8.49234 3.68681C8.54482 3.78889 8.57506 3.90094 8.58109 4.01556C8.58672 4.15306 8.58109 4.26556 8.58109 4.35868C8.58364 4.46596 8.57674 4.57324 8.56047 4.67931C8.54121 4.7882 8.50559 4.89356 8.45484 4.99181C8.3974 5.08315 8.31979 5.16012 8.22797 5.21681C8.15086 5.26668 8.05954 5.28995 7.96797 5.28306M11.143 2.83618H9.62422V5.83618H10.2667V4.64618H11.0792V4.08868H10.2667V3.39368H11.1417V2.83618" fill="#464648"/>
<path id="Vector_6" d="M13.8644 12.6594C13.8644 12.6594 15.8569 12.2982 15.8569 12.9788C15.8569 13.6594 14.6225 13.3826 13.8644 12.6594ZM12.3913 12.7113C12.0747 12.7813 11.7662 12.8837 11.4706 13.0169L11.7206 12.4544C11.9706 11.8919 12.23 11.1251 12.23 11.1251C12.5283 11.6272 12.8754 12.0986 13.2663 12.5326C12.9715 12.5765 12.6794 12.6366 12.3913 12.7126V12.7113ZM11.6025 8.64882C11.6025 8.05569 11.7944 7.89382 11.9438 7.89382C12.0931 7.89382 12.2613 7.96569 12.2669 8.48069C12.2182 8.99854 12.1098 9.50902 11.9438 10.0019C11.7163 9.58809 11.5987 9.12291 11.6019 8.65069L11.6025 8.64882ZM8.6969 15.2213C8.08565 14.8557 9.97877 13.7301 10.3219 13.6938C10.32 13.6944 9.3369 15.6038 8.6969 15.2213ZM16.4388 13.0594C16.4325 12.9969 16.3763 12.3051 15.145 12.3344C14.6318 12.3262 14.1189 12.3623 13.6119 12.4426C13.1208 11.9478 12.6979 11.3898 12.3544 10.7832C12.5708 10.1578 12.7018 9.50611 12.7438 8.84569C12.7256 8.09569 12.5463 7.66569 11.9713 7.67194C11.3963 7.67819 11.3125 8.18132 11.3881 8.93007C11.4622 9.43322 11.602 9.92449 11.8038 10.3913C11.8038 10.3913 11.5381 11.2182 11.1869 12.0407C10.8356 12.8632 10.5956 13.2944 10.5956 13.2944C9.98485 13.4933 9.40986 13.7887 8.89252 14.1694C8.37752 14.6488 8.16815 15.0169 8.4394 15.3851C8.67315 15.7026 9.49127 15.7744 10.2225 14.8163C10.6111 14.3214 10.966 13.8011 11.285 13.2588C11.285 13.2588 12.4 12.9532 12.7469 12.8694C13.0938 12.7857 13.5131 12.7194 13.5131 12.7194C13.5131 12.7194 14.5313 13.7438 15.5131 13.7076C16.495 13.6713 16.4475 13.1207 16.4413 13.0607" fill="#DD2025"/>
<path id="Vector_7" d="M15.2227 1.29785V4.96848H18.7433L15.2227 1.29785Z" fill="#909090"/>
<path id="Vector_8" d="M15.2695 1.25V4.92063H18.7902L15.2695 1.25Z" fill="#B46265"/>
<path id="Vector_9" d="M5.85984 2.78583H5.04297V5.78583H5.68797V4.77458L5.83047 4.78271C5.96833 4.78033 6.10489 4.75564 6.23484 4.70958C6.34878 4.67038 6.45359 4.60851 6.54297 4.52771C6.63322 4.45051 6.70426 4.35336 6.75047 4.24396C6.81315 4.06177 6.83554 3.86814 6.81609 3.67646C6.81219 3.53952 6.78818 3.40391 6.74484 3.27396C6.70539 3.18015 6.64684 3.09558 6.57291 3.02564C6.49899 2.9557 6.41132 2.90191 6.31547 2.86771C6.23222 2.83741 6.14617 2.81543 6.05859 2.80208C5.99261 2.7919 5.92598 2.78647 5.85922 2.78583M5.74109 4.21958H5.68547V3.29458H5.80672C5.85996 3.29074 5.91338 3.29891 5.96303 3.31849C6.01269 3.33808 6.05731 3.36856 6.09359 3.40771C6.16879 3.50834 6.20896 3.63083 6.20797 3.75646C6.20797 3.91021 6.20797 4.04958 6.06922 4.14771C5.96926 4.20268 5.85548 4.22744 5.74172 4.21896M8.03547 2.77771C7.96609 2.77771 7.89859 2.78271 7.85109 2.78458L7.70422 2.78833H7.21672V5.78833H7.79047C8.00973 5.79434 8.22804 5.75718 8.43297 5.67896C8.59791 5.61353 8.74397 5.50807 8.85797 5.37208C8.96882 5.23487 9.04838 5.0751 9.09109 4.90396C9.1402 4.71012 9.16414 4.51078 9.16234 4.31083C9.17447 4.07468 9.15619 3.83795 9.10797 3.60646C9.06221 3.43606 8.97651 3.27901 8.85797 3.14833C8.76496 3.04281 8.65112 2.95769 8.52359 2.89833C8.41408 2.84765 8.29888 2.8103 8.18047 2.78708C8.13338 2.7793 8.08569 2.77575 8.03797 2.77646M7.92422 5.23708H7.86172V3.32208H7.86984C7.99869 3.30726 8.12906 3.3305 8.24484 3.38896C8.32963 3.45666 8.39872 3.54196 8.44734 3.63896C8.49982 3.74104 8.53006 3.85308 8.53609 3.96771C8.54172 4.10521 8.53609 4.21771 8.53609 4.31083C8.53864 4.4181 8.53174 4.52539 8.51547 4.63146C8.4962 4.74035 8.46059 4.84571 8.40984 4.94396C8.3524 5.0353 8.27479 5.11227 8.18297 5.16896C8.10586 5.21883 8.01454 5.2421 7.92297 5.23521M11.0961 2.78833H9.57734V5.78833H10.2198V4.59833H11.0323V4.04083H10.2198V3.34583H11.0948V2.78833" fill="white"/>
</g>
</svg>
