<svg width="19" height="14" viewBox="0 0 19 14" fill="none" xmlns="http://www.w3.org/2000/svg">
<path d="M1.39611 0.0846905C0.713084 0.0846905 0.150391 0.647384 0.150391 1.33041V12.67C0.150391 13.353 0.713084 13.9157 1.39611 13.9157H12.7357C13.4187 13.9157 13.9814 13.353 13.9814 12.67V9.00224L17.9288 5.06136C18.0856 4.90288 18.0856 4.64776 17.9288 4.48929L16.0855 2.64598C15.9994 2.55773 15.8778 2.51332 15.7551 2.52524C15.6631 2.53673 15.5779 2.57943 15.5135 2.64598L13.9816 4.18426V1.33019C13.9816 0.647166 13.4189 0.0844727 12.7358 0.0844727L1.39611 0.0846905ZM1.39611 0.89822H12.7357C12.9831 0.89822 13.1678 1.08295 13.1678 1.33037V4.99812L9.62733 8.54485C9.55086 8.62047 9.50744 8.72333 9.50659 8.83088V10.6616C9.50659 10.8862 9.68877 11.0683 9.91336 11.0683H11.744C11.8516 11.0675 11.9544 11.0241 12.0301 10.9476L13.1678 9.80984V12.6702C13.1678 12.9176 12.9831 13.1023 12.7356 13.1023H1.39607C1.14863 13.1023 0.963913 12.9176 0.963913 12.6702V1.33058C0.963913 1.08314 1.14864 0.898431 1.39607 0.898431L1.39611 0.89822ZM2.95979 2.93223C2.85196 2.93719 2.75037 2.985 2.67773 3.06488C2.60494 3.14476 2.56692 3.25018 2.57203 3.35815C2.57699 3.46598 2.62481 3.56742 2.70468 3.64021C2.78456 3.71285 2.88998 3.75088 2.99795 3.74577H11.134C11.2428 3.74733 11.3478 3.70519 11.4254 3.62871C11.5029 3.55224 11.5466 3.44796 11.5466 3.33899C11.5466 3.23017 11.5029 3.12574 11.4254 3.04927C11.3478 2.97279 11.2428 2.93066 11.134 2.93221H2.99795C2.98518 2.93165 2.97256 2.93166 2.95979 2.93223ZM15.7994 3.50429L17.0707 4.77554L16.3271 5.5193L15.0558 4.24805L15.7994 3.50429ZM14.4838 4.82011L15.755 6.09136L11.5788 10.2545H10.3203V8.99592L14.4838 4.82011ZM2.95968 5.37303C2.85185 5.37814 2.75026 5.42581 2.67762 5.50569C2.60484 5.58557 2.56681 5.69099 2.57192 5.79896C2.57688 5.90679 2.6247 6.00837 2.70458 6.08102C2.78445 6.1538 2.88987 6.19168 2.99784 6.18672H11.1339C11.2427 6.18814 11.3477 6.146 11.4253 6.06952C11.5028 5.99305 11.5465 5.88877 11.5465 5.7798C11.5465 5.67098 11.5028 5.56655 11.4253 5.49008C11.3477 5.41375 11.2427 5.37147 11.1339 5.37302H2.99784C2.98507 5.37246 2.97245 5.37247 2.95968 5.37303ZM2.95968 7.8138C2.85185 7.81891 2.75026 7.86658 2.67762 7.94646C2.60484 8.02634 2.56681 8.13176 2.57192 8.23973C2.57688 8.3477 2.6247 8.44914 2.70458 8.52179C2.78445 8.59457 2.88987 8.6326 2.99784 8.62749H8.31822C8.42704 8.62905 8.53203 8.58677 8.6095 8.51044C8.68711 8.43396 8.73081 8.32954 8.73081 8.22071C8.73081 8.11175 8.68711 8.00747 8.6095 7.93099C8.53203 7.85452 8.42704 7.81238 8.31822 7.8138H2.99784C2.98507 7.81323 2.97245 7.81323 2.95968 7.8138ZM2.95968 10.2547C2.85185 10.2597 2.75026 10.3074 2.67762 10.3872C2.60484 10.4671 2.56681 10.5727 2.57192 10.6805C2.57688 10.7885 2.6247 10.8899 2.70458 10.9626C2.78445 11.0353 2.88987 11.0734 2.99784 11.0683H8.28626C8.39508 11.0698 8.50007 11.0277 8.57754 10.9512C8.65515 10.8747 8.69884 10.7703 8.69884 10.6615C8.69884 10.5525 8.65515 10.4482 8.57754 10.3718C8.50007 10.2953 8.39508 10.2532 8.28626 10.2547H2.99784C2.98507 10.254 2.97245 10.254 2.95968 10.2547Z" fill="#415A77"/>
</svg>
