<svg width="153" height="188" viewBox="0 0 153 188" fill="none" xmlns="http://www.w3.org/2000/svg">
<g clip-path="url(#clip0_764_10347)">
<g clip-path="url(#clip1_764_10347)">
<path d="M56.1663 81.1138C55.1031 80.5157 50.9165 78.0569 49.8532 77.4588C46.9957 75.8639 43.8059 75 40.4168 75C36.1637 75 31.7777 76.2626 27.4582 78.7879C24.202 80.6486 21.1451 83.1738 18.2876 86.0978C15.2972 89.2876 12.5726 92.9426 10.446 96.8633C6.4588 103.974 4 111.948 4 119.258C4 128.363 7.72142 135.672 14.101 139.394C15.1643 140.058 19.3509 142.451 20.4141 143.049C23.2716 144.71 26.4614 145.574 29.9835 145.574C34.1701 145.574 38.556 144.311 42.942 141.72C46.1982 139.859 49.2551 137.334 52.0462 134.476C55.1031 131.353 57.8277 127.632 59.9542 123.711C63.9414 116.667 66.3338 108.692 66.3338 101.249C66.3338 92.278 62.6788 84.9681 56.1663 81.1138ZM19.5502 122.913C19.5502 118.394 20.7464 113.477 22.8065 108.825L39.0877 124.442C36.8947 126.701 34.5024 128.695 32.0436 130.09C28.455 132.15 25.1988 132.815 22.3413 132.483C20.6135 130.29 19.5502 127.033 19.5502 122.913ZM50.7836 97.6608C50.7836 102.18 49.5209 107.097 47.4609 111.749L31.3126 96.1324C33.5055 93.8065 35.8979 91.8793 38.3567 90.4838C41.8787 88.4237 45.2014 87.7592 47.9925 88.0914C49.7203 90.3509 50.7836 93.5406 50.7836 97.6608Z" fill="#C86868"/>
<path opacity="0.3" d="M10.3131 122.913C10.3131 115.603 12.7719 107.629 16.7592 100.518C18.9521 96.5975 21.6767 92.8761 24.6672 89.6863C27.4582 86.7623 30.5151 84.3036 33.8378 82.3764C38.1573 79.8511 42.5433 78.5885 46.7963 78.5885C50.1855 78.5885 53.3753 79.4524 56.2328 81.0473C55.1695 80.4492 50.9829 77.9904 49.9197 77.3923C46.9957 75.8639 43.8059 75 40.4168 75C36.1637 75 31.7777 76.2626 27.4582 78.7879C24.202 80.6486 21.1451 83.1738 18.2876 86.0978C15.2972 89.2876 12.5726 92.9426 10.446 96.8633C6.4588 103.974 4 111.948 4 119.258C4 128.363 7.72142 135.672 14.101 139.394C15.1643 140.058 19.3509 142.451 20.4141 143.049C14.0345 139.394 10.3131 132.017 10.3131 122.913Z" fill="white"/>
<path opacity="0.2" d="M22.8065 108.892L39.0877 124.509C36.8947 126.768 34.5024 128.762 32.0436 130.157C28.4551 132.217 25.1988 132.882 22.3413 132.549C23.1388 133.613 24.0027 134.477 25.0659 135.075C28.4551 137.068 33.1733 136.803 38.3567 133.812C40.882 132.35 43.2743 130.423 45.4008 128.164L23.6039 107.164C22.8065 108.825 22.8065 108.892 22.8065 108.892Z" fill="#FF0000"/>
<path opacity="0.2" d="M51.6474 89.1541C49.6538 88.0244 47.195 87.7586 44.4704 88.2238C45.733 88.0244 46.9292 87.958 48.0589 88.0909C49.7867 90.3503 50.85 93.5401 50.85 97.6602C50.85 102.179 49.5873 107.097 47.5273 111.748L31.3125 96.1318L53.0429 117.065C55.5682 111.881 57.0966 106.366 57.0966 101.249C57.0966 95.3343 54.9701 91.1477 51.6474 89.1541Z" fill="#FF0000"/>
<path d="M56.1662 81.1131C53.3087 79.5182 50.1189 78.6543 46.7298 78.6543C42.4767 78.6543 38.0908 79.9169 33.7713 82.4422C30.515 84.3029 27.4582 86.8281 24.6006 89.7521C21.6102 92.9419 18.8856 96.6633 16.6926 100.584C12.7054 107.695 10.2466 115.669 10.2466 122.979C10.2466 132.083 13.968 139.393 20.3476 143.115C23.2051 144.776 26.3949 145.64 29.9169 145.64C34.1035 145.64 38.4895 144.377 42.8755 141.786C46.1317 139.925 49.1886 137.4 51.9796 134.542C55.0365 131.419 57.7611 127.697 59.8877 123.777C63.8749 116.732 66.2672 108.758 66.2672 101.315C66.3337 92.2774 62.6787 84.9674 56.1662 81.1131ZM38.3566 133.811C33.1067 136.801 28.455 137.067 25.0658 135.074C21.6767 133.147 19.5501 128.96 19.5501 122.913C19.5501 117.862 21.0786 112.28 23.6038 107.097L45.4007 128.03C43.2742 130.355 40.8818 132.349 38.3566 133.811ZM31.3125 96.1317C33.5055 93.8058 35.8978 91.8786 38.3566 90.4831C43.54 87.4927 48.1918 87.2269 51.5809 89.154C54.9701 91.1476 57.0966 95.3342 57.0966 101.315C57.0966 106.366 55.5682 111.948 53.0429 117.131L31.3125 96.1317Z" fill="#C86868"/>
<path d="M20.4141 143.048C22.1419 144.045 24.069 144.71 25.9962 145.108C27.9234 145.507 29.9834 145.574 31.9106 145.308C35.8978 144.909 39.6857 143.381 43.0749 141.387C49.8532 137.2 55.3688 131.153 59.2896 124.242C63.2768 117.397 65.8685 109.622 66.0679 101.648C66.1344 97.6603 65.4698 93.6731 63.8749 90.0181C62.28 86.3631 59.6219 83.1734 56.1663 81.1133C59.6883 83.1069 62.413 86.2302 64.1408 89.8852C65.8686 93.5402 66.5331 97.5939 66.5331 101.648C66.5331 105.701 65.8021 109.688 64.6724 113.543C63.5427 117.397 61.8149 121.119 59.8877 124.574C57.8941 128.096 55.5017 131.352 52.7107 134.276C49.9196 137.2 46.7963 139.792 43.3407 141.852C39.8851 143.846 36.0307 145.374 31.977 145.707C27.9898 146.039 23.8697 145.175 20.4141 143.048Z" fill="#C86868"/>
<path opacity="0.3" d="M20.4141 143.048C22.1419 144.045 24.069 144.71 25.9962 145.108C27.9234 145.507 29.9834 145.574 31.9106 145.308C35.8978 144.909 39.6857 143.381 43.0749 141.387C49.8532 137.2 55.3688 131.153 59.2896 124.242C63.2768 117.397 65.8685 109.622 66.0679 101.648C66.1344 97.6603 65.4698 93.6731 63.8749 90.0181C62.28 86.3631 59.6219 83.1734 56.1663 81.1133C59.6883 83.1069 62.413 86.2302 64.1408 89.8852C65.8686 93.5402 66.5331 97.5939 66.5331 101.648C66.5331 105.701 65.8021 109.688 64.6724 113.543C63.5427 117.397 61.8149 121.119 59.8877 124.574C57.8941 128.096 55.5017 131.352 52.7107 134.276C49.9196 137.2 46.7963 139.792 43.3407 141.852C39.8851 143.846 36.0307 145.374 31.977 145.707C27.9898 146.039 23.8697 145.175 20.4141 143.048Z" fill="#FAFAFA"/>
<path d="M57.0966 101.316C57.0302 104.041 56.4985 106.765 55.7675 109.357C55.3688 110.686 54.9701 111.949 54.4385 113.211C53.9733 114.341 53.5081 115.471 52.9765 116.601L47.8595 111.617L42.4103 106.433C40.6161 104.705 38.7553 102.978 36.8946 101.25C35.0339 99.522 33.1732 97.8606 31.3125 96.1328C33.0403 97.9271 34.8346 99.7213 36.6288 101.516C38.4231 103.31 40.2173 105.104 42.0116 106.832L47.3944 112.082L52.8436 117.265L53.1094 117.531L53.3088 117.132C53.9068 115.87 54.4385 114.607 54.9036 113.344C55.3688 112.015 55.7675 110.753 56.0998 109.424C56.8308 106.765 57.1631 104.041 57.0966 101.316Z" fill="#C86868"/>
<path opacity="0.3" d="M57.0966 101.316C57.0302 104.041 56.4985 106.765 55.7675 109.357C55.3688 110.686 54.9701 111.949 54.4385 113.211C53.9733 114.341 53.5081 115.471 52.9765 116.601L47.8595 111.617L42.4103 106.433C40.6161 104.705 38.7553 102.978 36.8946 101.25C35.0339 99.522 33.1732 97.8606 31.3125 96.1328C33.0403 97.9271 34.8346 99.7213 36.6288 101.516C38.4231 103.31 40.2173 105.104 42.0116 106.832L47.3944 112.082L52.8436 117.265L53.1094 117.531L53.3088 117.132C53.9068 115.87 54.4385 114.607 54.9036 113.344C55.3688 112.015 55.7675 110.753 56.0998 109.424C56.8308 106.765 57.1631 104.041 57.0966 101.316Z" fill="#FAFAFA"/>
<path d="M10.3131 122.912C10.3131 121.251 10.446 119.523 10.7118 117.796L4.39872 114.207C4.13291 115.935 4 117.596 4 119.258C4 128.362 7.72142 135.672 14.101 139.393C15.1643 140.058 19.3509 142.45 20.4141 143.048C14.0345 139.393 10.3131 132.017 10.3131 122.912Z" fill="#C86868"/>
<path opacity="0.15" d="M10.3131 122.912C10.3131 121.251 10.446 119.523 10.7118 117.796L4.39872 114.207C4.13291 115.935 4 117.596 4 119.258C4 128.362 7.72142 135.672 14.101 139.393C15.1643 140.058 19.3509 142.45 20.4141 143.048C14.0345 139.393 10.3131 132.017 10.3131 122.912Z" fill="#FF0000"/>
<path opacity="0.2" d="M39.0874 124.442L45.4005 128.097L23.6036 107.164L22.8062 108.892L39.0874 124.442Z" fill="#FF0000"/>
</g>
<path d="M117.457 187.846C136.835 187.846 152.544 178.778 152.544 167.593C152.544 156.407 136.835 147.34 117.457 147.34C98.079 147.34 82.3701 156.407 82.3701 167.593C82.3701 178.778 98.079 187.846 117.457 187.846Z" fill="#E6E6E6"/>
<path opacity="0.9" d="M4.09582 99.5531V81.0518V48.0999C4.09582 47.2241 4.36951 46.2935 4.86215 45.4725L1.52316 43.5566C1.08526 44.3777 0.756836 45.3082 0.756836 46.184V54.7231V97.6373C0.756836 98.4036 1.19474 98.8963 1.74211 99.2247C1.90632 99.3342 4.42425 100.757 4.97162 101.086C4.47899 100.812 4.09582 100.21 4.09582 99.5531Z" fill="#37474F"/>
<path opacity="0.8" d="M72.6271 8.19572C72.6271 8.08624 72.6271 8.03151 72.5723 7.97677V7.92203C72.5723 7.81256 72.5176 7.75782 72.5176 7.70308C72.4629 7.59361 72.4081 7.48413 72.3534 7.37466C72.3534 7.31992 72.2986 7.26518 72.2439 7.21044C72.2439 7.15571 72.1892 7.15571 72.1892 7.10097C72.1344 7.04623 72.0797 6.99149 72.0249 6.93676C71.9702 6.88202 71.8607 6.82728 71.806 6.82728C71.3134 6.60833 70.7113 6.66307 70.0544 7.04623L6.7231 43.5014C5.29993 44.3225 4.0957 46.4025 4.0957 48.0446V94.6262V98.8958V99.4979C4.0957 100.976 5.51888 101.687 6.7231 101.085L10.9926 98.6221L69.9997 64.7396C71.4228 63.9185 72.6271 61.8932 72.6271 60.1964V8.52414C72.6818 8.41467 72.6271 8.25046 72.6271 8.19572Z" fill="#0B2A38"/>
<g opacity="0.5">
<path d="M69.9996 6.99101L6.72301 43.5009C6.01143 43.9388 5.35457 44.6504 4.86194 45.4715L1.52295 43.5557C2.01559 42.7346 2.6177 42.023 3.32929 41.6398L66.6606 5.07519C67.4269 4.63729 68.0838 4.63729 68.5764 4.91098C69.069 5.18467 71.2038 6.44363 71.8059 6.71732C71.3133 6.55311 70.7112 6.60784 69.9996 6.99101Z" fill="#37474F"/>
</g>
<path d="M23.0896 46.0762C23.1443 46.0215 23.199 46.0215 23.2538 46.0762C23.3085 46.1309 23.3085 46.1857 23.3632 46.2404L24.7864 51.1121V51.1668C24.7864 51.2215 24.7864 51.2763 24.7317 51.3857C24.6769 51.4405 24.6769 51.4952 24.6222 51.55L24.1843 51.7689C24.1296 51.8236 24.0748 51.8236 24.0201 51.7689C23.9654 51.7142 23.9654 51.7142 23.9654 51.6594L23.6917 50.7836L21.8306 51.8784L21.5569 53.0279C21.5569 53.0826 21.5022 53.1373 21.5022 53.1921C21.4474 53.2468 21.3927 53.3016 21.338 53.3563L20.9001 53.5752C20.8453 53.5752 20.8453 53.5752 20.7906 53.5752C20.7358 53.5205 20.7358 53.5205 20.7358 53.411V53.3563L22.159 46.7878C22.159 46.6783 22.2138 46.5688 22.2685 46.5141C22.3232 46.4594 22.3232 46.4046 22.4327 46.3499L23.0896 46.0762ZM23.418 49.8531L22.7611 47.6636L22.1043 50.6194L23.418 49.8531Z" fill="#FAFAFA"/>
<path d="M26.702 46.7317C26.4831 46.8412 26.3189 47.0601 26.2094 47.2791C26.0999 47.498 26.0452 47.7717 26.0452 48.1549V50.5086C26.0452 50.5633 26.0452 50.6181 25.9904 50.7276C25.9357 50.7823 25.9357 50.837 25.881 50.8918L25.3883 51.1107C25.3336 51.1107 25.3336 51.1107 25.2789 51.1107C25.2241 51.056 25.2241 51.056 25.2241 50.9465V46.7317C25.2241 46.677 25.2241 46.6222 25.2789 46.5128C25.3336 46.458 25.3336 46.4033 25.3883 46.3486L25.8262 46.0749C25.881 46.0749 25.881 46.0749 25.9357 46.0749C25.9904 46.1296 25.9904 46.1296 25.9904 46.2391V46.458C26.0999 46.2391 26.2094 46.0749 26.3189 45.9107C26.4283 45.7464 26.5926 45.637 26.7568 45.5275L27.0305 45.3633C27.0852 45.3633 27.0852 45.3633 27.1399 45.3633C27.1947 45.418 27.1947 45.418 27.1947 45.5275V46.1843C27.1947 46.2391 27.1947 46.2938 27.1399 46.4033C27.0852 46.458 27.0852 46.5128 27.0305 46.5128L26.702 46.7317Z" fill="#FAFAFA"/>
<path d="M27.5229 47.4992C27.5229 47.1708 27.5777 46.8424 27.6324 46.4592C27.6872 46.1308 27.7966 45.8024 27.9061 45.5287C28.0156 45.255 28.1798 44.9813 28.344 44.7624C28.5082 44.5434 28.7272 44.3792 28.9461 44.215C29.1651 44.1055 29.384 44.0508 29.5482 44.0508C29.7124 44.0508 29.8767 44.1603 29.9861 44.2697C30.0956 44.3792 30.2051 44.5982 30.2598 44.8171C30.3146 45.0361 30.3693 45.3097 30.3693 45.6382V46.0213C30.3693 46.0761 30.3693 46.1308 30.3146 46.2403C30.2598 46.295 30.2598 46.3498 30.2051 46.4045L28.2345 47.554C28.2345 47.7182 28.2345 47.8277 28.2893 47.8824C28.344 47.9919 28.3987 48.0466 28.4535 48.0466C28.5082 48.1014 28.563 48.1014 28.6724 48.1014C28.7819 48.1014 28.8366 48.0466 28.9461 47.9919C29.0556 47.9371 29.1651 47.8277 29.2745 47.7729C29.3293 47.6635 29.4388 47.6087 29.4935 47.4992C29.5482 47.4445 29.5482 47.3898 29.603 47.335C29.6577 47.2803 29.6577 47.2803 29.7124 47.2256L30.2051 46.9519C30.2598 46.9519 30.2598 46.9519 30.3146 46.9519C30.3693 47.0066 30.3693 47.0066 30.3693 47.1161C30.3693 47.2256 30.3146 47.335 30.2598 47.4992C30.2051 47.6635 30.0956 47.8277 29.9861 48.0466C29.8767 48.2656 29.7124 48.4298 29.5482 48.594C29.384 48.7582 29.1651 48.9224 28.9461 49.0866C28.7272 49.1961 28.5082 49.2508 28.344 49.2508C28.1798 49.2508 28.0156 49.1414 27.9061 49.0319C27.7966 48.8677 27.6872 48.7035 27.6324 48.4298C27.5229 48.2108 27.5229 47.8824 27.5229 47.4992ZM28.9461 45.3097C28.8366 45.3645 28.7272 45.474 28.6724 45.5287C28.6177 45.6382 28.5082 45.7476 28.4535 45.8571C28.3987 45.9666 28.344 46.0761 28.344 46.1855C28.2893 46.295 28.2893 46.4045 28.2893 46.514L29.603 45.7476C29.603 45.6382 29.603 45.5834 29.5482 45.474C29.5482 45.3645 29.4935 45.3097 29.4388 45.255C29.384 45.2003 29.3293 45.1455 29.2198 45.1455C29.1651 45.2003 29.0556 45.255 28.9461 45.3097Z" fill="#FAFAFA"/>
<path d="M33.1612 46.3508L32.0117 42.8476V42.7929C32.0117 42.7381 32.0117 42.6834 32.0665 42.5739C32.1212 42.5192 32.1212 42.4644 32.1759 42.4097L32.6138 42.136C32.6686 42.136 32.7233 42.136 32.7233 42.136C32.778 42.1908 32.778 42.1908 32.778 42.2455L33.5444 44.5992L34.3107 41.3697C34.3107 41.315 34.3654 41.2602 34.3654 41.2055C34.4202 41.1507 34.4202 41.096 34.4749 41.0413L34.9128 40.7676C34.9675 40.7676 34.9675 40.7676 35.0223 40.7676C35.077 40.8223 35.077 40.8223 35.077 40.9318V40.9865L33.4349 47.8287C33.4349 47.8835 33.3802 47.9382 33.3802 47.9929C33.3254 48.0477 33.3254 48.1024 33.2707 48.1571L32.8328 48.4308C32.778 48.4308 32.778 48.4308 32.7233 48.4308C32.6686 48.3761 32.6686 48.3761 32.6686 48.2666V48.2119L33.1612 46.3508Z" fill="#FAFAFA"/>
<path d="M36.9379 39.6173C37.1568 39.5079 37.3758 39.4531 37.54 39.4531C37.7042 39.4531 37.8684 39.5079 37.9779 39.6173C38.0874 39.7268 38.1968 39.891 38.3063 40.0552C38.361 40.2742 38.4158 40.4931 38.4158 40.7668C38.4158 40.8216 38.4158 40.8763 38.4158 40.9858C38.4158 41.0953 38.4158 41.15 38.4158 41.2595C38.4158 41.3689 38.4158 41.4237 38.4158 41.5332C38.4158 41.5879 38.4158 41.6974 38.4158 41.7521C38.4158 42.0258 38.361 42.2995 38.3063 42.6279C38.2516 42.9016 38.1421 43.1753 37.9779 43.449C37.8684 43.7227 37.7042 43.9416 37.54 44.1058C37.3758 44.3248 37.1568 44.489 36.9379 44.5985C36.7189 44.7079 36.5 44.7627 36.3358 44.7627C36.1715 44.7627 36.0073 44.7079 35.8979 44.5985C35.7884 44.489 35.6789 44.3248 35.5694 44.1606C35.5147 43.9416 35.46 43.7227 35.46 43.449C35.46 43.3942 35.46 43.3395 35.46 43.23C35.46 43.1753 35.46 43.0658 35.46 42.9563C35.46 42.8469 35.46 42.7921 35.46 42.6826C35.46 42.5732 35.46 42.5184 35.46 42.4637C35.46 42.19 35.5147 41.9163 35.5694 41.5879C35.6242 41.3142 35.7336 41.0405 35.8979 40.7668C36.0073 40.4931 36.1715 40.2742 36.3358 40.0552C36.5 39.9458 36.7189 39.7816 36.9379 39.6173ZM37.6495 41.2595C37.6495 41.0953 37.5947 40.931 37.54 40.8216C37.4852 40.7121 37.4305 40.6574 37.3758 40.6026C37.321 40.5479 37.2116 40.5479 37.1568 40.6026C37.1021 40.6026 36.9926 40.6574 36.9379 40.7121C36.8284 40.7668 36.7737 40.8216 36.7189 40.8763C36.6642 40.931 36.5547 41.0405 36.5 41.15C36.4452 41.2595 36.3905 41.3689 36.3358 41.5332C36.281 41.6974 36.281 41.8616 36.2263 42.0258C36.2263 42.0805 36.2263 42.1353 36.2263 42.19C36.2263 42.2447 36.2263 42.3542 36.2263 42.409C36.2263 42.4637 36.2263 42.5732 36.2263 42.6279C36.2263 42.6826 36.2263 42.7374 36.2263 42.7921C36.2263 42.9563 36.281 43.1205 36.3358 43.23C36.3905 43.3395 36.4452 43.3942 36.5 43.449C36.5547 43.5037 36.6642 43.5037 36.7189 43.449C36.7737 43.449 36.8831 43.3942 36.9379 43.3395C37.0473 43.2848 37.1021 43.23 37.1568 43.1753C37.2116 43.1205 37.321 43.0111 37.3758 42.9016C37.4305 42.7921 37.4852 42.6826 37.54 42.5184C37.5947 42.3542 37.5947 42.19 37.6495 42.0258C37.6495 41.9711 37.6495 41.9163 37.6495 41.8616C37.6495 41.8068 37.6495 41.6974 37.6495 41.6426C37.6495 41.5879 37.6495 41.4784 37.6495 41.4237C37.6495 41.3689 37.6495 41.3142 37.6495 41.2595Z" fill="#FAFAFA"/>
<path d="M39.0728 38.74C39.0728 38.6853 39.0728 38.6306 39.1275 38.5211C39.1822 38.4663 39.1822 38.4116 39.237 38.3569L39.6749 38.0832C39.7296 38.0832 39.7296 38.0832 39.7843 38.0832C39.8391 38.1379 39.8391 38.1379 39.8391 38.2474V40.5464C39.8391 40.9295 39.8938 41.1485 40.0033 41.3127C40.1128 41.4769 40.277 41.4769 40.4959 41.3674C40.7149 41.258 40.8791 41.039 40.9886 40.7653C41.098 40.4916 41.1528 40.1632 41.1528 39.78V37.4811C41.1528 37.4263 41.1528 37.3716 41.2075 37.2621C41.2623 37.2074 41.2623 37.1526 41.317 37.0979L41.7549 36.8242C41.8096 36.8242 41.8096 36.8242 41.8644 36.8242C41.9191 36.879 41.9191 36.879 41.9191 36.9884V41.2032C41.9191 41.258 41.9191 41.3127 41.8644 41.4222C41.8096 41.4769 41.8096 41.5316 41.7549 41.5864L41.2623 41.9148C41.2075 41.9148 41.2075 41.9148 41.1528 41.9148C41.098 41.8601 41.098 41.8601 41.098 41.7506V41.5316C40.9886 41.6959 40.8791 41.9148 40.7696 42.079C40.6601 42.2432 40.4959 42.4074 40.277 42.5169C40.058 42.6811 39.8391 42.7359 39.6749 42.6811C39.5107 42.6811 39.4012 42.5717 39.2917 42.4622C39.1822 42.298 39.1275 42.1338 39.0728 41.9148C39.0728 41.6959 39.0728 41.4769 39.0728 41.1485V38.74Z" fill="#FAFAFA"/>
<path d="M45.6961 38.0285C45.6961 37.9738 45.6961 37.9191 45.6413 37.8643C45.6413 37.8643 45.5866 37.8096 45.4771 37.8096C45.4224 37.8096 45.3129 37.8096 45.2034 37.8643C45.094 37.9191 44.9298 37.9191 44.7656 37.9738C44.6013 38.0285 44.4371 38.0285 44.3276 37.9738C44.2182 37.9738 44.1087 37.9191 44.054 37.8096C43.9992 37.7549 43.9445 37.6454 43.8898 37.4812C43.835 37.317 43.835 37.2075 43.835 36.9885C43.835 36.8243 43.835 36.6054 43.9445 36.3864C43.9992 36.1675 44.054 36.0033 44.1634 35.7843C44.2729 35.5654 44.3824 35.4011 44.5466 35.2369C44.7108 35.0727 44.875 34.9085 45.0392 34.799C45.2582 34.6896 45.4224 34.6348 45.5319 34.5801C45.6961 34.5801 45.8056 34.5801 45.915 34.6348C46.0245 34.6896 46.0792 34.7443 46.1887 34.8538C46.2435 34.9632 46.2982 35.0727 46.2982 35.2369C46.2982 35.2917 46.2982 35.3464 46.2435 35.4559C46.1887 35.5106 46.1887 35.5654 46.134 35.6201L45.6961 35.8938C45.6413 35.9485 45.5866 35.9485 45.5866 35.8938C45.5319 35.8938 45.5319 35.839 45.4771 35.839C45.4224 35.839 45.3677 35.7843 45.3129 35.7843C45.2582 35.7843 45.1487 35.839 45.0392 35.8938C44.9298 35.9485 44.8203 36.058 44.7108 36.1675C44.6013 36.2769 44.6013 36.3864 44.6013 36.5506C44.6013 36.6054 44.6013 36.6601 44.6561 36.7148C44.6561 36.7696 44.7108 36.7696 44.7656 36.7696C44.8203 36.7696 44.9298 36.7696 45.0392 36.7148C45.1487 36.7148 45.3129 36.6601 45.4771 36.6054C45.8056 36.4959 46.0792 36.5506 46.2435 36.7148C46.4077 36.8791 46.4624 37.1527 46.4624 37.4812C46.4624 37.6454 46.4077 37.8643 46.3529 38.0833C46.2982 38.3022 46.1887 38.4664 46.0793 38.6854C45.9698 38.9043 45.8056 39.0686 45.6413 39.2328C45.4771 39.397 45.3129 39.5612 45.094 39.6707C44.875 39.7801 44.7108 39.8349 44.5466 39.8896C44.3824 39.8896 44.2729 39.8896 44.1634 39.8349C44.054 39.7801 43.9445 39.6707 43.8898 39.5612C43.835 39.4517 43.7803 39.2875 43.7803 39.178C43.7803 39.1233 43.7803 39.0686 43.835 38.9591C43.8897 38.9043 43.8898 38.8496 43.9445 38.7949L44.3824 38.5212C44.4371 38.4664 44.4919 38.4664 44.4919 38.5212C44.5466 38.5212 44.5466 38.5759 44.6013 38.6307C44.6561 38.6854 44.7108 38.6854 44.7656 38.6854C44.8203 38.6854 44.9298 38.6307 45.0392 38.5759C45.094 38.5212 45.1487 38.5212 45.2034 38.4664C45.2582 38.4117 45.3129 38.357 45.3677 38.3022C45.4224 38.2475 45.4771 38.1928 45.4771 38.138C45.6961 38.138 45.6961 38.0833 45.6961 38.0285Z" fill="#FAFAFA"/>
<path d="M47.0645 34.0876C47.0645 34.0329 47.0645 33.9782 47.1192 33.8687C47.1739 33.814 47.1739 33.7592 47.2287 33.7045L47.6666 33.4308C47.7213 33.4308 47.7213 33.4308 47.776 33.4308C47.8308 33.5403 47.8308 33.595 47.8308 33.6497V35.9487C47.8308 36.3319 47.8855 36.5508 47.995 36.715C48.1045 36.8792 48.2687 36.8793 48.4876 36.7698C48.7066 36.6603 48.8708 36.4413 48.9803 36.1677C49.0897 35.894 49.1445 35.5656 49.1445 35.1824V32.8834C49.1445 32.8287 49.1445 32.7739 49.1992 32.6645C49.254 32.6097 49.254 32.555 49.3087 32.5003L49.7466 32.2266C49.8013 32.2266 49.8013 32.2266 49.8561 32.2266C49.9108 32.2813 49.9108 32.2813 49.9108 32.3908V36.6056C49.9108 36.6603 49.9108 36.715 49.8561 36.8245C49.8013 36.8793 49.8013 36.934 49.7466 36.9887L49.3087 37.2624C49.254 37.2624 49.254 37.2624 49.1992 37.2624C49.1445 37.2077 49.1445 37.2077 49.1445 37.0982V36.8793C49.035 37.0435 48.9255 37.2624 48.8161 37.4266C48.7066 37.5908 48.5424 37.7551 48.3234 37.8645C48.1045 38.0287 47.8855 38.0835 47.7213 38.0287C47.5571 38.0287 47.4476 37.9193 47.3381 37.8098C47.2287 37.6456 47.1739 37.4814 47.1192 37.2624C47.0645 37.0435 47.0645 36.7698 47.0645 36.4961V34.0876Z" fill="#FAFAFA"/>
<path d="M52.1004 32.0638C51.8815 32.1732 51.7173 32.3922 51.6078 32.6111C51.4983 32.8301 51.4436 33.1038 51.4436 33.4869V35.7859C51.4436 35.8406 51.4436 35.8954 51.3888 36.0049C51.3341 36.0596 51.3341 36.1143 51.2794 36.1691L50.8415 36.4427C50.7867 36.4427 50.7867 36.4427 50.732 36.4427C50.6772 36.388 50.6772 36.388 50.6772 36.2785V32.0638C50.6772 32.009 50.6772 31.9543 50.732 31.8448C50.7867 31.7901 50.7867 31.7353 50.8415 31.6806L51.2794 31.4069C51.3341 31.4069 51.3341 31.4069 51.3888 31.4069C51.4436 31.4616 51.4436 31.4616 51.4436 31.5711V31.7901C51.553 31.5711 51.6625 31.4069 51.772 31.2427C51.8815 31.0785 52.0457 30.969 52.2099 30.8595L52.4836 30.6953C52.5383 30.6953 52.5383 30.6953 52.5931 30.6953C52.6478 30.7501 52.6478 30.75 52.6478 30.8595V31.4616C52.6478 31.5164 52.6478 31.5711 52.5931 31.6806C52.5383 31.7353 52.5383 31.7901 52.4836 31.7901L52.1004 32.0638Z" fill="#FAFAFA"/>
<path d="M52.9214 32.8293C52.9214 32.5009 52.9761 32.1725 53.0309 31.7893C53.0856 31.4609 53.1951 31.1325 53.3045 30.8588C53.414 30.5851 53.5782 30.3114 53.7424 30.0924C53.9067 29.8735 54.1256 29.7093 54.3446 29.5451C54.5635 29.4356 54.7825 29.3809 54.9467 29.3809C55.1109 29.3809 55.2751 29.4903 55.3846 29.5998C55.494 29.7093 55.6035 29.9282 55.6583 30.1472C55.713 30.3661 55.7677 30.6398 55.7677 30.9682V31.4061C55.7677 31.4609 55.7677 31.5156 55.713 31.6251C55.6583 31.6798 55.6583 31.7346 55.6035 31.7893L53.633 32.9388C53.633 33.103 53.633 33.2125 53.6877 33.2672C53.7424 33.3767 53.7972 33.4314 53.8519 33.4314C53.9067 33.4862 53.9614 33.4862 54.0709 33.4862C54.1803 33.4862 54.2351 33.4314 54.3446 33.3767C54.454 33.322 54.5635 33.2125 54.673 33.1577C54.7277 33.0483 54.8372 32.9935 54.8919 32.8841C54.9467 32.8293 54.9467 32.7746 55.0014 32.7198C55.0561 32.6651 55.0561 32.6651 55.1109 32.6104L55.6035 32.3367C55.6583 32.3367 55.6583 32.3367 55.713 32.3367C55.7677 32.3914 55.7677 32.3914 55.7677 32.5009C55.7677 32.6104 55.713 32.7198 55.6583 32.8841C55.6035 33.0483 55.494 33.2125 55.3846 33.4314C55.2751 33.6504 55.1109 33.8146 54.9467 33.9788C54.7825 34.143 54.5635 34.3072 54.3446 34.4714C54.1256 34.5809 53.9067 34.6357 53.7424 34.6357C53.5782 34.6357 53.414 34.5262 53.3045 34.4167C53.1951 34.2525 53.0856 34.0883 53.0309 33.8146C52.9761 33.4862 52.9214 33.2125 52.9214 32.8293ZM54.3993 30.6398C54.2898 30.6946 54.1803 30.804 54.1256 30.8588C54.0709 30.9682 53.9614 31.0777 53.9067 31.1872C53.8519 31.2967 53.7972 31.4061 53.7972 31.5156C53.7424 31.6251 53.7424 31.7346 53.7424 31.844L55.0561 31.0777C55.0561 30.9682 55.0561 30.9135 55.0014 30.804C55.0014 30.6946 54.9467 30.6398 54.8919 30.5851C54.8372 30.5303 54.7825 30.4756 54.673 30.4756C54.6182 30.5303 54.5088 30.5851 54.3993 30.6398Z" fill="#FAFAFA"/>
<path d="M11.3209 69.8313L10.1714 66.3281V66.2733C10.1714 66.2186 10.1714 66.1639 10.2261 66.0544C10.2809 65.9996 10.2809 65.9449 10.3356 65.8902L10.7735 65.6165C10.8282 65.6165 10.883 65.6165 10.883 65.6165C10.9377 65.6712 10.9377 65.6712 10.9377 65.726L11.704 68.0797L12.4704 64.8502C12.4704 64.7954 12.5251 64.7407 12.5251 64.6859C12.5798 64.6312 12.5798 64.5765 12.6346 64.5217L13.0725 64.248C13.1272 64.248 13.1272 64.248 13.1819 64.248C13.2367 64.3028 13.2367 64.3028 13.2367 64.4123V64.467L11.5946 71.3092C11.5946 71.3639 11.5398 71.4187 11.5398 71.4734C11.4851 71.5281 11.4851 71.5829 11.4303 71.6376L10.9924 71.9113C10.9377 71.9113 10.9377 71.9113 10.883 71.9113C10.8282 71.8566 10.8282 71.8566 10.8282 71.7471V71.6924L11.3209 69.8313Z" fill="#FAFAFA"/>
<path d="M15.098 63.0998C15.317 62.9903 15.5359 62.9355 15.7001 62.9355C15.8644 62.9355 16.0286 62.9903 16.138 63.0998C16.2475 63.2092 16.357 63.3734 16.4665 63.5377C16.5212 63.7566 16.5759 63.9756 16.5759 64.2492C16.5759 64.304 16.5759 64.3587 16.5759 64.4682C16.5759 64.5777 16.5759 64.6324 16.5759 64.7419C16.5759 64.8514 16.5759 64.9061 16.5759 65.0156C16.5759 65.0703 16.5759 65.1798 16.5759 65.2345C16.5759 65.5082 16.5212 65.7819 16.4665 66.1103C16.4117 66.384 16.3023 66.6577 16.138 66.9314C16.0286 67.2051 15.8644 67.424 15.7001 67.5882C15.5359 67.8072 15.317 67.9714 15.098 68.0809C14.8791 68.1903 14.6601 68.2451 14.4959 68.2451C14.3317 68.2451 14.1675 68.1903 14.058 68.0809C13.9485 67.9714 13.8391 67.8072 13.7296 67.643C13.6749 67.424 13.6201 67.2051 13.6201 66.9314C13.6201 66.8766 13.6201 66.8219 13.6201 66.7124C13.6201 66.6577 13.6201 66.5482 13.6201 66.4387C13.6201 66.3293 13.6201 66.2745 13.6201 66.1651C13.6201 66.0556 13.6201 66.0008 13.6201 65.9461C13.6201 65.6724 13.6749 65.3987 13.7296 65.0703C13.7843 64.7966 13.8938 64.5229 14.058 64.2492C14.1675 63.9756 14.3317 63.7566 14.4959 63.5377C14.6601 63.4282 14.8791 63.264 15.098 63.0998ZM15.8096 64.7419C15.8096 64.5777 15.7549 64.4135 15.7001 64.304C15.6454 64.1945 15.5907 64.1398 15.5359 64.085C15.4812 64.0303 15.3717 64.0303 15.317 64.085C15.2622 64.085 15.1528 64.1398 15.098 64.1945C14.9886 64.2492 14.9338 64.304 14.8791 64.3587C14.8243 64.4135 14.7149 64.5229 14.6601 64.6324C14.6054 64.7419 14.5507 64.8514 14.4959 65.0156C14.4412 65.1798 14.4412 65.344 14.3864 65.5082C14.3864 65.5629 14.3864 65.6177 14.3864 65.6724C14.3864 65.7272 14.3864 65.8366 14.3864 65.8914C14.3864 65.9461 14.3864 66.0556 14.3864 66.1103C14.3864 66.1651 14.3864 66.2198 14.3864 66.2745C14.3864 66.4387 14.4412 66.603 14.4959 66.7124C14.5507 66.8219 14.6054 66.8766 14.6601 66.9314C14.7149 66.9861 14.8243 66.9861 14.8791 66.9314C14.9338 66.9314 15.0433 66.8766 15.098 66.8219C15.2075 66.7672 15.2622 66.7124 15.317 66.6577C15.3717 66.603 15.4812 66.4935 15.5359 66.384C15.5907 66.2745 15.6454 66.1651 15.7001 66.0008C15.7549 65.8366 15.7549 65.6724 15.8096 65.5082C15.8096 65.4535 15.8096 65.3987 15.8096 65.344C15.8096 65.2893 15.8096 65.1798 15.8096 65.125C15.8096 65.0703 15.8096 64.9608 15.8096 64.9061C15.8096 64.8514 15.8096 64.7966 15.8096 64.7419Z" fill="#FAFAFA"/>
<path d="M17.2324 62.2225C17.2324 62.1677 17.2324 62.113 17.2872 62.0035C17.3419 61.9488 17.3419 61.894 17.3966 61.8393L17.8345 61.5656C17.8893 61.5656 17.8893 61.5656 17.944 61.5656C17.9987 61.6203 17.9987 61.6203 17.9987 61.7298V64.0288C17.9987 64.412 18.0535 64.6309 18.163 64.7951C18.2724 64.9593 18.4366 64.9593 18.6556 64.8499C18.8745 64.7404 19.0388 64.5214 19.1482 64.2477C19.2577 63.9741 19.3124 63.6456 19.3124 63.2625V60.9635C19.3124 60.9088 19.3124 60.854 19.3672 60.7445C19.4219 60.6898 19.4219 60.6351 19.4767 60.5803L19.9146 60.3066C19.9693 60.3066 19.9693 60.3066 20.024 60.3066C20.0788 60.3614 20.0788 60.3614 20.0788 60.4709V64.6856C20.0788 64.7404 20.0788 64.7951 20.024 64.9046C19.9693 64.9593 19.9693 65.0141 19.9146 65.0688L19.4767 65.3425C19.4219 65.3425 19.4219 65.3425 19.3672 65.3425C19.3124 65.2878 19.3124 65.2878 19.3124 65.1783V64.9593C19.203 65.1235 19.0935 65.3425 18.984 65.5067C18.8745 65.6709 18.7103 65.8351 18.4914 65.9446C18.2724 66.1088 18.0535 66.1636 17.8893 66.1088C17.7251 66.1088 17.6156 65.9993 17.5061 65.8899C17.3966 65.7257 17.3419 65.5614 17.2872 65.3425C17.2324 65.1235 17.2324 64.8499 17.2324 64.5762V62.2225Z" fill="#FAFAFA"/>
<path d="M25.0599 60.2532L25.6073 57.3521C25.6073 57.2974 25.662 57.2426 25.662 57.1879C25.662 57.1332 25.7168 57.0784 25.7715 57.0237L26.2094 56.75C26.2642 56.75 26.2642 56.75 26.3189 56.75C26.3736 56.8047 26.3736 56.8047 26.3736 56.9142V56.9689L25.4978 61.6764C25.4978 61.7311 25.4431 61.7858 25.4431 61.8406C25.4431 61.8953 25.3884 61.9501 25.3336 62.0048L24.8957 62.2785C24.841 62.3332 24.7862 62.3332 24.7862 62.2785C24.7862 62.2238 24.7315 62.2237 24.7315 62.169L24.1841 60.089L23.6368 62.8259C23.6368 62.8806 23.582 62.9353 23.582 62.9901C23.582 63.0448 23.5273 63.0995 23.4725 63.1543L23.0346 63.428C22.9799 63.4827 22.9252 63.4827 22.9252 63.428C22.9252 63.3732 22.8704 63.3732 22.8704 63.3185L21.9946 59.6511V59.5963C21.9946 59.5416 21.9946 59.4869 22.0494 59.3774C22.1041 59.3227 22.1041 59.2679 22.1588 59.2132L22.5967 58.9395C22.6515 58.8848 22.7062 58.8848 22.7062 58.9395C22.7062 58.9942 22.761 58.9942 22.761 59.049L23.3083 61.3479L23.8557 58.4469C23.8557 58.3921 23.8557 58.3374 23.9104 58.2826C23.9652 58.2279 23.9652 58.1732 24.0199 58.1732L24.4578 57.8995C24.5126 57.8995 24.5126 57.8995 24.5673 57.8995C24.622 57.9542 24.622 57.9542 24.622 58.009L25.0599 60.2532Z" fill="#FAFAFA"/>
<path d="M26.8664 57.5704C26.8664 57.4609 26.9211 57.2967 26.9758 57.0777C27.0306 56.9135 27.14 56.6946 27.1948 56.5303C27.3043 56.3661 27.4137 56.1472 27.5779 55.983C27.7422 55.8188 27.9064 55.6545 28.1253 55.5451C28.3443 55.4356 28.5085 55.3809 28.6727 55.3809C28.8369 55.3809 28.9464 55.4356 29.1106 55.4903C29.2201 55.5998 29.3295 55.7093 29.3843 55.9282C29.439 56.1472 29.4938 56.3661 29.4938 56.6946V59.3767C29.4938 59.4314 29.4938 59.4862 29.439 59.5956C29.3843 59.6504 29.3843 59.7051 29.3295 59.7599L28.8916 60.0335C28.8369 60.0335 28.8369 60.0335 28.7822 60.0335C28.7274 59.9788 28.7274 59.9788 28.7274 59.8693V59.5956C28.618 59.8146 28.5085 60.0335 28.3443 60.2525C28.1801 60.4714 28.0158 60.6357 27.7422 60.7999C27.5779 60.9093 27.4137 60.9641 27.3043 60.9641C27.1948 60.9641 27.0853 60.9641 26.9758 60.8546C26.8664 60.7999 26.8116 60.6904 26.7569 60.5262C26.7021 60.362 26.7021 60.1978 26.7021 59.9788C26.7021 59.5409 26.8116 59.1577 26.9758 58.8293C27.1948 58.5009 27.4137 58.1725 27.7422 57.8988L28.7274 57.0777C28.7274 56.804 28.6727 56.6946 28.5632 56.6398C28.4537 56.5851 28.3443 56.6398 28.1801 56.6946C28.0706 56.7493 28.0158 56.804 27.9611 56.9135C27.9064 56.9682 27.8516 57.0777 27.7969 57.1872C27.7422 57.2419 27.7422 57.2967 27.6874 57.3514C27.6327 57.4061 27.6327 57.4061 27.5779 57.4609L27.0306 57.7893C26.9758 57.7893 26.9758 57.7893 26.9211 57.7893C26.8664 57.6798 26.8116 57.6251 26.8664 57.5704ZM27.8516 59.5956C27.9611 59.5409 28.1253 59.4314 28.2348 59.322C28.3443 59.2125 28.399 59.103 28.5085 58.9388C28.5632 58.7746 28.618 58.6651 28.6727 58.5009C28.7274 58.3367 28.7274 58.2272 28.7274 58.1177V58.0083L27.9064 58.6651C27.7422 58.7746 27.6327 58.9388 27.5779 59.0483C27.5232 59.1577 27.4685 59.322 27.4685 59.4314C27.4685 59.5409 27.5232 59.6504 27.5779 59.6504C27.6327 59.6504 27.6874 59.6504 27.8516 59.5956Z" fill="#FAFAFA"/>
<path d="M33.1066 57.2956C33.1066 57.3504 33.1066 57.4051 33.0519 57.5146C32.9971 57.5693 32.9971 57.624 32.9424 57.6788L32.5045 57.9525C32.4498 57.9525 32.4498 57.9525 32.395 57.9525C32.3403 57.8977 32.3403 57.8977 32.3403 57.7882V55.4893C32.3403 55.1061 32.2855 54.8872 32.1761 54.7229C32.0666 54.5587 31.9024 54.5587 31.6834 54.6682C31.4645 54.7777 31.3003 54.9966 31.1908 55.2703C31.0813 55.544 31.0266 55.8724 31.0266 56.2556V58.5546C31.0266 58.6093 31.0266 58.664 30.9718 58.7735C30.9171 58.8283 30.9171 58.883 30.8624 58.9377L30.4245 59.2114C30.3697 59.2114 30.3697 59.2114 30.315 59.2114C30.2603 59.1567 30.2603 59.1567 30.2603 59.0472V54.8324C30.2603 54.7777 30.2603 54.7229 30.315 54.6135C30.3697 54.5587 30.3697 54.504 30.4245 54.4493L30.8624 54.1756C30.9171 54.1756 30.9171 54.1756 30.9718 54.1756C31.0266 54.2303 31.0266 54.2303 31.0266 54.3398V54.5587C31.1361 54.3398 31.2455 54.1208 31.4097 53.9566C31.574 53.7924 31.6834 53.6282 31.9024 53.5187C32.1213 53.3545 32.3403 53.2998 32.5045 53.3545C32.6687 53.3545 32.7782 53.464 32.8877 53.5735C32.9971 53.7377 33.0519 53.9019 33.1066 54.1208C33.1613 54.3398 33.1613 54.6135 33.1613 54.8872V57.2956H33.1066Z" fill="#FAFAFA"/>
<path d="M34.8581 54.7797C34.8581 54.9439 34.9128 55.1081 34.9676 55.1629C35.0223 55.2176 35.1318 55.2176 35.3507 55.1081L35.7339 54.8892C35.7886 54.8892 35.7886 54.8892 35.8434 54.8892C35.8981 54.9439 35.8981 54.9439 35.8981 55.0534V55.6555C35.8981 55.7102 35.8981 55.765 35.8434 55.8744C35.7886 55.9292 35.7886 55.9839 35.7339 56.0387L35.296 56.3123C34.9128 56.5313 34.6391 56.5313 34.4202 56.3671C34.2012 56.2029 34.1465 55.8197 34.1465 55.2723V53.3018L33.7633 53.5207C33.7086 53.5207 33.7086 53.5207 33.6539 53.5207C33.5991 53.466 33.5991 53.466 33.5991 53.3565V52.7544C33.5991 52.6997 33.5991 52.6449 33.6539 52.5355C33.7086 52.4807 33.7086 52.426 33.7633 52.3712L34.1465 52.1523V50.6744C34.1465 50.6196 34.1465 50.5649 34.2012 50.4554C34.256 50.4007 34.256 50.346 34.3107 50.346L34.7486 50.0723C34.8033 50.0723 34.8033 50.0723 34.8581 50.0723C34.9128 50.127 34.9128 50.127 34.9128 50.2365V51.7144L35.6791 51.2765C35.7339 51.2765 35.7339 51.2765 35.7886 51.2765C35.8434 51.3312 35.8434 51.3312 35.8434 51.4407V52.0428C35.8434 52.0976 35.8434 52.1523 35.7886 52.2618C35.7339 52.3165 35.7339 52.3712 35.6791 52.3712L34.9128 52.8091V54.7797H34.8581Z" fill="#FAFAFA"/>
<path d="M38.6897 52.5902C38.6897 52.7544 38.7444 52.9187 38.7992 52.9734C38.8539 53.0281 38.9634 53.0281 39.1823 52.9187L39.5655 52.6997C39.6202 52.6997 39.6202 52.6997 39.675 52.6997C39.7297 52.7545 39.7297 52.7544 39.7297 52.8639V53.466C39.7297 53.5208 39.7297 53.5755 39.675 53.685C39.6202 53.7397 39.6202 53.7945 39.5655 53.8492L39.0728 54.0682C38.6897 54.2871 38.416 54.2871 38.197 54.1229C37.9781 53.9587 37.9234 53.5755 37.9234 53.0281V51.1123L37.5402 51.3313C37.4854 51.3313 37.4855 51.3313 37.4307 51.3313C37.376 51.2765 37.376 51.2765 37.376 51.1671V50.565C37.376 50.5102 37.376 50.4555 37.4307 50.346C37.4855 50.2913 37.4854 50.2365 37.5402 50.1818L37.9234 49.9628V48.4849C37.9234 48.4302 37.9234 48.3755 37.9781 48.266C38.0328 48.2112 38.0328 48.1565 38.0876 48.1565L38.5255 47.8828C38.5802 47.8828 38.5802 47.8828 38.6349 47.8828C38.6897 47.9376 38.6897 47.9376 38.6897 48.047V49.5249L39.456 49.087C39.5107 49.087 39.5107 49.087 39.5655 49.087C39.6202 49.1418 39.6202 49.1418 39.6202 49.2513V49.8534C39.6202 49.9081 39.6202 49.9628 39.5655 50.0723C39.5107 50.1271 39.5107 50.1818 39.456 50.1818L38.6897 50.6197V52.5902Z" fill="#FAFAFA"/>
<path d="M41.5907 47.8283C41.8097 47.7188 42.0286 47.6641 42.1928 47.6641C42.357 47.6641 42.5212 47.7188 42.6307 47.8283C42.7402 47.9378 42.8497 48.102 42.9591 48.2662C43.0139 48.4851 43.0686 48.7041 43.0686 48.9778C43.0686 49.0325 43.0686 49.0872 43.0686 49.1967C43.0686 49.3062 43.0686 49.3609 43.0686 49.4704C43.0686 49.5799 43.0686 49.6346 43.0686 49.7441C43.0686 49.7988 43.0686 49.9083 43.0686 49.963C43.0686 50.2367 43.0139 50.5104 42.9591 50.8388C42.9044 51.1125 42.7949 51.3862 42.6307 51.6599C42.5212 51.9336 42.357 52.1525 42.1928 52.3168C42.0286 52.5357 41.8097 52.6999 41.5907 52.8094C41.3718 52.9189 41.1528 52.9736 40.9886 52.9736C40.8244 52.9736 40.6602 52.9189 40.5507 52.8094C40.4412 52.6999 40.3317 52.5357 40.2223 52.3715C40.1675 52.1525 40.1128 51.9336 40.1128 51.6599C40.1128 51.6052 40.1128 51.5504 40.1128 51.441C40.1128 51.3862 40.1128 51.2767 40.1128 51.1673C40.1128 51.0578 40.1128 51.0031 40.1128 50.8936C40.1128 50.7841 40.1128 50.7294 40.1128 50.6746C40.1128 50.4009 40.1675 50.1273 40.2223 49.7988C40.277 49.5251 40.3865 49.2515 40.5507 48.9778C40.6602 48.7041 40.8244 48.4851 40.9886 48.2662C41.1528 48.102 41.3718 47.9378 41.5907 47.8283ZM42.3023 49.4704C42.3023 49.3062 42.2476 49.142 42.1928 49.0325C42.1381 48.923 42.0833 48.8683 42.0286 48.8136C41.9739 48.7588 41.8644 48.7588 41.8097 48.8136C41.7549 48.8136 41.6454 48.8683 41.5907 48.923C41.4812 48.9778 41.4265 49.0325 41.3718 49.0872C41.317 49.142 41.2075 49.2515 41.1528 49.3609C41.0981 49.4704 41.0433 49.5799 40.9886 49.7441C40.9339 49.9083 40.9339 50.0725 40.8791 50.2367C40.8791 50.2915 40.8791 50.3462 40.8791 50.4009C40.8791 50.4557 40.8791 50.5652 40.8791 50.6199C40.8791 50.6746 40.8791 50.7841 40.8791 50.8388C40.8791 50.8936 40.8791 50.9483 40.8791 51.0031C40.8791 51.1673 40.9339 51.3315 40.9886 51.441C41.0433 51.5504 41.0981 51.6052 41.1528 51.6599C41.2075 51.7146 41.317 51.7146 41.3718 51.6599C41.4265 51.6599 41.536 51.6052 41.5907 51.5504C41.7002 51.4957 41.7549 51.441 41.8097 51.3862C41.8644 51.3315 41.9739 51.222 42.0286 51.1125C42.0833 51.0031 42.1381 50.8936 42.1928 50.7294C42.2476 50.5652 42.2476 50.4009 42.3023 50.2367C42.3023 50.182 42.3023 50.1273 42.3023 50.0725C42.3023 50.0178 42.3023 49.9083 42.3023 49.8536C42.3023 49.7988 42.3023 49.6894 42.3023 49.6346C42.3023 49.5799 42.3023 49.5251 42.3023 49.4704Z" fill="#FAFAFA"/>
<path d="M45.696 47.5533C45.696 47.6628 45.696 47.7723 45.696 47.8818C45.696 47.9912 45.696 48.1007 45.696 48.2102C45.696 48.3744 45.7507 48.5386 45.8054 48.6481C45.8602 48.7576 45.9149 48.8123 45.9696 48.867C46.0244 48.9218 46.0791 48.9218 46.1886 48.9218C46.2433 48.9218 46.3528 48.867 46.4075 48.867C46.517 48.8123 46.5718 48.7576 46.6812 48.7028C46.736 48.6481 46.7907 48.5933 46.8454 48.4839C46.9002 48.4291 46.9549 48.3197 46.9549 48.2649C47.0097 48.2102 47.0097 48.1007 47.0644 47.9912C47.0644 47.9365 47.1191 47.827 47.1739 47.7723C47.2286 47.7175 47.2286 47.6628 47.2833 47.6081L47.7213 47.3344C47.776 47.3344 47.776 47.3344 47.8307 47.3344C47.8855 47.3891 47.8855 47.3891 47.8855 47.4986C47.8855 47.6081 47.8307 47.7723 47.776 47.9912C47.7212 48.2102 47.6118 48.4291 47.5023 48.6481C47.3928 48.867 47.2286 49.086 47.0644 49.3049C46.9002 49.5239 46.6812 49.6881 46.4075 49.8523C46.1886 49.9618 45.9697 50.0165 45.8054 50.0165C45.6412 50.0165 45.477 49.9618 45.3675 49.7976C45.2581 49.6881 45.1486 49.5239 45.0938 49.3049C45.0391 49.086 44.9844 48.867 44.9844 48.5933C44.9844 48.4839 44.9844 48.3744 44.9844 48.2649C44.9844 48.1554 44.9844 47.9912 44.9844 47.8818C44.9844 47.6081 45.0391 47.2796 45.0938 47.006C45.1486 46.7323 45.2581 46.4038 45.3675 46.1849C45.477 45.9112 45.6412 45.6923 45.8054 45.4733C45.9697 45.2544 46.1886 45.0901 46.4075 44.9807C46.6812 44.8165 46.9002 44.7617 47.0644 44.7617C47.2286 44.7617 47.3928 44.8165 47.5023 44.9259C47.6118 45.0354 47.7212 45.1449 47.776 45.3091C47.8307 45.4733 47.8855 45.5828 47.8855 45.747C47.8855 45.8017 47.8855 45.8565 47.8307 45.9659C47.776 46.0207 47.776 46.0754 47.7213 46.1302L47.2833 46.4038C47.2286 46.4038 47.2286 46.4038 47.1739 46.4038C47.1191 46.3491 47.1191 46.3491 47.0644 46.2944C47.0097 46.2396 47.0097 46.1849 46.9549 46.1302C46.9002 46.0754 46.9002 46.0754 46.8454 46.0207C46.7907 46.0207 46.736 46.0207 46.6812 46.0207C46.6265 46.0207 46.517 46.0754 46.4075 46.1302C46.2981 46.1849 46.2433 46.2396 46.1886 46.3491C46.1339 46.4586 46.0244 46.5133 45.9696 46.6775C45.9149 46.787 45.8602 46.9512 45.8054 47.1154C45.7507 47.2249 45.696 47.3891 45.696 47.5533Z" fill="white"/>
<path d="M48.4875 45.0899C48.4875 44.9804 48.5422 44.8162 48.5969 44.5973C48.6517 44.433 48.7611 44.2141 48.8159 44.0499C48.9254 43.8857 49.0348 43.6667 49.199 43.5025C49.3633 43.3383 49.5275 43.1741 49.7464 43.0646C49.9654 42.9551 50.1296 42.9004 50.2938 42.9004C50.458 42.9004 50.5675 42.9551 50.7317 43.0099C50.8412 43.1193 50.9506 43.2288 51.0054 43.4478C51.0601 43.6667 51.1149 43.8857 51.1149 44.2141V46.8962C51.1149 46.951 51.1149 47.0057 51.0601 47.1152C51.0054 47.1699 51.0054 47.2247 50.9506 47.2794L50.5127 47.5531C50.458 47.5531 50.458 47.5531 50.4033 47.5531C50.3485 47.4983 50.3485 47.4983 50.3485 47.3889V47.1152C50.2391 47.3341 50.1296 47.5531 49.9654 47.772C49.8012 47.991 49.6369 48.1552 49.3633 48.3194C49.199 48.4289 49.0348 48.4836 48.9254 48.4836C48.8159 48.4836 48.7064 48.4836 48.5969 48.3741C48.4875 48.3194 48.4327 48.2099 48.378 48.0457C48.3232 47.8815 48.3232 47.7173 48.3232 47.4983C48.3232 47.0604 48.4327 46.6773 48.5969 46.3489C48.8159 46.0204 49.0348 45.692 49.3633 45.4183L50.3485 44.5973C50.3485 44.3236 50.2938 44.2141 50.1843 44.1594C50.0748 44.1046 49.9654 44.1594 49.8012 44.2141C49.6917 44.2688 49.6369 44.3236 49.5822 44.433C49.5275 44.4878 49.4727 44.5973 49.418 44.7067C49.3633 44.7615 49.3633 44.8162 49.3085 44.8709C49.2538 44.9257 49.2538 44.9257 49.199 44.9804L48.6517 45.3088C48.5969 45.3088 48.5969 45.3088 48.5422 45.3088C48.4875 45.1994 48.4875 45.1446 48.4875 45.0899ZM49.4727 47.0604C49.5822 47.0057 49.7464 46.8962 49.8559 46.7868C49.9654 46.6773 50.0201 46.5678 50.1296 46.4036C50.1843 46.2394 50.2391 46.1299 50.2938 45.9657C50.3485 45.8015 50.3485 45.692 50.3485 45.5825V45.4731L49.4727 46.1846C49.3085 46.2941 49.199 46.4583 49.1443 46.5678C49.0896 46.6773 49.0348 46.8415 49.0348 46.951C49.0348 47.0604 49.0896 47.1699 49.1443 47.1699C49.2538 47.1699 49.3633 47.1699 49.4727 47.0604Z" fill="white"/>
<path d="M54.7277 44.8171C54.7277 44.8718 54.7277 44.9266 54.673 45.036C54.6182 45.0908 54.6182 45.1455 54.5635 45.2003L54.1256 45.4739C54.0708 45.4739 54.0708 45.4739 54.0161 45.4739C53.9614 45.4192 53.9614 45.4192 53.9614 45.3097V43.0108C53.9614 42.6276 53.9066 42.4086 53.7972 42.2444C53.6877 42.0802 53.5235 42.0802 53.3045 42.1897C53.0856 42.2992 52.9214 42.5181 52.8119 42.7918C52.7024 43.0655 52.6477 43.3939 52.6477 43.7771V46.0761C52.6477 46.1308 52.6477 46.1855 52.5929 46.295C52.5382 46.3497 52.5382 46.4045 52.4835 46.4592L52.0456 46.7329C51.9908 46.7329 51.9908 46.7329 51.9361 46.7329C51.8813 46.6782 51.8813 46.6782 51.8813 46.5687V42.3539C51.8813 42.2992 51.8813 42.2444 51.9361 42.135C51.9908 42.0802 51.9908 42.0255 52.0456 41.9707L52.4835 41.6971C52.5382 41.6971 52.5382 41.6971 52.5929 41.6971C52.6477 41.7518 52.6477 41.7518 52.6477 41.8613V42.0802C52.7571 41.8613 52.8666 41.6423 53.0308 41.4781C53.195 41.3139 53.3045 41.1497 53.5235 41.0402C53.7424 40.876 53.9614 40.8213 54.1256 40.876C54.2898 40.876 54.3993 40.9855 54.5087 41.0949C54.6182 41.2592 54.673 41.4234 54.7277 41.6423C54.7824 41.8613 54.7824 42.135 54.7824 42.4086V44.8171H54.7277Z" fill="white"/>
<path d="M56.0964 41.5865C56.0964 41.696 56.0964 41.8055 56.0964 41.915C56.0964 42.0244 56.0964 42.1339 56.0964 42.2434C56.0964 42.4076 56.1511 42.5718 56.2058 42.6813C56.2606 42.7908 56.3153 42.8455 56.37 42.9002C56.4248 42.955 56.4795 42.955 56.589 42.955C56.6437 42.955 56.7532 42.9002 56.8079 42.9002C56.9174 42.8455 56.9722 42.7908 57.0816 42.736C57.1364 42.6813 57.1911 42.6265 57.2458 42.5171C57.3006 42.4623 57.3553 42.3529 57.3553 42.2981C57.4101 42.2434 57.4101 42.1339 57.4648 42.0244C57.4648 41.9697 57.5195 41.8602 57.5743 41.8055C57.629 41.7507 57.629 41.696 57.6837 41.6413L58.1216 41.3676C58.1764 41.3676 58.1764 41.3676 58.2311 41.3676C58.2859 41.4223 58.2859 41.4223 58.2859 41.5318C58.2859 41.6413 58.2311 41.8055 58.1764 42.0244C58.1216 42.2434 58.0122 42.4623 57.9027 42.6813C57.7932 42.9002 57.629 43.1192 57.4648 43.3381C57.3006 43.5571 57.0816 43.7213 56.8079 43.8855C56.589 43.995 56.37 44.0497 56.2058 44.0497C56.0416 44.0497 55.8774 43.995 55.7679 43.8308C55.6585 43.7213 55.549 43.5571 55.4942 43.3381C55.4395 43.1192 55.3848 42.9002 55.3848 42.6265C55.3848 42.5171 55.3848 42.4076 55.3848 42.2981C55.3848 42.1886 55.3848 42.0244 55.3848 41.915C55.3848 41.6413 55.4395 41.3128 55.4942 41.0392C55.549 40.7655 55.6585 40.437 55.7679 40.2181C55.8774 39.9444 56.0416 39.7255 56.2058 39.5065C56.37 39.2876 56.589 39.1233 56.8079 39.0139C57.0816 38.8497 57.3006 38.7949 57.4648 38.7949C57.629 38.7949 57.7932 38.8497 57.9027 38.9591C58.0122 39.0686 58.1216 39.1781 58.1764 39.3423C58.2311 39.5065 58.2859 39.616 58.2859 39.7802C58.2859 39.8349 58.2859 39.8897 58.2311 39.9991C58.1764 40.0539 58.1764 40.1086 58.1216 40.1634L57.6837 40.437C57.629 40.437 57.629 40.437 57.5743 40.437C57.5195 40.3823 57.5195 40.3823 57.4648 40.3276C57.4101 40.2728 57.4101 40.2181 57.3553 40.1634C57.3006 40.1086 57.3006 40.1086 57.2458 40.0539C57.1911 40.0539 57.1364 40.0539 57.0816 40.0539C57.0269 40.0539 56.9174 40.1086 56.8079 40.1634C56.6985 40.2181 56.6437 40.2728 56.589 40.3823C56.5343 40.4918 56.4248 40.5465 56.37 40.7107C56.3153 40.8202 56.2606 40.9844 56.2058 41.1486C56.1511 41.2034 56.1511 41.3676 56.0964 41.5865Z" fill="white"/>
<path d="M58.7236 40.384C58.7236 40.0556 58.7784 39.7272 58.8331 39.344C58.8878 39.0156 58.9973 38.6871 59.1068 38.4135C59.2163 38.1398 59.3805 37.8661 59.5447 37.6471C59.7089 37.4282 59.9279 37.264 60.1468 37.0998C60.3658 36.9903 60.5847 36.9355 60.7489 36.9355C60.9131 36.9355 61.0773 37.045 61.1868 37.1545C61.2963 37.264 61.4058 37.4829 61.4605 37.7019C61.5152 37.9208 61.57 38.1945 61.57 38.5229V38.9061C61.57 38.9608 61.57 39.0156 61.5152 39.125C61.4605 39.1798 61.4605 39.2345 61.4058 39.2893L59.4352 40.4387C59.4352 40.603 59.4352 40.7124 59.49 40.7672C59.5447 40.8766 59.5994 40.9314 59.6542 40.9314C59.7089 40.9861 59.7636 40.9861 59.8731 40.9861C59.9826 40.9861 60.0373 40.9314 60.1468 40.8767C60.2563 40.8219 60.3658 40.7124 60.4752 40.6577C60.53 40.5482 60.6394 40.4935 60.6942 40.384C60.7489 40.3293 60.7489 40.2745 60.8037 40.2198C60.8584 40.1651 60.8584 40.1651 60.9131 40.1103L61.4058 39.8366C61.4605 39.8366 61.4605 39.8366 61.5152 39.8366C61.57 39.8914 61.57 39.8914 61.57 40.0008C61.57 40.1103 61.5152 40.2198 61.4605 40.384C61.4058 40.5482 61.2963 40.7124 61.1868 40.9314C61.0773 41.1503 60.9131 41.3145 60.7489 41.4788C60.5847 41.643 60.3658 41.8072 60.1468 41.9714C59.9279 42.0809 59.7089 42.1356 59.5447 42.1356C59.3805 42.1356 59.2163 42.0261 59.1068 41.9167C58.9973 41.7524 58.8878 41.5882 58.8331 41.3145C58.7784 41.0409 58.7236 40.7124 58.7236 40.384ZM60.2015 38.1945C60.0921 38.2492 59.9826 38.3587 59.9279 38.4135C59.8731 38.5229 59.7636 38.6324 59.7089 38.7419C59.6542 38.8514 59.5994 38.9608 59.5994 39.0703C59.5447 39.1798 59.5447 39.2893 59.5447 39.3987L60.8584 38.6324C60.8584 38.5229 60.8584 38.4682 60.8037 38.3587C60.8037 38.2492 60.7489 38.1945 60.6942 38.1398C60.6394 38.085 60.5847 38.0303 60.4752 38.0303C60.4205 38.085 60.311 38.085 60.2015 38.1945Z" fill="white"/>
<path d="M63.0476 39.9997C63.0476 40.0545 63.0476 40.1092 62.9928 40.2187C62.9381 40.2734 62.9381 40.3282 62.8834 40.3829L62.4455 40.6566C62.3907 40.6566 62.3907 40.6566 62.336 40.6566C62.2812 40.6019 62.2812 40.6019 62.2812 40.4924V34.4713C62.2812 34.4165 62.2812 34.3618 62.336 34.2523C62.3907 34.1976 62.3907 34.1428 62.4455 34.1428L62.8834 33.8691C62.9381 33.8691 62.9381 33.8691 62.9928 33.8691C63.0476 33.9239 63.0476 33.9239 63.0476 34.0334V39.9997Z" fill="white"/>
<path d="M65.1278 32.6096C65.292 32.5001 65.5109 32.4454 65.6751 32.3906C65.8394 32.3906 66.0036 32.3906 66.1678 32.4454C66.2773 32.5001 66.3867 32.6643 66.4962 32.8285C66.6057 32.9927 66.6057 33.2664 66.6057 33.5401C66.6057 33.7591 66.6057 34.0327 66.5509 34.197C66.4962 34.4159 66.4415 34.5801 66.3867 34.7991C66.332 34.9633 66.2225 35.1822 66.113 35.3464C66.0036 35.5107 65.9488 35.6749 65.8394 35.8391C65.7846 36.0033 65.6751 36.1675 65.6204 36.277C65.5657 36.4412 65.5109 36.5507 65.5109 36.7149C65.5109 36.7696 65.5109 36.8791 65.4562 36.9338C65.4562 36.9886 65.4015 37.0433 65.3467 37.0433L64.9088 37.317C64.8541 37.317 64.8541 37.317 64.7993 37.317C64.7446 37.2623 64.7446 37.2623 64.7446 37.1528C64.7446 36.9338 64.7993 36.6602 64.8541 36.4959C64.9088 36.277 64.9636 36.058 65.073 35.8938C65.1278 35.7296 65.2372 35.5107 65.3467 35.3464C65.4562 35.1822 65.5109 35.018 65.6204 34.8538C65.6751 34.6896 65.7846 34.5801 65.8394 34.4159C65.8941 34.3064 65.8941 34.1422 65.8941 34.0328C65.8941 33.8138 65.8394 33.6496 65.7299 33.5949C65.6204 33.5401 65.4562 33.5401 65.2372 33.6496C64.9088 33.8685 64.6351 34.2517 64.5257 34.8538C64.5257 34.9086 64.4709 35.018 64.4709 35.018C64.4709 35.0728 64.4162 35.1275 64.3614 35.1275L63.8688 35.4012C63.8141 35.4012 63.8141 35.4012 63.7593 35.4012C63.7593 35.4012 63.7046 35.3465 63.7046 35.2917C63.7046 35.0728 63.7593 34.8538 63.8141 34.5801C63.8688 34.3064 63.9783 34.0328 64.1425 33.8138C64.252 33.5401 64.4162 33.3212 64.6351 33.1022C64.7446 32.8833 64.9088 32.7191 65.1278 32.6096ZM65.3467 37.5907C65.4015 37.5907 65.4015 37.5907 65.4562 37.5907C65.5109 37.6454 65.5109 37.6454 65.5109 37.7549V38.576C65.5109 38.6307 65.5109 38.6854 65.4562 38.7949C65.4015 38.8497 65.4015 38.9044 65.3467 38.9591L64.8541 39.2328C64.7993 39.2328 64.7993 39.2328 64.7446 39.2328C64.6899 39.1781 64.6899 39.1781 64.6899 39.0686V38.2475C64.6899 38.1928 64.6899 38.1381 64.7446 38.0286C64.7993 37.9739 64.7993 37.9191 64.8541 37.9191L65.3467 37.5907Z" fill="#FAFAFA"/>
<path d="M47.5574 60.5805L62.8291 51.7677C64.1428 51.0014 65.1829 51.6035 65.1829 53.1362V55.3804C65.1829 56.9131 64.1428 58.7194 62.8291 59.4857L47.5026 68.3532C46.1889 69.1195 45.1489 68.5174 45.1489 66.9848V64.7405C45.2037 63.1531 46.2437 61.3468 47.5574 60.5805Z" fill="#FE3A3A"/>
<path d="M51.1701 62.9334C51.1701 62.8787 51.1701 62.8787 51.2249 62.824C51.2249 62.7692 51.2796 62.7692 51.2796 62.7692L51.4986 62.6598H51.5533V62.7145C51.5533 62.824 51.5533 62.9882 51.4986 63.0977C51.4438 63.2619 51.3891 63.3713 51.3344 63.5356C51.2796 63.645 51.1701 63.8092 51.0607 63.9187C50.9512 64.0282 50.8417 64.1377 50.6775 64.2471C50.568 64.3019 50.4038 64.3566 50.3491 64.3566C50.2396 64.3566 50.1849 64.3019 50.0754 64.2471C50.0207 64.1924 49.9659 64.0829 49.9112 63.9735C49.8564 63.864 49.8564 63.6998 49.8564 63.5356C49.8564 63.4261 49.8564 63.3166 49.8564 63.1524C49.8564 63.0429 49.8564 62.8787 49.8564 62.7692C49.8564 62.605 49.9112 62.4408 49.9112 62.2219C49.9659 62.0576 50.0207 61.8934 50.0754 61.7292C50.1301 61.565 50.2396 61.4555 50.3491 61.3461C50.4586 61.2366 50.568 61.1271 50.6775 61.0724C50.8417 60.9629 50.9512 60.9629 51.0607 60.9629C51.1701 60.9629 51.2249 61.0176 51.3344 61.0724C51.4438 61.1271 51.4438 61.1818 51.4986 61.2913C51.5533 61.4008 51.5533 61.5103 51.5533 61.6197C51.5533 61.6745 51.5533 61.6745 51.5533 61.7292C51.5533 61.784 51.4986 61.784 51.4986 61.784L51.2796 61.8934H51.2249L51.1701 61.8387C51.1701 61.784 51.1701 61.7292 51.1154 61.6745C51.1154 61.6197 51.0607 61.6197 51.0059 61.565C50.9512 61.565 50.9512 61.5103 50.8965 61.5103C50.8417 61.5103 50.787 61.5103 50.6775 61.565C50.6228 61.6197 50.5133 61.6745 50.4586 61.7292C50.4038 61.784 50.3491 61.8934 50.2943 61.9482C50.2396 62.0029 50.2396 62.1124 50.1849 62.2219C50.1849 62.3313 50.1301 62.3861 50.1301 62.4955C50.1301 62.605 50.1301 62.7145 50.1301 62.8787C50.1301 62.9882 50.1301 63.1524 50.1301 63.2619C50.1301 63.3713 50.1301 63.4261 50.1849 63.4808C50.1849 63.5356 50.2396 63.5903 50.2943 63.645C50.3491 63.6998 50.4038 63.6998 50.4586 63.6998C50.5133 63.6998 50.568 63.6998 50.6775 63.645C50.7322 63.5903 50.8417 63.5356 50.8965 63.4808C50.9512 63.4261 51.0059 63.3713 51.0607 63.3166C51.1154 63.2619 51.1154 63.2071 51.1701 63.0977C51.1701 63.0429 51.1701 62.9882 51.1701 62.9334Z" fill="white"/>
<path d="M52.812 59.8691C52.8667 59.8691 52.8667 59.8691 52.8667 59.8691C52.8667 59.8691 52.9215 59.9239 52.9215 59.9786L53.633 62.3323C53.633 62.3323 53.633 62.3323 53.633 62.3871C53.633 62.4418 53.633 62.4418 53.633 62.4965C53.633 62.5513 53.5783 62.5513 53.5783 62.5513L53.3594 62.6608C53.3046 62.6608 53.3046 62.6608 53.3046 62.6608C53.3046 62.6608 53.3046 62.606 53.2499 62.606L53.1404 62.1681L52.2646 62.6608L52.1551 63.2081C52.1551 63.2081 52.1551 63.2629 52.1004 63.3176C52.1004 63.3723 52.0457 63.3723 52.0457 63.4271L51.8267 63.5366H51.772V63.4818C51.772 63.4818 51.772 63.4818 51.772 63.4271L52.4836 60.2523C52.4836 60.1976 52.4836 60.1428 52.5383 60.1428C52.5383 60.0881 52.593 60.0881 52.593 60.0881L52.812 59.8691ZM52.9762 61.7302L52.6478 60.6355L52.3193 62.0586L52.9762 61.7302Z" fill="white"/>
<path d="M55.2204 61.5654C55.1657 61.5654 55.1657 61.5654 55.1657 61.5654L55.1109 61.5107L54.2899 60.1422V61.9486C54.2899 62.0033 54.2899 62.0033 54.2899 62.058C54.2899 62.1128 54.2351 62.1128 54.2351 62.1128L54.0162 62.2223H53.9614V62.1675V59.3212C53.9614 59.2664 53.9614 59.2664 53.9614 59.2117C53.9614 59.157 54.0162 59.1569 54.0162 59.1569L54.2351 59.0475C54.2899 59.0475 54.2899 59.0475 54.2899 59.0475L54.3446 59.1022L55.1657 60.4706V58.6643C55.1657 58.6096 55.1657 58.6096 55.1657 58.5548C55.1657 58.5001 55.2204 58.5001 55.2204 58.5001L55.4393 58.3906H55.4941V58.4454V61.2917C55.4941 61.3464 55.4941 61.3465 55.4941 61.4012C55.4941 61.4559 55.4393 61.4559 55.4393 61.4559L55.2204 61.5654Z" fill="white"/>
<path d="M57.1911 59.4862C57.1911 59.4314 57.1911 59.4314 57.2459 59.3767C57.2459 59.322 57.3006 59.322 57.3006 59.322L57.5196 59.2125H57.5743V59.2672C57.5743 59.3767 57.5743 59.5409 57.5196 59.6504C57.4648 59.8146 57.4101 59.9241 57.3554 60.0883C57.3006 60.1978 57.1911 60.362 57.0817 60.4715C56.9722 60.5809 56.8627 60.6904 56.6985 60.7999C56.589 60.8546 56.4248 60.9094 56.3701 60.9094C56.2606 60.9094 56.2059 60.8546 56.0964 60.7999C56.0417 60.7451 55.9869 60.6357 55.9322 60.5262C55.8774 60.4167 55.8774 60.2525 55.8774 60.0883C55.8774 59.9788 55.8774 59.8693 55.8774 59.7051C55.8774 59.5409 55.8774 59.4314 55.8774 59.322C55.8774 59.1578 55.9322 58.9935 55.9322 58.7746C55.9869 58.6104 56.0417 58.4462 56.0964 58.282C56.1511 58.1177 56.2606 58.0083 56.3701 57.8988C56.4796 57.7893 56.589 57.6798 56.6985 57.6251C56.8627 57.5156 56.9722 57.5156 57.0817 57.5156C57.1911 57.5156 57.2459 57.5704 57.3554 57.6251C57.4101 57.6798 57.4648 57.7346 57.5196 57.8441C57.5743 57.9535 57.5743 58.063 57.5743 58.1725C57.5743 58.2272 57.5743 58.2272 57.5743 58.282C57.5743 58.3367 57.5196 58.3367 57.5196 58.3367L57.3006 58.4462H57.2459L57.1911 58.3914C57.1911 58.3367 57.1911 58.282 57.1364 58.2272C57.0817 58.1725 57.0817 58.1725 57.0269 58.1177C56.9722 58.1177 56.9722 58.063 56.9175 58.063C56.8627 58.063 56.808 58.1177 56.6985 58.1177C56.6438 58.1725 56.5343 58.2272 56.4796 58.282C56.4248 58.3367 56.3701 58.4462 56.3153 58.5009C56.2606 58.5556 56.2606 58.6651 56.2059 58.7746C56.2059 58.8841 56.1511 58.9388 56.1511 59.0483C56.1511 59.1578 56.1511 59.2672 56.1511 59.4314C56.1511 59.5409 56.1511 59.7051 56.1511 59.8146C56.1511 59.9241 56.1511 59.9788 56.2059 60.0336C56.2059 60.0883 56.2606 60.143 56.3153 60.1978C56.3701 60.2525 56.4248 60.2525 56.4796 60.2525C56.5343 60.2525 56.589 60.2525 56.6985 60.1978C56.7532 60.143 56.8627 60.0883 56.9175 60.0336C56.9722 59.9788 57.0269 59.9241 57.0817 59.8693C57.1364 59.8146 57.1364 59.7599 57.1911 59.6504C57.1911 59.5957 57.1911 59.5409 57.1911 59.4862Z" fill="white"/>
<path d="M59.2712 58.6644C59.326 58.6644 59.326 58.7191 59.326 58.7191V59.0476C59.326 59.1023 59.326 59.1023 59.326 59.157C59.326 59.2118 59.2712 59.2118 59.2712 59.2118L58.0123 59.9234H57.9575V59.8686V57.0223C57.9575 56.9676 57.9575 56.9675 57.9575 56.9128C57.9575 56.8581 58.0123 56.8581 58.0123 56.8581L59.2165 56.1465H59.2712V56.2012V56.5296C59.2712 56.5844 59.2712 56.5844 59.2712 56.6391C59.2712 56.6939 59.2165 56.6939 59.2165 56.6939L58.2859 57.2412V57.9528L59.1617 57.4602H59.2165V57.5149V57.8434C59.2165 57.8981 59.2165 57.8981 59.2165 57.9528C59.2165 58.0076 59.1617 58.0076 59.1617 58.0076L58.2859 58.5002V59.2118L59.2712 58.6644Z" fill="white"/>
<path d="M61.0227 57.6795C61.0774 57.6247 61.0774 57.6795 61.0227 57.6795C61.0774 57.6795 61.0774 57.7342 61.0774 57.7342V58.0626C61.0774 58.1174 61.0774 58.1174 61.0774 58.1721C61.0774 58.2269 61.0227 58.2269 61.0227 58.2269L59.7637 58.9384H59.709V58.8837V56.0374C59.709 55.9826 59.709 55.9826 59.709 55.9279C59.709 55.8731 59.7637 55.8731 59.7637 55.8731L59.9827 55.7637H60.0374V55.8184V58.2269L61.0227 57.6795Z" fill="white"/>
<path d="M104.759 152.647C104.594 150.184 103.5 126.373 103.5 126.373L115.816 134.912C113.681 149.199 113.188 152.373 113.079 154.782C113.079 154.837 113.133 155.056 113.133 155.384C113.079 158.23 109.63 159.708 106.893 161.515C105.799 162.226 102.733 164.416 99.6132 165.784C97.6427 166.66 93.7016 166.715 93.2637 165.51C96.5479 163.266 100.38 160.748 103.007 158.176C104.321 157.026 104.977 155.658 104.759 152.647Z" fill="#FFA8A7"/>
<path d="M87.7351 168.578C87.5709 168.578 87.2972 170.275 88.173 171.041C89.213 171.917 92.2236 173.34 96.2741 172.902C100.325 172.464 102.569 171.315 104.211 170.11C105.853 168.851 108.152 167.1 110.013 166.771C111.71 166.443 113.571 165.731 114.119 165.293C114.666 164.801 114.611 162.611 114.611 162.611L87.7351 168.578Z" fill="#263238"/>
<path d="M113.188 154.127C113.188 154.127 113.681 154.127 113.79 154.62C113.9 155.222 114.009 156.973 114.228 157.959C114.557 159.327 114.776 162.173 114.502 163.268C114.283 164.363 111.491 165.129 109.685 165.731C107.879 166.333 105.744 167.647 103.883 169.016C101.967 170.439 97.9165 171.862 95.2891 171.862C91.2385 171.862 88.6659 170.822 87.8995 169.453C86.9143 167.757 87.7353 166.826 92.388 164.855C93.2638 164.472 96.3839 162.83 97.4239 162.228C100.27 160.586 102.843 158.287 104.211 155.331C104.376 155.003 104.376 154.62 104.759 154.401C105.032 154.291 105.799 154.346 106.072 154.401C106.839 154.51 107.605 154.729 108.262 155.057C108.864 155.331 109.74 155.66 109.74 156.426C109.74 156.7 109.63 156.919 109.576 157.192C109.521 157.356 109.466 157.521 109.63 157.63C109.74 157.74 109.959 157.63 110.068 157.521C110.561 157.138 110.944 156.59 111.327 156.152C111.546 155.879 111.82 155.66 112.094 155.441C112.367 155.276 112.696 155.167 112.915 154.948C113.243 154.784 113.134 154.51 113.188 154.127Z" fill="#37474F"/>
<path d="M91.6763 165.238C97.4785 165.676 99.2849 169.07 99.4491 171.15C97.9712 171.588 96.4932 171.916 95.289 171.916C91.2384 171.916 88.5016 170.876 87.7352 169.508C86.8594 167.92 87.5163 166.661 91.6763 165.238Z" fill="#FAFAFA"/>
<path d="M100.434 165.404C100.489 165.404 100.544 165.404 100.598 165.349C100.708 165.239 100.762 165.075 100.653 164.966C99.8867 164.035 97.533 162.776 95.3982 162.94C95.234 162.94 95.1245 163.105 95.1245 163.214C95.1245 163.378 95.2887 163.488 95.4529 163.433C97.4235 163.269 99.5583 164.528 100.16 165.239C100.27 165.404 100.325 165.404 100.434 165.404Z" fill="#F0F0F0"/>
<path d="M102.953 164.089C103.007 164.089 103.062 164.089 103.117 164.034C103.226 163.925 103.281 163.761 103.172 163.651C102.35 162.721 100.052 161.462 97.9168 161.626C97.7525 161.626 97.6431 161.79 97.6431 161.9C97.6431 162.064 97.8073 162.173 97.9715 162.119C99.942 161.954 102.077 163.213 102.679 163.925C102.788 164.034 102.843 164.089 102.953 164.089Z" fill="#F0F0F0"/>
<path d="M105.306 162.556C105.36 162.556 105.415 162.556 105.47 162.501C105.579 162.392 105.634 162.227 105.525 162.118C104.758 161.187 102.405 159.928 100.27 160.093C100.106 160.093 99.9961 160.257 99.9961 160.366C99.9961 160.531 100.16 160.64 100.325 160.585C102.295 160.421 104.43 161.68 105.032 162.392C105.141 162.501 105.251 162.556 105.306 162.556Z" fill="#F0F0F0"/>
<path d="M107.386 160.915C107.44 160.915 107.495 160.915 107.55 160.86C107.659 160.751 107.714 160.587 107.605 160.477C106.51 159.163 103.992 158.233 101.912 158.452C101.748 158.452 101.638 158.616 101.638 158.726C101.638 158.89 101.802 158.999 101.967 158.945C103.882 158.78 106.236 159.601 107.167 160.806C107.221 160.86 107.276 160.915 107.386 160.915Z" fill="#F0F0F0"/>
<path d="M125.394 133.762L138.257 131.025C138.586 138.853 138.367 148.377 138.641 155.712C138.695 157.08 139.407 166.441 139.024 169.342C138.422 173.666 132.51 173.392 132.017 170.82C131.525 168.302 131.087 157.409 131.032 156.314C130.758 151.607 128.021 143.67 126.106 135.295C125.996 134.857 125.449 134.145 125.394 133.762Z" fill="#FFA8A7"/>
<path d="M129.992 172.682C130.047 175.2 130.43 176.896 131.361 178.374C132.346 179.907 134.262 180.4 136.232 180.071C138.203 179.688 140.775 178.648 141.432 176.513C142.089 174.378 142.034 172.901 141.706 170.547L129.992 172.682Z" fill="#263238"/>
<path d="M138.641 154.781C139.462 154.891 139.517 158.23 139.845 161.623C140.174 165.236 141.378 166.823 141.651 169.779C141.98 173.173 141.706 174.706 140.283 176.676C138.805 178.702 133.879 180.508 131.635 177.497C129.773 175.034 129.828 172.407 130.157 169.013C130.485 165.51 130.759 163.047 130.759 160.419C130.704 157.901 130.266 155.493 130.978 155.274C131.032 155.657 131.032 156.15 131.087 156.478C131.142 156.752 131.142 158.12 131.58 158.175C131.635 157.847 131.635 157.573 131.635 157.244C131.635 156.971 131.689 156.642 131.908 156.423C132.127 156.204 132.839 156.04 133.167 155.985C133.988 155.876 134.755 155.767 135.576 155.767C135.959 155.767 136.397 155.767 136.78 155.767C137.108 155.767 137.491 155.821 137.82 155.931C137.984 155.985 138.203 156.15 138.258 156.314C138.313 156.423 138.313 156.588 138.258 156.697C138.258 156.916 138.258 157.19 138.313 157.409C138.313 157.518 138.422 157.628 138.531 157.628C138.641 157.628 138.641 157.518 138.696 157.409C138.696 157.025 138.696 156.697 138.696 156.204C138.696 155.985 138.696 155.657 138.696 155.438C138.641 155.219 138.641 155 138.641 154.781Z" fill="#37474F"/>
<path d="M141.761 171.803C141.815 173.938 141.597 175.361 140.447 176.894C138.969 178.919 133.66 180.726 131.415 177.715C130.321 176.237 130.047 174.486 129.992 172.734C131.525 170.49 139.571 169.778 141.761 171.803Z" fill="#FAFAFA"/>
<path d="M132.237 169.067C132.291 169.067 132.291 169.067 132.346 169.067C132.401 169.067 135.74 167.808 139.352 168.684C139.517 168.739 139.681 168.629 139.736 168.52C139.79 168.356 139.681 168.246 139.517 168.191C135.685 167.261 132.237 168.52 132.127 168.574C131.963 168.629 131.908 168.793 131.963 168.903C131.963 169.012 132.072 169.067 132.237 169.067Z" fill="#F0F0F0"/>
<path d="M139.243 166.169C139.353 166.169 139.462 166.114 139.517 166.005C139.572 165.895 139.517 165.731 139.353 165.676C135.795 164.472 132.127 165.95 131.963 166.005C131.799 166.059 131.744 166.224 131.799 166.333C131.854 166.443 132.073 166.497 132.182 166.443C132.237 166.443 135.795 165.019 139.079 166.114C139.134 166.169 139.188 166.169 139.243 166.169Z" fill="#F0F0F0"/>
<path d="M139.134 163.759C139.243 163.759 139.353 163.704 139.407 163.595C139.462 163.485 139.407 163.321 139.243 163.266C135.302 161.898 131.854 163.485 131.689 163.595C131.525 163.649 131.47 163.814 131.58 163.923C131.635 164.032 131.854 164.087 131.963 164.032C132.018 164.032 135.302 162.445 138.969 163.759C139.079 163.759 139.079 163.759 139.134 163.759Z" fill="#F0F0F0"/>
<path d="M139.024 161.075C139.134 161.075 139.243 161.021 139.298 160.911C139.353 160.802 139.298 160.638 139.134 160.583C135.466 159.214 131.69 160.911 131.525 160.966C131.361 161.021 131.306 161.185 131.416 161.294C131.471 161.404 131.69 161.459 131.799 161.404C131.854 161.404 135.466 159.762 138.86 161.021C138.915 161.075 138.97 161.075 139.024 161.075Z" fill="#EBEBEB"/>
<path d="M135.193 72.1292C135.904 85.321 136.561 118.109 136.561 118.109C136.78 119.696 138.094 123.692 138.477 129.439C139.024 137.814 139.134 152.648 139.134 152.648C139.134 152.648 133.715 154.454 129.938 153.086C129.938 153.086 123.698 128.673 122.275 122.652C120.578 115.481 118.771 102.125 118.771 102.125L116.856 119.806C116.856 119.806 117.567 125.389 116.91 130.972C116.472 134.804 113.955 152.21 113.955 152.21C113.955 152.21 108.754 154.345 104.156 152.101C104.156 152.101 102.624 122.98 102.46 119.422C101.748 106.395 102.131 71.965 102.35 72.0745H135.193V72.1292Z" fill="#37474F"/>
<path d="M135.028 119.422C134.699 118.218 134.371 113.128 133.933 106.723C133.276 96.3231 132.4 82.0914 130.704 73.9902L130.156 74.0997C131.853 82.1461 132.729 96.3779 133.386 106.723C133.824 113.401 134.097 118.273 134.481 119.532C135.466 122.98 137.765 136.063 138.257 152.867C138.476 152.812 138.641 152.758 138.805 152.703C138.367 135.953 136.068 122.871 135.028 119.422Z" fill="#0B2A38"/>
<path d="M118.826 102.127L117.293 88.2781C117.293 88.2781 112.805 88.1139 109.685 85.3223C109.685 85.3223 110.068 88.1686 115.706 89.8107L117.403 101.306L116.91 119.424L118.826 102.127Z" fill="#263238"/>
<path d="M62.9935 55.2156C63.2125 55.4346 63.4862 55.5988 63.7599 55.6535C64.1978 55.8178 64.6357 55.982 65.0736 56.1462C65.3473 56.2557 65.6209 56.3651 65.8946 56.5841C66.1136 56.7483 66.2778 56.9672 66.3873 57.1862C66.5515 57.4051 66.7157 57.6241 66.8799 57.843C67.1536 58.1715 67.3726 58.4452 67.8105 58.4999C68.2484 58.5546 68.6315 58.6094 69.0694 58.5546C69.0694 58.5546 69.3978 58.9378 70 59.3757C70.5473 59.7589 71.3137 61.0726 72.7916 61.182C74.2695 61.2915 75.1453 61.0178 75.1453 61.0178L69.562 52.2051L63.8694 52.9714C63.5957 53.4093 63.322 53.8472 63.0483 54.2851C62.8841 54.6683 62.7199 54.8872 62.9935 55.2156Z" fill="#F28F8F"/>
<path d="M80.1266 55.4339C76.6782 54.7223 76.5687 53.7918 75.2003 52.3686C73.5581 50.6718 73.0655 50.0697 71.8065 50.0149C70.5476 49.9602 68.3033 50.1244 67.7012 50.1791C67.1538 50.2339 65.1286 50.7812 64.5812 51.0549C64.0338 51.3286 62.3917 52.8065 61.4611 53.4086C60.5306 54.0108 60.1474 54.2844 60.5306 54.7223C60.9138 55.1602 61.7348 54.996 62.3917 54.7771C63.1033 54.5581 63.5412 54.175 63.5412 54.175C63.5412 54.175 65.0738 53.6276 65.1833 53.4086L67.0991 53.1897C67.0991 53.1897 68.6318 53.2992 69.0149 53.2444V53.2992C69.0149 53.4634 68.8507 53.6276 68.6865 53.7371C68.2486 53.956 67.537 54.175 66.9349 54.175C66.0591 54.2297 65.6759 54.2844 64.7454 54.3392C63.7601 54.3392 62.8843 54.2844 62.3369 54.4487C61.7896 54.6129 61.2969 55.215 62.0085 55.9813C62.7201 56.8024 63.6506 56.9666 64.5264 56.9666C65.4022 57.0213 67.2633 56.6929 67.8107 56.6929C68.3581 56.7476 68.796 56.8571 69.2886 57.514C69.7812 58.1708 70.4928 59.7035 72.4086 60.4698C74.3792 61.2361 75.2003 60.9077 77.3898 61.5645L80.1266 55.4339Z" fill="#FFA8A7"/>
<path d="M69.0696 53.246C69.2338 52.0966 69.7812 51.166 69.7812 51.166C69.7812 51.166 68.9601 51.8229 68.7959 53.3008L69.0696 53.246Z" fill="#F28F8F"/>
<path d="M108.59 31.5684C104.211 33.0463 102.021 33.9221 98.9013 42.4611C96.3286 49.5223 94.0297 56.8571 94.0297 56.8571C94.0297 56.8571 85.6001 56.6381 80.0716 55.4887C76.9516 57.7876 77.3347 61.7287 77.3347 61.7287C77.3347 61.7287 86.6948 64.9582 93.2633 66.4909C99.7224 68.0235 101.255 67.5309 102.842 63.1519C104.868 57.5139 109.192 46.2927 109.192 46.2927L108.59 31.5684Z" fill="#FFA8A7"/>
<path d="M109.192 31.3496C103.992 32.4991 102.185 33.8675 100.324 38.575C98.6821 42.7897 95.5073 51.8214 95.5073 51.8214C95.5073 51.8214 100.16 56.6383 108.809 55.9815L111.71 45.9098L109.192 31.3496Z" fill="#0B2A38"/>
<path d="M134.426 33.7593C134.426 33.7593 135.959 36.0036 136.397 39.5615C136.561 40.8752 136.889 44.3784 136.068 50.7827C135.357 56.4754 135.028 59.3217 135.138 63.646L135.466 77.4399C131.251 82.1473 111.491 84.9389 102.131 78.2609C102.131 78.2609 102.186 50.3995 103.061 42.9005C103.718 37.372 105.306 32.2814 109.137 31.2961C111.765 30.913 120.194 29.3256 124.409 30.5845C128.679 31.953 134.426 33.7593 134.426 33.7593Z" fill="#4062FF"/>
<path opacity="0.3" d="M134.426 33.7593C134.426 33.7593 135.959 36.0036 136.397 39.5615C136.561 40.8752 136.889 44.3784 136.068 50.7827C135.357 56.4754 135.028 59.3217 135.138 63.646L135.466 77.4399C131.251 82.1473 111.491 84.9389 102.131 78.2609C102.131 78.2609 102.186 50.3995 103.061 42.9005C103.718 37.372 105.306 32.2814 109.137 31.2961C111.765 30.913 120.194 29.3256 124.409 30.5845C128.679 31.953 134.426 33.7593 134.426 33.7593Z" fill="white"/>
<path d="M125.394 7.10236C125.394 7.10236 126.543 6.71919 127.747 8.52553C128.952 10.3319 128.35 14.6561 127.529 18.433C126.762 22.2099 125.777 24.2352 125.284 25.2752C124.792 26.3152 123.697 26.6436 123.697 26.6436L123.642 22.2099L123.697 19.1446C123.697 19.1446 121.617 16.5172 121.343 14.3277C120.96 11.4814 121.507 10.2771 121.507 10.2771L125.394 7.10236Z" fill="#37474F"/>
<path d="M122.493 12.0832C122.657 16.9001 118.825 20.9507 114.008 21.1149C109.192 21.2791 105.743 17.4475 105.579 12.6306C105.415 7.8137 108.589 3.70838 113.461 3.59891C118.278 3.4347 122.329 7.21158 122.493 12.0832Z" fill="#37474F"/>
<path d="M127.474 23.3594C125.558 24.1805 124.737 22.8668 124.737 22.8668V32.008C120.632 36.7154 111.217 35.6206 114.118 31.5153V29.4353C114.118 29.4353 112.147 29.6543 110.888 29.5448C108.863 29.2711 107.495 27.7384 106.838 25.5489C105.743 22.0457 105.798 16.7362 106.892 9.83928C109.082 7.9782 116.581 7.48557 121.453 10.3319C121.343 14.3825 122.547 16.1341 122.602 17.612C122.93 18.1594 123.259 18.4878 123.533 18.7068C124.299 19.3089 124.846 17.612 125.448 16.9552C126.051 16.2983 128.076 15.313 129.171 17.4478C130.265 19.5826 129.006 22.7026 127.474 23.3594Z" fill="#FFA8A7"/>
<path d="M105.853 5.02203C106.017 4.41992 106.509 3.92728 107.112 3.76307C107.44 3.70833 107.768 3.70833 108.152 3.65359C108.918 3.54412 109.082 2.99674 109.411 2.39463C109.684 1.90199 110.232 1.51883 110.779 1.35462C111.326 1.1904 111.929 1.1904 112.476 1.24514C113.023 1.29988 113.625 1.46409 113.954 1.90199C114.446 1.24514 115.049 0.588291 115.815 0.314603C116.143 0.205128 116.472 0.150391 116.855 0.150391C117.348 0.150391 117.785 0.205128 118.223 0.424078C118.935 0.752503 119.428 1.57357 119.373 2.33989C119.92 1.95673 120.522 1.95673 121.124 1.95673C121.945 1.95673 122.876 2.66832 123.314 3.32517C123.697 3.87254 123.861 4.58413 123.752 5.29572C124.244 5.07677 124.847 5.18624 125.284 5.51467C125.722 5.84309 125.887 6.49994 125.887 7.04732C125.23 8.08733 122.548 9.83893 121.508 10.2221C121.508 10.5505 121.289 10.8789 120.96 11.0432C120.687 11.2074 120.303 11.3168 119.975 11.3168C119.592 11.3168 119.209 11.3168 118.88 11.1526C118.552 11.0432 118.278 10.6053 117.95 10.8242C117.621 11.0432 117.348 11.3716 117.019 11.5358C116.691 11.7 116.308 11.8095 115.979 11.8095C115.103 11.8642 114.173 11.3168 113.899 10.441C113.516 11.0979 112.804 11.5358 112.093 11.6453C111.436 11.7547 110.615 11.5358 110.067 11.1526C109.63 10.8242 109.411 10.2768 109.356 9.72945C108.754 10.0579 107.933 10.0031 107.385 9.5105C106.838 9.07261 106.674 8.25154 106.947 7.64943C106.455 7.97785 105.853 8.14207 105.251 8.08733C104.648 8.03259 104.101 7.70417 103.773 7.21153C103.663 7.10205 103.608 6.93784 103.608 6.77363C103.882 6.99258 104.32 7.04732 104.648 6.99258C105.032 6.8831 105.305 6.60942 105.469 6.28099C105.798 5.89783 105.743 5.45993 105.853 5.02203C105.853 5.07677 105.853 5.07677 105.853 5.02203Z" fill="#263238"/>
<path d="M115.87 14.0531L117.785 15.1479C118.059 14.6005 117.895 13.8889 117.348 13.6152C116.855 13.2868 116.143 13.5058 115.87 14.0531Z" fill="#263238"/>
<path d="M107.385 14.4365L109.52 13.725C109.356 13.1228 108.754 12.7944 108.152 13.0134C107.55 13.2323 107.221 13.8892 107.385 14.4365Z" fill="#263238"/>
<path d="M116.8 16.8993C116.8 17.3919 116.417 17.8298 115.87 17.8298C115.377 17.8298 114.939 17.4467 114.939 16.8993C114.939 16.4067 115.322 15.9688 115.87 15.9688C116.362 15.9688 116.8 16.3519 116.8 16.8993Z" fill="#263238"/>
<path d="M109.52 16.4618C109.52 16.9544 109.137 17.3923 108.59 17.3923C108.097 17.3923 107.659 17.0092 107.659 16.4618C107.659 15.9692 108.042 15.5312 108.59 15.5312C109.192 15.5312 109.52 15.8597 109.52 16.4618Z" fill="#263238"/>
<path d="M112.914 14.6562L112.093 20.8963L109.027 19.8563C109.629 17.8858 111.053 16.2436 112.914 14.6562Z" fill="#F28F8F"/>
<path d="M122.657 17.0648C122.383 21.3891 120.96 22.7028 119.427 23.1407C117.019 23.8523 115.377 22.3743 112.585 21.8817C110.724 21.5533 109.465 22.2101 108.151 22.5933C107.878 22.648 107.604 22.7575 107.33 22.8122C106.783 22.9217 106.235 22.5386 106.181 21.9364C106.071 20.7322 106.016 17.6669 106.181 15.9153L105.798 14.5469C105.798 14.5469 105.25 20.4038 105.579 23.6333C105.798 25.7133 106.345 27.9576 108.151 28.9976C109.958 30.0923 112.038 29.9829 116.252 29.6544C120.796 29.2713 122.547 27.4102 123.095 25.9323C124.791 21.2796 124.189 19.0353 124.737 18.1595C125.229 17.229 122.657 17.0648 122.657 17.0648Z" fill="#37474F"/>
<path d="M114.774 23.4688L112.038 24.1803C112.202 24.9467 112.968 25.4393 113.734 25.2204C114.501 25.0014 114.993 24.2351 114.774 23.4688Z" fill="#B16668"/>
<path d="M114.501 23.9062C114.611 23.9062 114.72 23.9062 114.83 23.9062C114.775 24.5084 114.392 25.0557 113.79 25.22C113.625 25.2747 113.461 25.2747 113.352 25.2747C113.242 24.6178 113.735 24.0157 114.501 23.9062Z" fill="#F28F8F"/>
<path d="M148.767 58.8274C146.632 51.7663 144.333 46.1283 142.745 41.6946C140.611 35.8924 137.874 34.8524 133.55 33.9219C131.032 35.3998 129.827 41.3662 133.057 48.1536C135.028 53.1347 139.352 63.4801 139.352 63.4801C139.078 64.9033 137.71 74.2634 136.068 78.1498C135.465 79.573 134.371 80.0109 133.44 80.3393C131.689 80.9961 130.703 83.0762 129.335 84.1162C128.24 84.9372 127.474 85.1014 127.583 85.4299C127.693 85.8678 128.404 86.1962 129.554 86.0867C130.375 86.032 131.141 85.7583 131.853 85.3204C132.181 85.1014 132.51 84.8278 132.893 84.6635C133.44 84.4446 133.385 84.9372 133.276 85.3204C133.112 85.9772 132.729 86.4699 132.4 87.072C131.853 88.0025 131.251 88.9331 130.539 89.7541C130.046 90.3563 129.444 90.8489 128.842 91.3415C128.185 91.8889 127.638 92.4363 127.036 93.0384C126.817 93.3121 126.434 93.75 126.543 94.1331C126.653 94.571 127.2 94.6805 127.638 94.6258C128.021 94.571 128.35 94.4068 128.733 94.3521C129.499 94.2973 130.265 94.7353 131.032 94.6805C131.305 94.6258 131.579 94.5163 131.853 94.4616C132.291 94.3521 132.729 94.3521 133.166 94.3521C133.495 94.3521 133.878 94.4068 134.206 94.2426C134.535 94.1331 134.863 93.9689 135.246 93.8595C136.122 93.531 136.943 93.1479 137.819 92.8194C138.421 92.6005 138.804 91.9984 139.188 91.451C140.72 89.2615 141.924 86.6341 142.636 84.0614C143.567 80.7772 146.906 73.1687 148 69.1181C149.533 62.6591 149.697 61.838 148.767 58.8274Z" fill="#FFA8A7"/>
<path d="M133.002 33.3203C135.411 33.9772 137.765 34.9077 139.516 36.4403C141.268 37.973 141.541 38.7393 143.074 42.0783C144.552 45.3626 147.672 54.0658 147.672 54.0658C147.672 54.0658 144.443 59.2112 136.834 58.828L131.634 47.771C131.634 47.771 128.24 39.0678 133.002 33.3203Z" fill="#0B2A38"/>
<path d="M94.084 56.8036C96.0545 57.0773 97.6967 58.391 97.9156 60.6352C98.463 57.8436 96.164 56.2562 94.4124 55.873L94.084 56.8036Z" fill="#F28F8F"/>
</g>
<defs>
<clipPath id="clip0_764_10347">
<rect width="151.787" height="187.695" fill="white" transform="translate(0.756348 0.205078)"/>
</clipPath>
<clipPath id="clip1_764_10347">
<rect width="62.5996" height="70.7734" fill="white" transform="translate(4 75)"/>
</clipPath>
</defs>
</svg>
