<svg xmlns="http://www.w3.org/2000/svg" viewBox="0 0 24 24">
    <path fill="white"  d="M22.225 0H1.77C.79 0 0 .774 0 1.729v20.542C0 23.227.792 24 1.77 24h20.452C23.2 24 24 23.227 24 22.271V1.729C24 .774 23.2 0 22.222 0zM3.555 20.452H7.12V9H3.556v11.452zM5.338 7.433a2.062 2.062 0 01-2.063-2.065 2.064 2.064 0 112.063 2.065zm15.11 13.019h-3.554v-5.569c0-1.328-.026-3.037-1.852-3.037-1.852 0-2.134 1.445-2.134 2.939v5.667H9.35V9h3.415v1.566h.045c.477-.9 1.638-1.85 3.37-1.85 3.602 0 4.268 2.37 4.268 5.455v6.281h-.001z"/>
</svg>
