<svg width="41" height="29" viewBox="0 0 41 29" fill="none" xmlns="http://www.w3.org/2000/svg">
<g id="Logo" clip-path="url(#clip0_1158_13213)">
<path id="Vector" fill-rule="evenodd" clip-rule="evenodd" d="M10.6528 4.9613L0.666992 14.8467C2.66433 16.824 4.94598 18.4904 7.43363 19.7941C8.12123 21.5997 9.19902 23.293 10.667 24.7462C16.1899 30.2135 25.1442 30.2135 30.667 24.7462C32.135 23.293 33.2128 21.5997 33.9004 19.794C36.388 18.4904 38.6697 16.824 40.667 14.8467L30.6893 4.96934C30.6819 4.96195 30.6745 4.95456 30.667 4.94718C25.1442 -0.520153 16.1899 -0.520153 10.667 4.94718C10.6623 4.95189 10.6575 4.95659 10.6528 4.9613ZM29.7115 21.5776C26.8015 22.5498 23.7467 23.0477 20.667 23.0477C17.5873 23.0477 14.5326 22.5498 11.6226 21.5776C11.9379 21.9917 12.286 22.3891 12.667 22.7663C17.0853 27.1402 24.2487 27.1402 28.667 22.7663C29.048 22.3891 29.3962 21.9917 29.7115 21.5776ZM12.8721 6.72908C13.6224 7.21979 14.4202 7.6397 15.255 7.98204C16.9708 8.6856 18.8098 9.04772 20.667 9.04772C22.5242 9.04772 24.3632 8.6856 26.079 7.98204C26.9138 7.6397 27.7116 7.21978 28.462 6.72906C24.0988 2.61921 17.2352 2.61922 12.8721 6.72908Z" fill="#3B4158"/>
</g>
<defs>
<clipPath id="clip0_1158_13213">
<rect width="40" height="28" fill="white" transform="translate(0.666992 0.84668)"/>
</clipPath>
</defs>
</svg>
