<svg width="47" height="30" viewBox="0 0 47 30" fill="none" xmlns="http://www.w3.org/2000/svg">
<g id="Logo" clip-path="url(#clip0_1158_13220)">
<path id="Vector" d="M43.9963 4.41102C43.9963 4.44483 43.9963 4.4871 43.9875 4.51246C43.9434 4.84214 43.9434 5.17183 43.9698 5.50997C43.9875 5.5945 44.0051 5.67904 44.0756 5.74667C44.19 5.87346 44.3662 5.84811 44.4367 5.69594C44.4719 5.61987 44.4719 5.54378 44.4543 5.4677C44.3662 5.14647 44.3486 4.80833 44.3398 4.47864C44.3398 4.46174 44.3398 4.43638 44.3398 4.41102C44.4367 4.40256 44.5248 4.39411 44.604 4.39411C44.6657 4.38566 44.7185 4.3772 44.7626 4.35184C44.8946 4.28422 44.8946 4.14051 44.7537 4.07288C44.7009 4.04752 44.6304 4.03906 44.5688 4.03906C44.3486 4.04752 44.1284 4.04752 43.9082 4.04752C43.829 4.04752 43.7497 4.05597 43.6704 4.06442C43.6263 4.07288 43.5735 4.07288 43.5383 4.09824C43.4766 4.1236 43.4414 4.16586 43.4414 4.22504C43.4502 4.28422 43.4766 4.31803 43.5383 4.34339C43.5735 4.36875 43.6175 4.3772 43.6616 4.3772C43.7672 4.38566 43.8818 4.40256 43.9963 4.41102ZM46.4184 4.79988C46.4184 4.80833 46.4272 4.81678 46.4272 4.81678C46.4624 5.04503 46.4977 5.26482 46.5241 5.48461C46.5329 5.56069 46.5417 5.62832 46.5946 5.68749C46.709 5.8312 46.8852 5.81429 46.9645 5.66213C46.9997 5.58605 47.0085 5.50997 46.9909 5.42543C46.9381 5.17183 46.9116 4.91822 46.8588 4.67307C46.8235 4.52091 46.7795 4.3772 46.7355 4.24195C46.709 4.15742 46.6474 4.09824 46.5417 4.08979C46.436 4.07288 46.3567 4.1236 46.3127 4.19968C46.2599 4.26731 46.2158 4.33494 46.1806 4.41102C46.1189 4.54627 46.0661 4.68153 45.9957 4.80833C45.9868 4.84214 45.978 4.86751 45.9604 4.89286C45.9516 4.87596 45.9428 4.86751 45.9428 4.86751C45.8283 4.65617 45.7226 4.44483 45.6081 4.24195C45.5904 4.22504 45.5817 4.20813 45.5729 4.19123C45.52 4.11515 45.4584 4.07288 45.3615 4.07288C45.2734 4.08133 45.2029 4.13205 45.1589 4.20813C45.1413 4.24195 45.1413 4.26731 45.1325 4.30112C45.0972 4.57163 45.0532 4.84214 45.018 5.11266C45.0003 5.26482 44.9915 5.41698 44.9915 5.56914C44.9827 5.60295 44.9915 5.64522 45.0091 5.67904C45.0268 5.74666 45.0796 5.78894 45.1501 5.79739C45.2381 5.80584 45.2998 5.78048 45.3262 5.71285C45.3526 5.66213 45.3615 5.61987 45.3703 5.5776C45.4055 5.42543 45.4319 5.28173 45.4584 5.13802C45.476 5.05348 45.4848 4.98585 45.5112 4.89286C45.5288 4.92668 45.5464 4.95204 45.5641 4.9774C45.6433 5.07884 45.7226 5.18028 45.8195 5.26482C45.9164 5.33244 45.9957 5.32399 46.0749 5.24791C46.0925 5.231 46.1013 5.22255 46.1189 5.20564C46.1982 5.08729 46.2951 4.96895 46.3743 4.85059C46.392 4.83369 46.4008 4.81678 46.4184 4.79988Z" fill="#3A3B7B"/>
<path id="Vector_2" d="M26.1247 4.57785C26.0634 4.7385 26.0518 4.85424 26.08 4.95044C26.1113 5.08126 26.1923 5.12409 26.3023 5.09082C27.3368 4.84529 29.6054 5.54221 30.4453 5.73645C30.6433 5.77723 30.8045 5.53182 30.6693 5.31179C30.472 5.09871 28.2045 4.18641 27.3393 4.13667C27.0002 4.11828 26.3939 4.03481 26.1247 4.57785Z" fill="#3A3B7B"/>
<path id="Vector_3" d="M34.9906 1.62411C35.1008 1.68519 35.1625 1.74345 35.1929 1.80855C35.2382 1.89394 35.2143 1.95302 35.1382 1.98317C34.4543 2.3035 33.5443 3.68259 33.177 4.15822C33.088 4.26764 32.8826 4.20406 32.8516 4.02412C32.8579 3.82068 33.6646 2.32406 34.1148 1.91643C34.2917 1.75728 34.584 1.44501 34.9906 1.62411Z" fill="#3A3B7B"/>
<path id="Vector_4" d="M29.544 0.945409C29.6764 0.849592 29.8141 0.816015 29.8844 0.878284C30.9162 1.72518 31.4633 3.06632 31.8021 4.2941C31.8149 4.32271 31.8157 4.36375 31.8055 4.40657C31.8012 4.44317 31.7734 4.48184 31.7291 4.51175C31.6819 4.54478 31.6412 4.55484 31.622 4.52638C31.1698 3.93605 28.5871 1.63918 29.544 0.945409Z" fill="#3A3B7B"/>
<path id="Vector_5" d="M7.69524 15.6285C7.94253 15.4518 8.21137 15.3047 8.49586 15.1905C8.7935 15.1089 9.11075 15.1224 9.39966 15.2291C9.68851 15.3359 9.93338 15.53 10.0971 15.7822C10.2435 16.0337 10.3008 16.3241 10.2604 16.6096C10.2199 16.8951 10.084 17.1602 9.87289 17.3651C9.70926 17.5312 9.52348 17.6759 9.3205 17.7954C8.41582 18.3564 7.50308 18.8866 6.59039 19.4475C6.40363 19.5879 6.20551 19.7139 5.99793 19.8241C5.68217 19.9752 5.32132 20.0157 4.97776 19.9385C4.6342 19.8614 4.32955 19.6713 4.11648 19.4014C3.95719 19.2103 3.82277 19.0013 3.71616 18.779C2.8515 17.0347 1.95481 15.2981 1.12217 13.523C0.737866 12.7546 0.425627 11.8709 0.121393 11.018C-0.010233 10.7702 -0.0359366 10.4829 0.0497553 10.2171C0.135447 9.9514 0.325774 9.72823 0.580249 9.5951C0.834727 9.46196 1.13327 9.4294 1.4124 9.50427C1.69152 9.57915 1.92921 9.75559 2.0749 9.99602C2.52271 10.5672 2.91911 11.1739 3.25981 11.8095C4.12448 13.3463 4.94912 14.8831 5.78176 16.3738C5.83024 16.4562 5.8837 16.5357 5.94188 16.612C6.56859 16.3591 7.15803 16.0285 7.69524 15.6285Z" fill="#3A3B7B"/>
<path id="Vector_6" d="M16.6352 15.0924C14.6577 17.313 11.3432 16.7521 9.67789 13.8936C8.49295 11.865 8.28481 8.51469 10.8628 6.40156C11.4133 5.95916 12.0716 5.65779 12.7763 5.52556C13.6403 5.40668 14.5213 5.55297 15.2935 5.94354C16.0656 6.3341 16.6894 6.94893 17.0756 7.70019C18.4847 10.1591 18.2845 13.2942 16.6352 15.0924ZM15.8346 9.91322C15.6245 9.30896 15.2031 8.79309 14.6417 8.4532C14.324 8.2359 13.938 8.13024 13.5487 8.15404C13.1594 8.17783 12.7905 8.32962 12.5041 8.58383C11.3592 9.55975 11.119 11.8727 11.9516 13.2481C12.0578 13.4724 12.2136 13.6717 12.4084 13.8322C12.6032 13.9926 12.8321 14.1102 13.0792 14.1768C13.3263 14.2434 13.5855 14.2574 13.8389 14.2178C14.0922 14.1781 14.3334 14.0859 14.5457 13.9474C15.1663 13.4856 15.6216 12.8497 15.8483 12.1281C16.075 11.4065 16.0618 10.635 15.8107 9.92093L15.8346 9.91322Z" fill="#3A3B7B"/>
<path id="Vector_7" d="M24.706 10.8815C24.5036 10.9233 24.2944 10.9258 24.0909 10.8888C23.8875 10.8518 23.6937 10.7762 23.5212 10.6663C23.3702 10.5834 23.2402 10.4695 23.1405 10.3326C23.041 10.1957 22.9742 10.0394 22.9451 9.87472C22.916 9.71014 22.9253 9.54141 22.9723 9.38066C23.0193 9.21991 23.1029 9.07115 23.2169 8.94507C23.4157 8.69171 23.6978 8.51033 24.0175 8.43025C24.8523 8.19772 25.7117 8.05595 26.5795 8.00764C26.7702 7.98635 26.9634 8.00184 27.1477 8.05319C27.332 8.10459 27.5038 8.19074 27.653 8.30674C27.8021 8.42267 27.9257 8.56609 28.0163 8.72849C28.1069 8.89089 28.1628 9.06904 28.1807 9.25247C28.4309 10.1534 28.4583 11.0981 28.2608 12.0111C27.5403 14.9618 25.0583 15.9761 22.2722 15.0309C21.4901 14.7782 20.8044 14.3074 20.3027 13.6785C19.6335 12.9212 19.1591 12.0237 18.9176 11.0582C18.7219 10.1985 18.7433 9.30632 18.9801 8.45615C19.2169 7.60599 19.6621 6.8225 20.2786 6.17112C20.8637 5.46314 21.6231 4.90597 22.4884 4.54976C23.0351 4.26052 23.6749 4.17828 24.2818 4.31924C24.4194 4.3558 24.5443 4.42705 24.6436 4.52559C24.743 4.62414 24.813 4.74638 24.8465 4.87966C24.88 5.01292 24.8757 5.15237 24.8341 5.28353C24.7925 5.41468 24.7152 5.53277 24.61 5.62554C24.4101 5.79925 24.1929 5.95367 23.9615 6.08659C23.2497 6.52164 22.6303 7.08223 22.1361 7.73867C21.8121 8.16345 21.589 8.65125 21.4825 9.16764C21.3759 9.68404 21.3886 10.2166 21.5196 10.7278C21.7012 11.4249 22.1041 12.0506 22.6725 12.5182C24.4338 14.0551 26.7236 12.572 26.3233 10.4742C25.7389 10.6126 25.2265 10.7586 24.706 10.8815Z" fill="#3A3B7B"/>
<path id="Vector_8" d="M35.4656 15.2151C32.8637 16.7519 29.9014 15.2151 29.2528 11.9878C28.7805 9.68254 29.6772 6.45518 32.8156 5.22572C33.4834 4.96977 34.2077 4.8799 34.9212 4.96446C35.7786 5.11509 36.5651 5.52019 37.1698 6.12265C37.7745 6.7251 38.167 7.49449 38.2918 8.32244C38.8202 11.0656 37.6193 13.9933 35.4656 15.2151ZM36.3704 10.0437C36.3696 9.40533 36.1343 8.78763 35.7059 8.29937C35.4769 7.99738 35.1458 7.781 34.7691 7.68708C34.3924 7.59322 33.9935 7.62763 33.6402 7.78456C32.2312 8.36851 31.2384 10.4893 31.5987 12.0493C31.6262 12.2941 31.7091 12.5301 31.8415 12.741C31.974 12.9518 32.1529 13.1324 32.3657 13.27C32.5784 13.4075 32.8199 13.4989 33.0732 13.5376C33.3266 13.5762 33.5857 13.5613 33.8324 13.4939C34.5772 13.2441 35.2221 12.7774 35.6771 12.1589C36.1321 11.5403 36.3745 10.8008 36.3704 10.0437Z" fill="#3A3B7B"/>
<path id="Vector_9" d="M40.9237 15.8609C40.8844 16.1421 40.7304 16.3969 40.4954 16.5691C40.2604 16.7413 39.9637 16.8169 39.6707 16.7792C39.3777 16.7415 39.1123 16.5936 38.9329 16.368C38.7534 16.1425 38.6747 15.8578 38.714 15.5766C38.7533 15.2953 38.9074 15.0406 39.1423 14.8684C39.3773 14.6962 39.6739 14.6206 39.9669 14.6583C40.26 14.696 40.5254 14.8439 40.7048 15.0694C40.8842 15.295 40.963 15.5797 40.9237 15.8609ZM40.2271 5.49498C40.3794 5.27178 40.6028 5.1018 40.864 5.01041C41.1251 4.91901 41.41 4.91109 41.6763 4.98783C41.9469 5.05282 42.186 5.20508 42.3537 5.4191C42.5213 5.63313 42.6071 5.89593 42.597 6.1635C42.5617 6.59268 42.4948 7.01893 42.3968 7.43905C42.1326 8.86064 41.8764 10.2822 41.5962 11.6884C41.4681 12.2494 41.3 12.7872 41.1158 13.3558C41.0518 13.5336 40.9447 13.6942 40.8036 13.8246C40.7159 13.9227 40.6038 13.9979 40.4777 14.0433C40.3516 14.0888 40.2156 14.1029 40.0824 14.0845C39.9491 14.0661 39.8227 14.0158 39.7151 13.9381C39.6075 13.8604 39.522 13.758 39.4666 13.6402C39.3714 13.4289 39.3197 13.2018 39.3144 12.9717C39.3144 12.0188 39.3144 11.0583 39.3785 10.0978C39.4873 8.72698 39.7014 7.36575 40.019 6.02518C40.0564 5.84558 40.1268 5.67383 40.2271 5.51803V5.49498Z" fill="#3A3B7B"/>
<path id="Vector_10" fill-rule="evenodd" clip-rule="evenodd" d="M4.31239 22.0356C4.21786 22.2382 4.19193 22.464 4.23813 22.6813C4.26886 22.9677 4.33636 23.2495 4.43909 23.5201C4.56734 23.8515 4.71086 24.1792 4.88782 24.5831C4.92852 24.676 4.97105 24.773 5.01555 24.8751C5.25419 25.4223 5.55362 26.1216 5.95302 27.1336C6.06607 27.4211 6.16645 27.711 6.26754 28.0028C6.30838 28.1207 6.34936 28.2391 6.39131 28.3576C6.54169 28.7792 6.80043 29.1579 7.14339 29.458C7.28903 29.623 7.4822 29.7432 7.6988 29.8033C7.91963 29.8646 8.1545 29.8607 8.37298 29.7922C8.59146 29.7236 8.78336 29.5935 8.92375 29.4188C9.0614 29.2475 9.14324 29.041 9.15916 28.8254C9.24846 28.4053 9.21797 27.9697 9.0708 27.5647C8.83721 26.8922 8.57112 26.2187 8.26428 25.56L8.26287 25.5571C7.75809 24.5266 7.24498 23.5032 6.7076 22.4793L6.70357 22.4721C6.54626 22.2054 6.34181 21.9669 6.09943 21.7675C5.94207 21.5895 5.72502 21.4694 5.48532 21.428C5.24051 21.3858 4.98803 21.4283 4.77294 21.5482C4.56947 21.6597 4.40818 21.8304 4.31239 22.0356Z" fill="#3A3B7B"/>
<path id="Vector_11" fill-rule="evenodd" clip-rule="evenodd" d="M12.0224 19.4985C11.2309 19.3018 10.4043 19.2731 9.60018 19.4145C8.97737 19.4734 8.36482 19.6113 7.93947 19.8844C7.72314 20.0234 7.54823 20.2019 7.45094 20.4287C7.35311 20.6568 7.34063 20.9177 7.42079 21.2084C7.56717 21.7408 7.75725 22.2584 7.94666 22.7744L7.97734 22.858L7.97808 22.8599C8.54839 24.3589 9.12414 25.8529 9.70513 27.3417C9.77288 27.5763 9.86869 27.8026 9.99062 28.0161L9.9929 28.0201C10.154 28.2853 10.3606 28.5225 10.604 28.7217C10.7257 28.8313 10.8762 28.9071 11.0395 28.941C11.2043 28.9751 11.3757 28.9652 11.535 28.9122C11.6944 28.8593 11.8356 28.7654 11.9431 28.6407C12.049 28.518 12.1182 28.3702 12.1437 28.213C12.2487 27.7858 12.2151 27.3379 12.0472 26.9295C11.9948 26.7921 11.9537 26.6517 11.9104 26.5038C11.896 26.4545 11.8814 26.4044 11.8659 26.3533C13.1958 25.8544 14.6109 25.1835 15.1085 23.6228C15.3033 23.0834 15.3195 22.4994 15.1549 21.9508C14.9901 21.4015 14.6521 20.9147 14.1873 20.5574C13.5548 20.0571 12.8159 19.6957 12.0224 19.4985ZM9.82847 21.4128C9.85466 21.4056 9.88104 21.3988 9.9075 21.3926C10.7733 21.262 11.6591 21.436 12.4019 21.8826C12.7292 22.1011 12.8633 22.3439 12.8863 22.5774C12.9101 22.8179 12.8189 23.0785 12.6359 23.3291C12.2901 23.8023 11.6589 24.1811 11.0888 24.2517C10.6732 23.333 10.2511 22.3772 9.82847 21.4128Z" fill="#3A3B7B"/>
<path id="Vector_12" d="M17.2989 17.8168C18.2414 17.399 19.409 17.3268 20.3226 17.6206C20.5527 17.6849 20.7523 17.824 20.8873 18.0142C21.0215 18.2032 21.0834 18.4309 21.0627 18.6585C21.0613 18.8063 21.0235 18.9517 20.9524 19.0828C20.8801 19.2164 20.7752 19.3312 20.6469 19.4177C20.5185 19.5041 20.3703 19.5596 20.2149 19.5795C20.0594 19.5994 19.9012 19.583 19.7537 19.5318L19.7425 19.5279L19.732 19.5226C19.6565 19.4847 19.5763 19.4562 19.4934 19.4376L19.4882 19.4364C18.8455 19.2726 18.2393 19.5441 18.0178 19.8776C17.9122 20.0367 17.8991 20.1972 17.9871 20.3433C18.0813 20.4997 18.3123 20.6752 18.7798 20.8003C18.9084 20.8342 19.0402 20.8669 19.1739 20.9001C19.5436 20.992 19.9278 21.0874 20.2993 21.2197L20.3007 21.2202C22.0146 21.8461 22.6528 23.1423 22.4343 24.3615C22.2181 25.5672 21.169 26.6644 19.5914 26.9233C19.0173 27.0454 18.4199 27.0216 17.8582 26.8542C17.2952 26.6864 16.7876 26.3801 16.386 25.9657L16.3756 25.9549C16.2488 25.7987 16.1635 25.6153 16.1257 25.4207C16.091 25.245 16.1093 25.0635 16.1784 24.8975C16.2472 24.7324 16.3635 24.5896 16.5136 24.4855C16.6721 24.3676 16.8632 24.2968 17.0632 24.282C17.2625 24.2673 17.462 24.3089 17.6371 24.4016C17.8119 24.4826 17.9745 24.5861 18.1205 24.709L18.1232 24.7113C18.3815 24.9379 18.6939 24.997 18.9935 24.9423C19.2974 24.8868 19.5833 24.7142 19.7671 24.4851C19.9497 24.2576 20.023 23.9872 19.936 23.7248C19.8485 23.4604 19.5852 23.1642 19.0068 22.9166C18.8556 22.855 18.6988 22.8053 18.5357 22.7569C18.4917 22.7438 18.447 22.7308 18.4017 22.7177C18.2812 22.6825 18.1571 22.6463 18.0354 22.6065C17.9516 22.5791 17.8685 22.5531 17.7862 22.5273C17.5612 22.457 17.3418 22.3884 17.1307 22.2965C16.6713 22.1464 16.2743 21.8581 15.999 21.4743C15.7225 21.089 15.5834 20.6282 15.6023 20.1608C15.6038 19.0217 16.3513 18.2369 17.2989 17.8168Z" fill="#3A3B7B"/>
<path id="Vector_13" d="M29.2489 17.6955C29.0661 17.6098 28.864 17.5692 28.6608 17.5772C28.4576 17.5852 28.2597 17.6416 28.0849 17.7415C27.9112 17.8406 27.7658 17.9794 27.6616 18.1456C27.566 18.2855 27.4999 18.4419 27.4669 18.6063C27.4339 18.7704 27.4347 18.9392 27.4692 19.103C27.5032 19.3135 27.541 19.5182 27.5782 19.7201C27.6399 20.0541 27.7 20.3807 27.7396 20.7137L27.741 20.7221C27.8312 21.2443 27.8784 21.7725 27.8827 22.3017L27.8831 22.3092C27.9139 22.8808 27.711 23.4412 27.3178 23.8716L27.3116 23.8792C27.1837 24.0366 27.0127 24.1567 26.8176 24.2261C26.6226 24.2955 26.4114 24.3114 26.2075 24.2721C26.0036 24.2329 25.8151 24.1399 25.6631 24.0037C25.5111 23.8675 25.4015 23.6928 25.3467 23.5003C25.2299 23.0945 25.1623 22.6771 25.1451 22.2564L25.3447 19.2073C25.3476 19.1675 25.351 19.1266 25.3544 19.0854C25.362 18.9927 25.3698 18.8984 25.373 18.8104C25.3777 18.681 25.3737 18.5479 25.3422 18.4218C25.3101 18.2931 25.2489 18.1705 25.1404 18.0662C25.033 17.9629 24.8879 17.8867 24.7055 17.8349C24.3754 17.7432 24.0964 17.7461 23.8639 17.8408C23.6312 17.9355 23.4718 18.1113 23.359 18.3145C23.2471 18.5159 23.1752 18.7544 23.1208 18.9932C23.0805 19.1704 23.048 19.3565 23.0172 19.5336C23.0065 19.5946 22.9961 19.6545 22.9856 19.7127L22.9853 19.7145C22.8204 20.6857 22.7713 21.6718 22.839 22.6537C22.8516 23.1844 22.9669 23.7081 23.1791 24.1983C23.4185 24.8308 23.852 25.3787 24.4225 25.7699C24.9942 26.1619 25.6765 26.3779 26.3789 26.3893C27.0814 26.4007 27.7709 26.207 28.3561 25.8338C28.9404 25.4613 29.3932 24.9273 29.6546 24.3025C30.0203 23.5067 30.1921 22.6411 30.1566 21.7719C30.1352 21.1374 30.0992 20.4979 30.0634 19.8617C30.0458 19.5496 30.0283 19.2382 30.0126 18.9287C30.0046 18.6183 29.898 18.3177 29.7069 18.0672C29.5887 17.9088 29.4313 17.7811 29.2489 17.6955Z" fill="#3A3B7B"/>
<path id="Vector_14" d="M35.7175 22.4767C35.699 22.4994 35.6794 22.5228 35.659 22.5471C35.5104 21.724 35.3726 20.9012 35.2346 20.0771C35.1851 19.7815 35.1354 19.4845 35.0853 19.1885L35.0797 19.1555L35.0614 19.1269C35.027 19.0732 35.0236 19.0205 35.0236 18.9082V18.8952L35.0215 18.8824C34.9842 18.6505 34.8748 18.4346 34.7079 18.2631C34.5413 18.0921 34.3251 17.973 34.0872 17.9214C33.8497 17.8652 33.6001 17.8775 33.3699 17.957C33.1403 18.0363 32.9401 18.1788 32.7944 18.3667C32.6733 18.5108 32.574 18.6707 32.4996 18.8415C32.3307 19.2096 32.1604 19.5785 31.9896 19.9485L31.9866 19.9549C31.5602 20.8785 31.1309 21.8082 30.7141 22.7453L30.7128 22.7484C30.4569 23.356 30.2457 23.9962 30.0352 24.6345C29.9932 24.7619 29.9511 24.8892 29.9088 25.0162C29.8328 25.2176 29.7995 25.4316 29.8109 25.6455C29.7971 25.8369 29.8448 26.0279 29.9478 26.1926C30.0528 26.3607 30.2102 26.4929 30.3976 26.5708C30.5962 26.6543 30.8182 26.6721 31.0286 26.6212C31.2385 26.5704 31.4248 26.4541 31.5584 26.2906C31.7289 26.0893 31.8756 25.8697 31.9953 25.637C32.3484 24.9438 32.6859 24.2421 33.0218 23.5435C33.1518 23.2733 33.2781 23.0312 33.4217 22.7677C33.4316 22.8002 33.4417 22.8319 33.4521 22.8636C33.6027 23.5 33.8569 24.1095 34.2053 24.6699C34.2712 24.7886 34.3631 24.8923 34.4745 24.974C34.5873 25.0566 34.7175 25.1146 34.856 25.1441C34.9946 25.1735 35.1381 25.1737 35.2767 25.1445C35.4151 25.1154 35.5457 25.0573 35.6585 24.975L35.8819 24.8145L37.6158 23.4129L37.5132 24.04C37.3725 24.902 37.2328 25.7568 37.0844 26.6119C36.9874 26.9909 36.9875 27.3867 37.0849 27.7656C37.127 27.9788 37.2344 28.175 37.3934 28.3294C37.5538 28.485 37.7591 28.5907 37.9828 28.6329C38.2065 28.675 38.4383 28.6517 38.648 28.5658C38.8547 28.4813 39.0305 28.3398 39.1533 28.1596C39.4392 27.8191 39.6171 27.407 39.666 26.9722C39.7396 26.3582 39.8227 25.7358 39.9059 25.1136C40.0017 24.3965 40.0976 23.6795 40.1785 22.9763L40.1787 22.9742C40.2566 22.2044 40.2943 21.4315 40.2917 20.6581C40.3087 20.4137 40.2453 20.1703 40.1102 19.9622C39.9747 19.7534 39.7739 19.591 39.5366 19.4982C39.2898 19.3905 39.0135 19.3617 38.7484 19.4161C38.485 19.4702 38.2466 19.6034 38.0677 19.7965C37.7479 20.0804 37.4479 20.3841 37.1696 20.7058L37.1677 20.708C36.8639 21.0714 36.5621 21.4418 36.2624 21.8099C36.0801 22.0337 35.8983 22.2569 35.7175 22.4767Z" fill="#3A3B7B"/>
</g>
<defs>
<clipPath id="clip0_1158_13220">
<rect width="47" height="29" fill="white" transform="translate(0 0.84668)"/>
</clipPath>
</defs>
</svg>
