<svg width="42" height="28" viewBox="0 0 42 28" fill="none" xmlns="http://www.w3.org/2000/svg">
<g id="Logo" clip-path="url(#clip0_1158_13236)">
<path id="Vector" d="M39.1045 1.69043C39.1045 2.15642 39.4869 2.53418 39.9587 2.53418H40.8128C41.2846 2.53418 41.667 2.15642 41.667 1.69043C41.667 1.22444 41.2846 0.84668 40.8128 0.84668H39.9587C39.4869 0.84668 39.1045 1.22444 39.1045 1.69043Z" fill="#212326"/>
<path id="Vector_2" d="M14.3337 27.8467H18.4831L17.2751 26.6534C16.9547 26.337 16.5202 26.1592 16.0671 26.1592H14.3337C7.72924 26.1592 2.37533 20.8706 2.37533 14.3467C2.37533 7.8228 7.72924 2.53419 14.3337 2.53418H28.0003C34.6047 2.53418 39.9587 7.8228 39.9587 14.3467C39.9587 20.8706 34.6047 26.1592 28.0003 26.1592H22.8879C22.2083 26.1592 21.5565 25.8925 21.0759 25.4178L19.6607 24.0198C18.8598 23.2287 17.7734 22.7842 16.6407 22.7842H14.3337C9.6162 22.7842 5.79199 19.0066 5.79199 14.3467C5.79199 9.68675 9.6162 5.90918 14.3337 5.90918H28.0003C32.7178 5.90918 36.542 9.68675 36.542 14.3467C36.542 19.0066 32.7178 22.7842 28.0003 22.7842H24.7177C24.038 22.7842 23.3863 22.5175 22.9057 22.0428L21.4904 20.6448C20.6895 19.8537 19.6032 19.4092 18.4705 19.4092H14.3337C11.5032 19.4092 9.20866 17.1426 9.20866 14.3467C9.20866 11.5508 11.5032 9.28418 14.3337 9.28418H28.0003C30.8308 9.28418 33.1253 11.5508 33.1253 14.3467C33.1253 17.1085 30.8864 19.3538 28.1036 19.4082L28.1031 19.4092H26.8531C26.1734 19.4092 25.5217 19.1425 25.0411 18.6678L23.6258 17.2698C22.9687 16.6206 22.1194 16.2049 21.2099 16.0766L21.167 16.0342H14.3337C13.3902 16.0342 12.6253 15.2787 12.6253 14.3467C12.6253 13.4147 13.3902 12.6592 14.3337 12.6592H28.0003C28.9438 12.6592 29.7087 13.4147 29.7087 14.3467C29.7087 15.2787 28.9438 16.0342 28.0003 16.0342H24.5837L25.7917 17.2274C26.112 17.5439 26.5465 17.7217 26.9996 17.7217H28.0003C29.8873 17.7217 31.417 16.2106 31.417 14.3467C31.417 12.4827 29.8873 10.9717 28.0003 10.9717H14.3337C12.4467 10.9717 10.917 12.4827 10.917 14.3467C10.917 16.2106 12.4467 17.7217 14.3337 17.7217H20.6059C21.2856 17.7217 21.9373 17.9884 22.4179 18.463L23.8332 19.861C24.6341 20.6522 25.7204 21.0967 26.8531 21.0967H28.4274V21.0837C32.0024 20.866 34.8337 17.9329 34.8337 14.3467C34.8337 10.6188 31.7742 7.59668 28.0003 7.59668H14.3337C10.5597 7.59668 7.50033 10.6188 7.50033 14.3467C7.50033 18.0746 10.5597 21.0967 14.3337 21.0967H18.4705C19.1501 21.0967 19.8019 21.3634 20.2825 21.838L21.6977 23.236C22.4987 24.0272 23.585 24.4717 24.7177 24.4717H28.0003C33.6613 24.4717 38.2503 19.9386 38.2503 14.3467C38.2503 8.75478 33.6613 4.22168 28.0003 4.22168H14.3337C8.67272 4.22168 4.08366 8.75478 4.08366 14.3467C4.08366 19.9386 8.67272 24.4717 14.3337 24.4717H16.6407C17.3204 24.4717 17.9721 24.7384 18.4527 25.213L19.868 26.611C20.6689 27.4022 21.7552 27.8467 22.8879 27.8467H28.0003C35.5482 27.8467 41.667 21.8025 41.667 14.3467C41.667 6.89083 35.5482 0.846679 28.0003 0.84668L14.3337 0.846682C6.78576 0.846683 0.666992 6.89084 0.666992 14.3467C0.666993 21.8025 6.78577 27.8467 14.3337 27.8467Z" fill="#212326"/>
</g>
<defs>
<clipPath id="clip0_1158_13236">
<rect width="41" height="27" fill="white" transform="translate(0.666992 0.84668)"/>
</clipPath>
</defs>
</svg>
