<svg width="56" height="31" viewBox="0 0 56 31" fill="none" xmlns="http://www.w3.org/2000/svg">
<g id="Logo" clip-path="url(#clip0_1158_13216)">
<path id="Vector" d="M55.3287 11.5163C55.3345 11.4746 55.3345 11.4325 55.3287 11.3908C55.3342 11.3568 55.3342 11.3222 55.3287 11.2881L54.9213 8.35545C54.8625 8.0046 54.7053 7.67667 54.4674 7.40834L54.3975 7.32846L54.2695 7.20293L47.2159 1.24635L47.4138 1.44036C47.2519 1.25047 47.0487 1.09859 46.8191 0.995902C46.5895 0.89321 46.3392 0.842317 46.0869 0.846978H43.9452C43.5969 0.840213 43.2566 0.948765 42.9791 1.15508C42.6877 0.950008 42.3368 0.842011 41.9781 0.846978H39.8364C39.5555 0.84251 39.2784 0.910853 39.0331 1.04511C38.7879 1.17936 38.5831 1.37476 38.4397 1.61151C38.2185 1.94967 38.1353 2.35709 38.2068 2.75262L38.4746 4.60121C38.2972 4.50264 38.0965 4.4515 37.8926 4.45288H27.5217C27.1496 4.45517 26.7861 4.56209 26.4741 4.76097C26.1725 4.94608 25.9303 5.21115 25.7758 5.5255L24.9726 4.85226C24.6565 4.56552 24.2393 4.41011 23.8087 4.41864H7.53654C7.16313 4.42531 6.79801 4.52758 6.47737 4.71533C6.0387 4.96704 5.71722 5.37633 5.5811 5.85643L0.413124 22.8019C0.316563 23.0811 0.307064 23.3822 0.385844 23.6668C0.464624 23.9513 0.628116 24.2064 0.855434 24.3995C0.914666 24.4487 0.976859 24.4944 1.04167 24.5363C1.04167 24.5363 0.936899 24.4679 0.8787 24.4109L7.93232 30.3788C8.2307 30.6482 8.62082 30.7987 9.02637 30.801H25.4266C25.8011 30.7915 26.1665 30.6852 26.4858 30.4929C26.6664 30.3962 26.828 30.2687 26.963 30.1163L27.0212 30.0365L27.1143 29.9224L27.1842 29.7968L27.9524 30.4473C28.2465 30.7059 28.6281 30.8482 29.0232 30.8467H45.4583C45.8324 30.8345 46.1971 30.7284 46.5175 30.5386C46.694 30.4359 46.8547 30.3091 46.9948 30.162L47.0529 30.0821L47.146 29.9681C47.1955 29.8958 47.2385 29.8195 47.2741 29.7398C47.3121 29.6706 47.3433 29.598 47.3672 29.523L52.0812 14.0496V13.9127C52.087 13.8596 52.087 13.806 52.0812 13.7529V13.6502C52.0869 13.6162 52.0869 13.5815 52.0812 13.5475C52.0865 13.4753 52.0865 13.4029 52.0812 13.3307H53.5944C53.726 13.3425 53.8585 13.3425 53.9901 13.3307H54.0949C54.1801 13.3058 54.2621 13.2713 54.3393 13.228H54.4558L54.6652 13.0682L54.7583 12.9998L54.9213 12.7943V12.7259L55.0377 12.5319C55.0312 12.4942 55.0312 12.4556 55.0377 12.4178C55.0315 12.3993 55.0315 12.3793 55.0377 12.3608C55.0624 12.2939 55.0819 12.2252 55.0959 12.1553C55.0905 12.1328 55.0905 12.1094 55.0959 12.0869C55.0902 12.0529 55.0902 12.0182 55.0959 11.9842C55.0959 11.9842 55.3287 11.5391 55.3287 11.5163Z" fill="black"/>
<path id="Vector_2" d="M24.2862 5.71959C24.348 5.77437 24.3911 5.8464 24.4099 5.92597C24.4286 6.00555 24.422 6.08883 24.391 6.16461L19.2347 23.0986C19.1697 23.2835 19.0369 23.4381 18.8622 23.5323C18.72 23.6255 18.5555 23.6806 18.3849 23.692H1.99642C1.85646 23.6854 1.72386 23.6286 1.62394 23.5323C1.5645 23.4784 1.52279 23.4083 1.50413 23.3311C1.48547 23.2539 1.49072 23.173 1.51919 23.0986L6.68717 6.16461C6.74671 5.9774 6.87537 5.8187 7.04799 5.71959C7.19249 5.63305 7.35625 5.58215 7.52521 5.57124H23.9137C24.0526 5.57255 24.1857 5.62559 24.2862 5.71959ZM15.7311 19.6867L18.8156 9.57652H10.1791L7.10617 19.6867H15.7311ZM39.9298 5.89074C39.9857 5.95445 40.0556 6.00497 40.1342 6.03855C40.2128 6.07214 40.2981 6.08793 40.3838 6.08473H42.5138C42.5949 6.08551 42.6748 6.06601 42.7462 6.02808C42.8174 5.99014 42.8776 5.93502 42.9212 5.86792C42.959 5.81551 42.9857 5.75618 42.9997 5.69345C43.0137 5.63073 43.0147 5.56589 43.0026 5.50278L42.5836 2.49025C42.5437 2.35083 42.4721 2.22208 42.3742 2.11368C42.3182 2.04998 42.2483 1.99946 42.1697 1.96587C42.0911 1.93229 42.0058 1.91651 41.9202 1.9197H39.7901C39.709 1.91892 39.629 1.93842 39.5578 1.97636C39.4865 2.01429 39.4262 2.06941 39.3828 2.13651C39.3013 2.29626 39.2663 2.39896 39.3013 2.49025L39.7319 5.50278C39.754 5.64946 39.8234 5.78538 39.9298 5.89074ZM46.6924 2.46743C46.6525 2.328 46.5808 2.19925 46.4829 2.09086C46.4293 2.02739 46.3615 1.97688 46.2848 1.94324C46.2081 1.9096 46.1245 1.89373 46.0406 1.89687H43.8989C43.8191 1.89465 43.7402 1.91362 43.6705 1.95179C43.6009 1.98996 43.5431 2.04591 43.5032 2.11368C43.4257 2.21492 43.3922 2.34208 43.4101 2.46743L43.8407 5.47995C43.8677 5.62509 43.9363 5.75967 44.0386 5.86792C44.0955 5.93038 44.1656 5.98005 44.2439 6.01353C44.3223 6.04701 44.407 6.06351 44.4925 6.0619H46.6342C46.7138 6.06294 46.7922 6.04346 46.8616 6.0054C46.9311 5.96735 46.9892 5.91208 47.03 5.84511C47.0705 5.79405 47.0987 5.73474 47.1129 5.67156C47.127 5.60838 47.1265 5.54292 47.1114 5.47995L46.6924 2.46743ZM38.0558 7.03186L37.8463 5.54841H27.522C27.3599 5.55717 27.2031 5.60841 27.068 5.69676C26.9823 5.74259 26.9077 5.80611 26.8494 5.88294C26.7912 5.95978 26.7506 6.04809 26.7306 6.14179L25.8692 8.97171C25.8348 9.04244 25.8231 9.12179 25.8355 9.19919C25.848 9.27659 25.8841 9.34844 25.939 9.40536C26.0372 9.49581 26.1653 9.54854 26.2999 9.55371H38.8474L35.7628 19.6639H23.2503C23.0889 19.6675 22.9318 19.7149 22.7964 19.8008C22.6318 19.9033 22.5115 20.0618 22.4588 20.2459L21.5858 23.0758C21.5573 23.1484 21.5499 23.2273 21.5642 23.3038C21.5787 23.3804 21.6143 23.4515 21.6673 23.5094C21.7624 23.6059 21.8915 23.6631 22.0281 23.6692H38.4632C38.6332 23.6548 38.797 23.6 38.9404 23.5094C39.1123 23.4148 39.2412 23.2599 39.3013 23.0758L44.0269 7.60241H38.7076C38.6232 7.60404 38.5394 7.58868 38.4614 7.55727C38.3833 7.52587 38.3126 7.47908 38.2537 7.41982C38.1575 7.31634 38.0894 7.19076 38.0558 7.05468V7.03186Z" fill="white"/>
</g>
<defs>
<clipPath id="clip0_1158_13216">
<rect width="55" height="30" fill="white" transform="translate(0.333008 0.84668)"/>
</clipPath>
</defs>
</svg>
