<svg width="53" height="21" viewBox="0 0 53 21" fill="none" xmlns="http://www.w3.org/2000/svg">
<g id="Logo" clip-path="url(#clip0_1158_13240)">
<path id="Vector" d="M12.6761 0.84668C10.6454 0.84668 8.69788 1.65338 7.26194 3.08932L2.57565 7.77561C1.13971 9.21155 0.333008 11.1591 0.333008 13.1898C0.333008 17.4186 3.7611 20.8467 7.98987 20.8467C10.0206 20.8467 11.9681 20.0399 13.4041 18.604L16.6456 15.3625C16.6456 15.3624 16.6457 15.3625 16.6456 15.3625L26.0903 5.91775C26.7761 5.23195 27.7063 4.84668 28.6761 4.84668C30.2999 4.84668 31.6765 5.90495 32.1537 7.36939L35.1345 4.38865C33.7747 2.25891 31.3903 0.84668 28.6761 0.84668C26.6454 0.84668 24.6979 1.65338 23.2619 3.08932L10.5757 15.7756C9.88988 16.4614 8.95974 16.8467 7.98987 16.8467C5.97023 16.8467 4.33301 15.2095 4.33301 13.1898C4.33301 12.2199 4.71828 11.2898 5.40407 10.604L10.0903 5.91775C10.7761 5.23195 11.7063 4.84668 12.6761 4.84668C14.2999 4.84668 15.6765 5.905 16.1537 7.36949L19.1345 4.38873C17.7747 2.25895 15.3904 0.84668 12.6761 0.84668Z" fill="#394149"/>
<path id="Vector_2" d="M26.5761 15.7756C25.8903 16.4614 24.9602 16.8467 23.9903 16.8467C22.3668 16.8467 20.9903 15.7887 20.5129 14.3245L17.5322 17.3051C18.8921 19.4346 21.2763 20.8467 23.9903 20.8467C26.021 20.8467 27.9686 20.0399 29.4045 18.604L42.0908 5.91775C42.7766 5.23195 43.7067 4.84668 44.6766 4.84668C46.6962 4.84668 48.3334 6.48391 48.3334 8.50355C48.3334 9.47341 47.9482 10.4035 47.2624 11.0893L42.5761 15.7756C41.8903 16.4614 40.9602 16.8467 39.9903 16.8467C38.3666 16.8467 36.9901 15.7885 36.5128 14.3241L33.5321 17.3049C34.8919 19.4345 37.2762 20.8467 39.9903 20.8467C42.021 20.8467 43.9686 20.0399 45.4045 18.604L50.0908 13.9177C51.5267 12.4818 52.3334 10.5343 52.3334 8.50355C52.3334 4.27477 48.9054 0.84668 44.6766 0.84668C42.6458 0.84668 40.6983 1.65338 39.2624 3.08932L26.5761 15.7756Z" fill="#394149"/>
</g>
<defs>
<clipPath id="clip0_1158_13240">
<rect width="52" height="20" fill="white" transform="translate(0.333008 0.84668)"/>
</clipPath>
</defs>
</svg>
