<?xml version="1.0" encoding="UTF-8"?><svg id="miSci_dots" xmlns="http://www.w3.org/2000/svg" viewBox="0 0 295.2 309.6"><defs><style>.cls-1{fill:#fff;}.cls-2{opacity:.5;}.cls-3{fill:#f5841f;}</style></defs><g><path class="cls-1" d="M102.01,259.01v7.96h-3.25v-7.54c0-2.47-1.14-3.67-3.12-3.67-2.13,0-3.61,1.4-3.61,4.16v7.04h-3.25v-7.54c0-2.47-1.14-3.67-3.12-3.67-2.16,0-3.61,1.4-3.61,4.16v7.04h-3.25v-13.88h3.09v1.77c1.04-1.25,2.65-1.92,4.55-1.92,2.03,0,3.72,.75,4.68,2.31,1.12-1.43,2.99-2.31,5.2-2.31,3.35,0,5.69,1.9,5.69,6.08Z"/><path class="cls-1" d="M117.66,253.08v13.88h-3.09v-1.77c-1.04,1.27-2.68,1.95-4.47,1.95-3.56,0-5.98-1.95-5.98-6.13v-7.93h3.25v7.49c0,2.52,1.2,3.72,3.25,3.72,2.26,0,3.8-1.4,3.8-4.19v-7.02h3.25Z"/><path class="cls-1" d="M119.04,265.58l1.25-2.47c1.22,.81,3.09,1.38,4.84,1.38,2.05,0,2.91-.57,2.91-1.54,0-2.65-8.58-.16-8.58-5.69,0-2.63,2.37-4.34,6.11-4.34,1.85,0,3.95,.44,5.2,1.2l-1.25,2.47c-1.33-.78-2.65-1.04-3.98-1.04-1.98,0-2.91,.65-2.91,1.56,0,2.81,8.58,.31,8.58,5.75,0,2.6-2.39,4.29-6.29,4.29-2.31,0-4.63-.68-5.88-1.56Z"/><path class="cls-1" d="M146.37,261.06h-10.89c.39,2.03,2.08,3.33,4.5,3.33,1.56,0,2.78-.49,3.77-1.51l1.74,2c-1.25,1.48-3.2,2.26-5.59,2.26-4.65,0-7.67-2.99-7.67-7.12s3.04-7.1,7.18-7.1,7.02,2.83,7.02,7.18c0,.26-.03,.65-.05,.96Zm-10.92-2.16h7.88c-.26-2-1.79-3.38-3.93-3.38s-3.64,1.35-3.95,3.38Z"/><path class="cls-1" d="M161.68,253.08v13.88h-3.09v-1.77c-1.04,1.27-2.68,1.95-4.47,1.95-3.56,0-5.98-1.95-5.98-6.13v-7.93h3.25v7.49c0,2.52,1.2,3.72,3.25,3.72,2.26,0,3.8-1.4,3.8-4.19v-7.02h3.25Z"/><path class="cls-1" d="M187.86,259.01v7.96h-3.25v-7.54c0-2.47-1.14-3.67-3.12-3.67-2.13,0-3.61,1.4-3.61,4.16v7.04h-3.25v-7.54c0-2.47-1.14-3.67-3.12-3.67-2.16,0-3.61,1.4-3.61,4.16v7.04h-3.25v-13.88h3.09v1.77c1.04-1.25,2.65-1.92,4.55-1.92,2.03,0,3.72,.75,4.68,2.31,1.12-1.43,2.99-2.31,5.2-2.31,3.35,0,5.69,1.9,5.69,6.08Z"/><path class="cls-1" d="M195.45,260.02c0-4.16,3.12-7.1,7.38-7.1s7.41,2.94,7.41,7.1-3.09,7.12-7.41,7.12-7.38-2.96-7.38-7.12Zm11.52,0c0-2.65-1.77-4.34-4.13-4.34s-4.11,1.69-4.11,4.34,1.77,4.34,4.11,4.34,4.13-1.69,4.13-4.34Z"/><path class="cls-1" d="M215.65,252.35v.83h3.82v2.6h-3.72v11.18h-3.25v-11.18h-2.29v-2.6h2.29v-.88c0-2.91,1.74-4.81,4.97-4.81,1.12,0,2.21,.23,2.94,.75l-.91,2.45c-.49-.34-1.12-.57-1.79-.57-1.35,0-2.05,.75-2.05,2.24Z"/><path class="cls-1" d="M8.93,277.29c0-1.09,.88-1.95,2.08-1.95s2.08,.81,2.08,1.87c0,1.14-.86,2.03-2.08,2.03s-2.08-.86-2.08-1.95Zm.44,4.24h3.25v13.88h-3.25v-13.88Z"/><path class="cls-1" d="M29.26,287.46v7.96h-3.25v-7.54c0-2.47-1.22-3.67-3.3-3.67-2.31,0-3.87,1.4-3.87,4.19v7.02h-3.25v-13.88h3.09v1.79c1.07-1.27,2.76-1.95,4.78-1.95,3.33,0,5.8,1.9,5.8,6.08Z"/><path class="cls-1" d="M44.47,287.46v7.96h-3.25v-7.54c0-2.47-1.22-3.67-3.3-3.67-2.31,0-3.87,1.4-3.87,4.19v7.02h-3.25v-13.88h3.09v1.79c1.07-1.27,2.76-1.95,4.78-1.95,3.33,0,5.8,1.9,5.8,6.08Z"/><path class="cls-1" d="M45.9,288.47c0-4.16,3.12-7.1,7.38-7.1s7.41,2.94,7.41,7.1-3.09,7.12-7.41,7.12-7.38-2.96-7.38-7.12Zm11.52,0c0-2.65-1.77-4.34-4.13-4.34s-4.11,1.69-4.11,4.34,1.77,4.34,4.11,4.34,4.13-1.69,4.13-4.34Z"/><path class="cls-1" d="M75.13,281.53l-5.95,13.88h-3.35l-5.95-13.88h3.38l4.32,10.3,4.45-10.3h3.12Z"/><path class="cls-1" d="M87.22,287.28v8.14h-3.07v-1.69c-.78,1.2-2.29,1.87-4.37,1.87-3.17,0-5.17-1.74-5.17-4.16s1.56-4.13,5.77-4.13h3.59v-.21c0-1.9-1.14-3.02-3.46-3.02-1.56,0-3.17,.52-4.21,1.38l-1.27-2.37c1.48-1.14,3.64-1.71,5.88-1.71,4,0,6.32,1.9,6.32,5.9Zm-3.25,3.8v-1.61h-3.35c-2.21,0-2.81,.83-2.81,1.85,0,1.17,.99,1.92,2.65,1.92s2.96-.73,3.51-2.16Z"/><path class="cls-1" d="M98.42,294.66c-.78,.62-1.95,.94-3.12,.94-3.04,0-4.78-1.61-4.78-4.68v-6.68h-2.29v-2.6h2.29v-3.17h3.25v3.17h3.72v2.6h-3.72v6.6c0,1.35,.68,2.08,1.92,2.08,.68,0,1.33-.18,1.82-.57l.91,2.31Z"/><path class="cls-1" d="M99.36,277.29c0-1.09,.88-1.95,2.08-1.95s2.08,.81,2.08,1.87c0,1.14-.86,2.03-2.08,2.03s-2.08-.86-2.08-1.95Zm.44,4.24h3.25v13.88h-3.25v-13.88Z"/><path class="cls-1" d="M104.87,288.47c0-4.16,3.12-7.1,7.38-7.1s7.41,2.94,7.41,7.1-3.09,7.12-7.41,7.12-7.38-2.96-7.38-7.12Zm11.52,0c0-2.65-1.77-4.34-4.13-4.34s-4.11,1.69-4.11,4.34,1.77,4.34,4.11,4.34,4.13-1.69,4.13-4.34Z"/><path class="cls-1" d="M135.16,287.46v7.96h-3.25v-7.54c0-2.47-1.22-3.67-3.3-3.67-2.31,0-3.87,1.4-3.87,4.19v7.02h-3.25v-13.88h3.09v1.79c1.07-1.27,2.76-1.95,4.78-1.95,3.33,0,5.8,1.9,5.8,6.08Z"/><path class="cls-1" d="M155.49,287.28v8.14h-3.07v-1.69c-.78,1.2-2.29,1.87-4.37,1.87-3.17,0-5.17-1.74-5.17-4.16s1.56-4.13,5.77-4.13h3.59v-.21c0-1.9-1.14-3.02-3.46-3.02-1.56,0-3.17,.52-4.21,1.38l-1.27-2.37c1.48-1.14,3.64-1.71,5.88-1.71,4,0,6.32,1.9,6.32,5.9Zm-3.25,3.8v-1.61h-3.35c-2.21,0-2.81,.83-2.81,1.85,0,1.17,.99,1.92,2.65,1.92s2.96-.73,3.51-2.16Z"/><path class="cls-1" d="M172.03,287.46v7.96h-3.25v-7.54c0-2.47-1.22-3.67-3.3-3.67-2.31,0-3.88,1.4-3.88,4.19v7.02h-3.25v-13.88h3.09v1.79c1.07-1.27,2.76-1.95,4.78-1.95,3.33,0,5.8,1.9,5.8,6.08Z"/><path class="cls-1" d="M188.59,276.12v19.29h-3.12v-1.79c-1.09,1.33-2.7,1.97-4.6,1.97-4.03,0-7.02-2.81-7.02-7.12s2.99-7.1,7.02-7.1c1.79,0,3.38,.6,4.47,1.87v-7.12h3.25Zm-3.2,12.35c0-2.65-1.79-4.34-4.13-4.34s-4.13,1.69-4.13,4.34,1.79,4.34,4.13,4.34,4.13-1.69,4.13-4.34Z"/><path class="cls-1" d="M195.84,294.04l1.25-2.47c1.22,.81,3.09,1.38,4.84,1.38,2.05,0,2.91-.57,2.91-1.54,0-2.65-8.58-.16-8.58-5.69,0-2.63,2.37-4.34,6.11-4.34,1.85,0,3.95,.44,5.2,1.2l-1.25,2.47c-1.33-.78-2.65-1.04-3.98-1.04-1.98,0-2.91,.65-2.91,1.56,0,2.81,8.58,.31,8.58,5.75,0,2.6-2.39,4.29-6.29,4.29-2.31,0-4.63-.68-5.88-1.56Z"/><path class="cls-1" d="M208.63,288.47c0-4.16,3.12-7.1,7.51-7.1,2.7,0,4.86,1.12,5.93,3.22l-2.5,1.46c-.83-1.33-2.08-1.92-3.46-1.92-2.39,0-4.21,1.66-4.21,4.34s1.82,4.34,4.21,4.34c1.38,0,2.63-.6,3.46-1.92l2.5,1.46c-1.07,2.08-3.22,3.25-5.93,3.25-4.39,0-7.51-2.96-7.51-7.12Z"/><path class="cls-1" d="M223.14,277.29c0-1.09,.88-1.95,2.08-1.95s2.08,.81,2.08,1.87c0,1.14-.86,2.03-2.08,2.03s-2.08-.86-2.08-1.95Zm.44,4.24h3.25v13.88h-3.25v-13.88Z"/><path class="cls-1" d="M242.8,289.51h-10.89c.39,2.03,2.08,3.33,4.5,3.33,1.56,0,2.78-.49,3.77-1.51l1.74,2c-1.25,1.48-3.2,2.26-5.59,2.26-4.65,0-7.67-2.99-7.67-7.12s3.04-7.1,7.18-7.1,7.02,2.83,7.02,7.18c0,.26-.03,.65-.05,.96Zm-10.92-2.16h7.88c-.26-2-1.79-3.38-3.93-3.38s-3.64,1.35-3.95,3.38Z"/><path class="cls-1" d="M258.35,287.46v7.96h-3.25v-7.54c0-2.47-1.22-3.67-3.3-3.67-2.31,0-3.88,1.4-3.88,4.19v7.02h-3.25v-13.88h3.09v1.79c1.07-1.27,2.76-1.95,4.78-1.95,3.33,0,5.8,1.9,5.8,6.08Z"/><path class="cls-1" d="M260.17,288.47c0-4.16,3.12-7.1,7.51-7.1,2.7,0,4.86,1.12,5.93,3.22l-2.5,1.46c-.83-1.33-2.08-1.92-3.46-1.92-2.39,0-4.21,1.66-4.21,4.34s1.82,4.34,4.21,4.34c1.38,0,2.63-.6,3.46-1.92l2.5,1.46c-1.07,2.08-3.22,3.25-5.93,3.25-4.39,0-7.51-2.96-7.51-7.12Z"/><path class="cls-1" d="M287.91,289.51h-10.89c.39,2.03,2.08,3.33,4.5,3.33,1.56,0,2.78-.49,3.77-1.51l1.74,2c-1.25,1.48-3.2,2.26-5.59,2.26-4.65,0-7.67-2.99-7.67-7.12s3.04-7.1,7.18-7.1,7.02,2.83,7.02,7.18c0,.26-.03,.65-.05,.96Zm-10.92-2.16h7.88c-.26-2-1.79-3.38-3.93-3.38s-3.64,1.35-3.95,3.38Z"/></g><g class="cls-2"><g><path class="cls-1" d="M106.14,133.62c0-4.7-.03-9.41,.01-14.11,.03-3.34,.11-6.69,.24-10.03,.11-2.85,.27-5.7,.48-8.55,.27-3.62,.54-7.24,.97-10.85,.54-4.52,1.11-9.05,1.91-13.53,1.24-6.89,2.53-13.78,4.1-20.6,1.67-7.24,4.03-14.29,6.92-21.14,2.06-4.88,4.33-9.67,7.4-14.01,1.66-2.34,3.37-4.68,5.36-6.72,2.73-2.79,5.88-5.05,9.75-6.16,3.8-1.1,7.45-.73,11,.85,4.9,2.19,8.46,5.93,11.55,10.2,4.99,6.89,8.52,14.53,11.2,22.54,2.08,6.21,3.87,12.54,5.47,18.89,1.18,4.7,1.9,9.52,2.74,14.3,.63,3.59,1.18,7.2,1.66,10.82,.34,2.58,.51,5.18,.75,7.77,.32,3.54,.66,7.07,.95,10.61,.14,1.66,.22,3.33,.24,4.99,.1,7.06,.24,14.13,.22,21.19,0,3.97-.25,7.94-.47,11.9-.17,3.12-.4,6.23-.72,9.34-.41,3.91-.9,7.81-1.42,11.71-.52,3.93-.99,7.87-1.72,11.77-.92,4.92-1.91,9.83-3.17,14.67-1.31,5.06-2.81,10.08-4.5,15.04-2.45,7.21-5.52,14.14-9.76,20.51-2,3-4.21,5.83-6.88,8.26-2.82,2.57-6.03,4.54-9.82,5.27-4.72,.9-9-.36-12.93-3.04-4.43-3.02-7.63-7.13-10.45-11.58-3.34-5.25-5.9-10.88-8.11-16.68-2.42-6.36-4.39-12.87-5.88-19.5-1.12-4.96-2.11-9.95-3.02-14.95-.75-4.09-1.35-8.2-1.91-12.32-.36-2.66-.55-5.34-.74-8.01-.35-4.85-.64-9.71-.97-14.57-.1-1.42-.23-2.84-.34-4.26-.04,0-.09,0-.13-.01Zm42.26,93.49c3.98,.14,7.56-1.85,10.76-4.55,4.17-3.53,7.3-7.96,9.89-12.74,3.09-5.69,5.52-11.67,7.51-17.83,2.55-7.9,4.53-15.94,5.84-24.14,.86-5.39,1.68-10.78,2.37-16.19,.46-3.6,.74-7.23,.97-10.85,.25-3.88,.49-7.78,.47-11.67-.05-7.29-.26-14.58-.46-21.87-.07-2.41-.24-4.82-.48-7.23-.43-4.47-.87-8.94-1.45-13.39-.55-4.24-1.03-8.51-1.97-12.67-1.54-6.82-3.27-13.6-5.2-20.31-1.94-6.74-4.75-13.17-8.24-19.27-2.77-4.85-6.02-9.33-10.54-12.72-2.92-2.2-6.22-3.57-9.88-3.61-3.02-.04-5.83,1.01-8.42,2.61-4.06,2.49-7.05,6.03-9.7,9.89-4.72,6.88-7.88,14.52-10.45,22.38-2.58,7.88-4.59,15.93-5.87,24.14-.71,4.57-1.49,9.14-2.12,13.72-.43,3.16-.73,6.35-.96,9.53-.31,4.19-.69,8.39-.7,12.58-.02,8.77-.36,17.55,.43,26.31,.36,4.01,.57,8.04,.99,12.05,.38,3.71,.83,7.42,1.44,11.11,.88,5.37,1.73,10.76,2.94,16.06,2.07,9.04,4.75,17.92,8.71,26.33,3.11,6.6,6.72,12.91,12.41,17.74,3.27,2.77,6.88,4.64,11.71,4.61Z"/><path class="cls-1" d="M159.48,160.88c-5.3,0-10.59,.03-15.89,0-3.77-.03-7.53-.1-11.3-.22-3.21-.1-6.42-.24-9.62-.43-4.08-.24-8.16-.48-12.22-.87-5.09-.48-10.19-.99-15.23-1.71-7.76-1.11-15.52-2.25-23.19-3.66-8.15-1.49-16.09-3.59-23.81-6.17-5.5-1.84-10.89-3.86-15.77-6.6-2.63-1.48-5.27-3-7.57-4.78-3.14-2.43-5.69-5.25-6.94-8.69-1.24-3.39-.83-6.65,.96-9.81,2.46-4.37,6.68-7.55,11.48-10.3,7.75-4.45,16.36-7.6,25.38-9.99,7-1.86,14.12-3.45,21.28-4.88,5.29-1.06,10.72-1.69,16.1-2.44,4.04-.56,8.11-1.05,12.18-1.48,2.9-.3,5.83-.46,8.75-.67,3.98-.29,7.96-.59,11.95-.84,1.87-.12,3.75-.2,5.62-.22,7.95-.09,15.91-.21,23.86-.2,4.47,0,8.94,.22,13.41,.42,3.51,.15,7.02,.36,10.51,.64,4.4,.36,8.8,.8,13.19,1.26,4.42,.47,8.86,.89,13.25,1.53,5.54,.82,11.07,1.71,16.52,2.82,5.7,1.17,11.36,2.51,16.93,4.01,8.12,2.18,15.93,4.93,23.1,8.71,3.38,1.78,6.57,3.75,9.3,6.13,2.89,2.52,5.12,5.38,5.93,8.75,1.02,4.21-.41,8.02-3.43,11.53-3.4,3.95-8.03,6.8-13.04,9.32-5.91,2.97-12.25,5.26-18.78,7.23-7.16,2.16-14.49,3.91-21.96,5.25-5.58,.99-11.2,1.88-16.83,2.7-4.6,.67-9.24,1.21-13.88,1.7-2.99,.32-6.01,.49-9.02,.66-5.47,.31-10.94,.57-16.41,.87-1.6,.09-3.2,.2-4.8,.3,0,.04,0,.08-.01,.12Zm105.28-37.69c.16-3.55-2.08-6.75-5.12-9.59-3.97-3.72-8.96-6.51-14.34-8.82-6.41-2.76-13.14-4.92-20.08-6.7-8.9-2.27-17.95-4.04-27.19-5.21-6.07-.76-12.14-1.5-18.23-2.11-4.05-.41-8.14-.66-12.22-.86-4.37-.22-8.76-.44-13.14-.42-8.21,.04-16.42,.23-24.62,.41-2.72,.06-5.43,.22-8.14,.42-5.03,.39-10.07,.78-15.08,1.29-4.77,.49-9.58,.92-14.27,1.76-7.67,1.37-15.31,2.92-22.87,4.64-7.59,1.73-14.83,4.23-21.7,7.35-5.46,2.47-10.5,5.37-14.33,9.4-2.47,2.61-4.02,5.55-4.07,8.81-.05,2.7,1.14,5.2,2.93,7.51,2.8,3.62,6.79,6.29,11.13,8.65,7.75,4.21,16.35,7.02,25.21,9.32,8.87,2.3,17.93,4.09,27.18,5.24,5.15,.64,10.29,1.33,15.45,1.89,3.56,.39,7.15,.65,10.73,.86,4.72,.28,9.44,.62,14.16,.62,9.87,.01,19.76,.32,29.62-.38,4.52-.32,9.05-.51,13.57-.88,4.18-.34,8.36-.74,12.51-1.28,6.05-.79,12.11-1.54,18.08-2.63,10.18-1.85,20.18-4.23,29.65-7.77,7.44-2.78,14.54-5.99,19.98-11.07,3.12-2.92,5.23-6.14,5.19-10.45Z"/></g><g><path class="cls-1" d="M113.91,101.43c3.77-3.28,7.53-6.58,11.33-9.84,2.7-2.31,5.44-4.59,8.2-6.83,2.35-1.91,4.74-3.79,7.15-5.63,3.07-2.33,6.14-4.68,9.3-6.89,3.96-2.78,7.93-5.54,12.02-8.1,6.28-3.94,12.59-7.85,19.02-11.5,6.82-3.88,13.91-7.15,21.17-9.91,5.17-1.97,10.39-3.72,15.74-4.6,2.88-.47,5.8-.91,8.65-.94,3.9-.04,7.63,.59,10.87,2.51,3.19,1.89,5.11,4.7,6,8.28,1.22,4.95,.38,10.05-1.17,15.19-2.49,8.29-6.48,16.09-11.28,23.55-3.72,5.79-7.71,11.45-11.84,17.01-3.05,4.1-6.48,7.97-9.81,11.89-2.5,2.95-5.06,5.85-7.67,8.7-1.86,2.04-3.84,3.97-5.78,5.95-2.64,2.69-5.28,5.39-7.94,8.06-1.25,1.25-2.54,2.48-3.86,3.65-5.61,5-11.19,10.02-16.87,14.94-3.19,2.76-6.52,5.36-9.84,7.98-2.6,2.05-5.24,4.07-7.93,6.01-3.38,2.44-6.82,4.82-10.26,7.18-3.47,2.38-6.92,4.8-10.49,7.01-4.5,2.79-9.05,5.52-13.7,8.03-4.86,2.62-9.8,5.07-14.8,7.35-7.27,3.32-14.71,6.01-22.39,7.49-3.62,.7-7.24,1.13-10.81,.96-3.78-.18-7.31-1.04-10.19-3.18-3.6-2.67-5.17-6.54-5.41-11.16-.27-5.2,1.09-10.31,2.94-15.38,2.18-5.99,5.15-11.71,8.46-17.3,3.63-6.13,7.66-12.04,12.08-17.72,3.3-4.24,6.7-8.41,10.16-12.54,2.83-3.37,5.76-6.67,8.73-9.93,1.91-2.1,3.95-4.11,5.98-6.11,3.68-3.63,7.4-7.23,11.1-10.84,1.08-1.06,2.14-2.14,3.22-3.21-.02-.03-.05-.07-.07-.1Zm-49.36,94.75c2.3,2.88,6.08,4,10.18,4.34,5.37,.45,10.82-.45,16.23-1.97,6.45-1.81,12.72-4.28,18.87-7.19,7.89-3.73,15.55-7.95,22.92-12.76,4.84-3.16,9.67-6.35,14.43-9.64,3.17-2.19,6.25-4.53,9.29-6.89,3.27-2.54,6.54-5.08,9.65-7.81,5.82-5.12,11.54-10.35,17.27-15.58,1.89-1.73,3.72-3.53,5.51-5.37,3.32-3.42,6.64-6.84,9.87-10.35,3.07-3.34,6.2-6.66,8.97-10.21,4.54-5.83,8.92-11.77,13.14-17.81,4.23-6.06,7.68-12.5,10.46-19.2,2.21-5.32,3.83-10.71,3.81-16.24-.01-3.58-.92-6.83-3.1-9.42-1.81-2.14-4.36-3.37-7.21-4.07-4.46-1.1-9.12-.72-13.82,.12-8.39,1.5-16.44,4.63-24.31,8.31-7.89,3.7-15.57,7.9-22.94,12.73-4.1,2.69-8.24,5.33-12.3,8.09-2.8,1.9-5.53,3.92-8.23,5.97-3.55,2.71-7.15,5.37-10.52,8.29-7.05,6.11-14.3,11.99-20.85,18.65-3,3.05-6.1,6.01-9.07,9.09-2.75,2.86-5.45,5.76-8.04,8.75-3.77,4.36-7.58,8.71-11.1,13.26-6,7.75-11.5,15.82-15.84,24.46-3.41,6.78-6.28,13.7-6.7,21.05-.24,4.22,.45,8.05,3.42,11.4Z"/><path class="cls-1" d="M181.22,101.53c1.07,1.07,2.13,2.15,3.22,3.21,3.7,3.62,7.42,7.21,11.1,10.84,2.03,2,4.07,4.01,5.98,6.11,2.97,3.26,5.9,6.56,8.73,9.93,3.46,4.13,6.86,8.3,10.16,12.54,4.42,5.67,8.45,11.59,12.08,17.72,3.31,5.59,6.27,11.31,8.46,17.3,1.85,5.08,3.21,10.18,2.94,15.38-.24,4.62-1.82,8.49-5.41,11.16-2.88,2.14-6.42,3-10.19,3.18-3.57,.17-7.19-.26-10.81-.96-7.69-1.48-15.12-4.17-22.39-7.49-4.99-2.28-9.94-4.73-14.8-7.35-4.65-2.5-9.19-5.24-13.7-8.03-3.57-2.21-7.02-4.63-10.49-7.01-3.44-2.36-6.87-4.74-10.26-7.18-2.69-1.94-5.33-3.95-7.93-6.01-3.31-2.61-6.65-5.22-9.84-7.98-5.68-4.92-11.26-9.94-16.87-14.94-1.32-1.18-2.61-2.4-3.86-3.65-2.67-2.67-5.3-5.37-7.94-8.06-1.94-1.97-3.92-3.91-5.78-5.95-2.61-2.86-5.17-5.76-7.67-8.7-3.33-3.92-6.76-7.78-9.81-11.89-4.13-5.55-8.11-11.22-11.84-17.01-4.8-7.46-8.79-15.26-11.28-23.55-1.54-5.13-2.39-10.24-1.17-15.19,.88-3.58,2.81-6.39,6-8.28,3.24-1.92,6.97-2.55,10.87-2.51,2.85,.03,5.77,.47,8.65,.94,5.35,.87,10.57,2.63,15.74,4.6,7.26,2.76,14.34,6.04,21.17,9.91,6.43,3.65,12.74,7.56,19.02,11.5,4.08,2.56,8.06,5.32,12.02,8.1,3.15,2.21,6.22,4.56,9.3,6.89,2.41,1.83,4.8,3.71,7.15,5.63,2.76,2.24,5.5,4.52,8.2,6.83,3.8,3.25,7.55,6.55,11.33,9.84-.02,.03-.05,.07-.07,.1Zm52.85,83.25c-.42-7.35-3.29-14.27-6.7-21.05-4.34-8.64-9.84-16.7-15.84-24.46-3.52-4.55-7.32-8.9-11.1-13.26-2.59-2.99-5.29-5.9-8.04-8.75-2.97-3.08-6.07-6.04-9.07-9.09-6.55-6.66-13.8-12.55-20.85-18.65-3.37-2.92-6.97-5.58-10.52-8.29-2.7-2.06-5.43-4.07-8.23-5.97-4.06-2.76-8.19-5.4-12.3-8.09-7.37-4.83-15.05-9.04-22.94-12.73-7.88-3.69-15.93-6.81-24.31-8.31-4.7-.84-9.36-1.22-13.82-.12-2.85,.7-5.4,1.93-7.21,4.07-2.18,2.59-3.09,5.85-3.1,9.42-.02,5.53,1.6,10.92,3.81,16.24,2.78,6.7,6.23,13.14,10.46,19.2,4.21,6.03,8.6,11.98,13.14,17.81,2.77,3.56,5.9,6.88,8.97,10.21,3.22,3.51,6.54,6.93,9.87,10.35,1.79,1.84,3.61,3.64,5.51,5.37,5.73,5.22,11.45,10.46,17.27,15.58,3.11,2.73,6.38,5.27,9.65,7.81,3.05,2.37,6.13,4.7,9.29,6.89,4.76,3.29,9.59,6.48,14.43,9.64,7.37,4.81,15.03,9.03,22.92,12.76,6.16,2.91,12.43,5.39,18.87,7.19,5.41,1.52,10.86,2.43,16.23,1.97,4.1-.35,7.88-1.47,10.18-4.34,2.96-3.35,3.65-7.18,3.42-11.4Z"/></g></g><g><path class="cls-1" d="M25.52,113.44c6.52-.43,12.94-.84,19.49-1.27v8.59c1.96-2.39,4.17-4.35,6.73-5.93,2.78-1.72,5.79-2.71,9.08-2.79,2.11-.05,4.18,.02,6.2,.82,2.89,1.13,4.86,3.24,6.53,5.72,.39,.58,.71,1.21,.65,1.42,1.12-.9,2.32-1.72,3.35-2.72,3.21-3.1,6.96-4.87,11.44-5.28,3.4-.31,6.63-.03,9.69,1.53,3.28,1.67,4.87,4.53,5.43,8,.26,1.59,.25,3.23,.25,4.85,.02,13.19,.01,26.37,.01,39.56,0,.45,0,.9,0,1.42h-19.61v-1.38c0-13.19,.02-26.37-.03-39.56,0-1.15-.27-2.43-.82-3.42-1.03-1.85-3.61-1.41-5.19-.25-2.06,1.51-2.94,3.76-3.27,6.13-.41,2.89-.67,5.83-.7,8.75-.08,9.46-.03,18.92-.03,28.38v1.33h-19.84c0-.45,0-.89,0-1.33,0-13.26,.02-26.52-.03-39.78,0-1.04-.27-2.18-.73-3.11-.82-1.64-3.34-1.64-4.99-.25-2.04,1.73-3,4.03-3.34,6.53-.41,3.01-.67,6.06-.7,9.09-.09,9.19-.03,18.39-.03,27.59v1.29H25.52v-53.93Z"/><path class="cls-1" d="M148.93,141.17c-1.15,3.59-1.59,7.11-1.13,10.56,.77,5.82,3.47,8.96,9.49,10.44,3.72,.91,7.5,1,11.23,0,4.21-1.14,6.74-3.81,6.86-8.47,.1-3.98-2.23-6.33-5.13-8.41-3.61-2.6-7.76-4.08-11.85-5.68-5.46-2.13-10.34-5.15-14.18-9.61-2.73-3.16-4.39-6.88-4.91-11.06-.5-4.07-.39-8.06,1.12-11.96,1.29-3.33,3.49-5.93,6.18-8.16,3.41-2.82,7.42-4.43,11.73-5.15,3.45-.58,6.95-.92,10.46-.34,2.6,.43,5.25,.73,7.79,1.42,2.83,.78,5.36,2.27,7.43,4.4,2.6,2.66,4.16,5.9,4.78,9.55,.35,2.02,.44,4.09,.66,6.24-3.5,.65-6.77,1.26-10.01,1.87,.16-1.87,.4-3.7,.46-5.54,.11-3.16-.9-6-3.06-8.28-1.61-1.71-3.75-2.69-6.06-3.15-4.32-.86-8.63-1.02-12.91,.34-4.73,1.5-6.28,6.44-4.87,9.95,.76,1.91,2.21,3.25,3.85,4.42,2.91,2.08,6.2,3.37,9.55,4.53,5.83,2.04,11.44,4.52,16.35,8.29,4.9,3.76,8.51,8.5,9.43,14.76,1.18,8-.83,15.06-7.13,20.48-3.82,3.28-8.36,5.17-13.36,5.7-3.37,.36-6.79,.6-10.17,.43-4.77-.24-9.47-1.07-13.8-3.35-4.68-2.46-7.59-6.24-8.88-11.35-.73-2.89-.74-5.81-.66-8.75,.05-1.85,.15-1.85,2.12-2.25,2.48-.51,4.93-1.11,7.4-1.66,.35-.08,.72-.11,1.24-.19Z"/><path class="cls-1" d="M236.27,143.21c2.72,.82,5.28,1.57,7.82,2.39,.27,.09,.57,.58,.58,.9,.19,4.08-.19,8.11-1.86,11.88-1.77,4.02-4.87,6.74-8.94,8.36-3.38,1.34-6.9,1.8-10.53,1.86-4.54,.06-9-.2-13.32-1.73-7.26-2.57-11.56-7.77-13.47-15.11-1.1-4.23-1.34-8.55-1.1-12.87,.3-5.67,1.73-11.06,5.04-15.76,3.86-5.48,9.08-9.09,15.7-10.36,2.93-.56,5.95-.89,8.93-.89,3.43,0,6.87,.52,9.98,2.12,3.96,2.03,6.43,5.29,7.29,9.66,.3,1.53,.37,3.12,.45,4.69,.02,.34-.27,.89-.56,1.04-2.73,1.39-5.49,2.71-8.25,4.04-.09,.04-.22,0-.42,0,0-.96-.06-1.92,.01-2.87,.27-3.78,.09-7.47-1.89-10.86-1.46-2.5-5.57-3.62-8.68-2.23-2.72,1.21-4.03,3.52-5.01,6.03-1.18,3.03-1.78,6.23-1.86,9.5-.11,4.32-.36,8.64-.18,12.95,.18,4.23,.4,8.52,2.07,12.53,1.24,2.97,3.39,4.75,6.7,5.13,3.34,.39,6.34-.3,8.73-2.69,1.8-1.79,2.6-4.14,2.98-6.62,.5-3.27,.42-6.54-.2-9.79-.07-.36,0-.75,0-1.29Z"/><path class="cls-1" d="M112.91,113.69c6.54-.49,12.98-.97,19.47-1.45v55.14h-19.47v-53.68Z"/><path class="cls-1" d="M248.9,113.68c6.54-.48,12.98-.95,19.47-1.43v55.11h-19.47v-53.69Z"/><path class="cls-3" d="M134.17,96.64c.53,5.73-4.9,12.09-12.4,11.58-4.75-.32-11.27-4.68-10.67-12.67,.34-4.64,4.67-11.03,12.62-10.48,5.15,.36,10.88,5.2,10.45,11.56Z"/><path class="cls-3" d="M258.07,108.15c-5.7,.52-12.08-4.89-11.57-12.41,.32-4.73,4.66-11.26,12.68-10.66,4.62,.34,11.02,4.66,10.46,12.63-.36,5.14-5.19,10.87-11.58,10.44Z"/></g></svg>