<svg xmlns="http://www.w3.org/2000/svg" viewBox="0 0 24 24">
    <path fill="white" d="M22.46 6.012c-.77.343-1.597.574-2.465.68.888-.532 1.57-1.375 1.89-2.38-.83.492-1.75.85-2.725 1.042-.783-.834-1.897-1.354-3.13-1.354-2.37 0-4.292 1.92-4.292 4.29 0 .34.038.67.112.983-3.57-.18-6.733-1.89-8.84-4.483-.37.634-.582 1.37-.582 2.158 0 1.488.758 2.8 1.908 3.572-.703-.022-1.37-.215-1.95-.537v.054c0 2.08 1.48 3.814 3.44 4.206-.36.1-.74.15-1.13.15-.278 0-.548-.026-.81-.076.548 1.7 2.14 2.95 4.01 2.98-1.48 1.16-3.34 1.85-5.35 1.85-.35 0-.688-.02-1.02-.06 1.9 1.22 4.15 1.93 6.57 1.93 7.88 0 12.2-6.526 12.2-12.206 0-.186-.004-.37-.012-.554.838-.604 1.57-1.36 2.15-2.22z"/>
</svg>
