<svg width="348" height="259" viewBox="0 0 348 259" fill="none" xmlns="http://www.w3.org/2000/svg">
<g clip-path="url(#clip0_1167_10793)">
<path d="M-15.6602 3.26648C-15.6602 3.26648 51.172 -12.6934 102.377 30.5313C173.116 90.381 126.15 177.994 208.111 170.929C294.81 163.364 311.518 259.207 311.518 259.207H-15.6602V3.26648Z" fill="url(#paint0_linear_1167_10793)"/>
<path d="M49.5094 254.219C49.5094 254.219 30.9726 104.428 60.6481 95.7002C92.4848 86.3071 66.4668 254.219 66.4668 254.219H49.5094Z" fill="url(#paint1_linear_1167_10793)"/>
<path d="M61.3134 114.738C61.3134 114.738 57.4896 162.369 63.059 215.651" stroke="white" stroke-width="0.831245" stroke-miterlimit="10" stroke-linecap="round"/>
<path d="M25.4845 253.635C25.4014 253.635 21.0789 162.447 -15.6621 138.258V253.635H25.4845Z" fill="url(#paint2_linear_1167_10793)"/>
<path d="M-10.1758 180.57C-10.1758 180.57 1.71103 208.085 6.366 253.637" stroke="white" stroke-width="0.831245" stroke-miterlimit="10" stroke-linecap="round"/>
<path d="M149.592 253.638C149.592 253.638 158.07 205.425 173.615 209.249C191.32 213.572 159.899 253.638 159.899 253.638H149.592Z" fill="url(#paint3_linear_1167_10793)"/>
<path d="M53.8322 253.639C53.8322 253.639 49.4266 185.393 30.2248 158.461C30.2248 158.461 10.6074 196.366 35.3785 253.306L53.8322 253.639Z" fill="url(#paint4_linear_1167_10793)"/>
<path d="M174.03 121.386C172.866 120.472 172.7 118.892 173.614 117.728L175.858 114.902C176.773 113.738 177.937 113.157 179.017 113.988C179.017 113.988 181.095 116.066 182.508 115.401C184.088 114.653 187.163 111.245 188.66 108.834C189.74 107.088 186.332 104.512 186.332 104.512C185.168 103.597 185.584 102.517 186.498 101.436L188.743 98.6098C189.657 97.446 191.236 97.2798 192.4 98.1941C201.211 105.26 185.833 127.62 174.03 121.386Z" fill="#CFDBFF"/>
<path d="M360.228 240.336H288.076V253.636H360.228V240.336Z" fill="#8885F7"/>
<path d="M352.249 232.523H296.057V240.337H352.249V232.523Z" fill="#B4B3FC"/>
<path d="M304.617 219.805H201.127C199.714 219.805 198.716 218.475 199.049 217.145L219.913 140.504C220.661 137.595 223.321 135.6 226.313 135.6H329.804C331.217 135.6 332.214 136.93 331.882 138.26L311.017 214.9C310.186 217.81 307.609 219.805 304.617 219.805Z" fill="#8385FC"/>
<path d="M307.943 219.805H204.453C203.04 219.805 202.042 218.475 202.375 217.145L223.239 140.504C223.987 137.595 226.647 135.6 229.64 135.6H333.13C334.543 135.6 335.54 136.93 335.208 138.26L314.344 214.9C313.595 217.81 310.935 219.805 307.943 219.805Z" fill="url(#paint5_linear_1167_10793)"/>
<path d="M259.148 179.488L243.77 241.665C242.689 246.071 238.699 249.229 234.127 249.229H221.492C220.246 249.229 219.248 250.227 219.248 251.474C219.248 252.721 220.246 253.718 221.492 253.718H240.777H245.1H254.742C258.732 253.718 262.307 250.975 263.221 247.068L279.181 180.652C279.513 179.238 278.433 177.825 276.936 177.825H261.309C260.312 177.742 259.397 178.407 259.148 179.488Z" fill="url(#paint6_linear_1167_10793)"/>
<path d="M383.338 259.123H-15.6602V253.637H383.338C384.834 253.637 386.081 254.884 386.081 256.38C386.081 257.876 384.834 259.123 383.338 259.123Z" fill="#0B008B"/>
<path d="M11.8543 107.752C4.45617 109.747 0.133693 117.394 2.12868 124.709C3.04305 128.034 5.12117 130.777 7.78115 132.606V138.84L12.1036 134.518C14.348 135.1 16.7586 135.1 19.0861 134.435C26.4842 132.44 30.8067 124.792 28.8117 117.477C26.8998 110.079 19.2523 105.757 11.8543 107.752ZM11.1061 123.545C10.4411 123.712 9.77614 123.296 9.60989 122.714C9.44364 122.049 9.85926 121.384 10.4411 121.218C11.1061 121.052 11.7711 121.467 11.9374 122.132C12.1868 122.714 11.7711 123.379 11.1061 123.545ZM15.8442 122.299C15.1792 122.465 14.5142 122.049 14.348 121.467C14.1817 120.802 14.5142 120.137 15.1792 119.971C15.8442 119.805 16.5092 120.22 16.6755 120.885C16.8417 121.384 16.5092 122.049 15.8442 122.299ZM20.4992 120.969C19.8342 121.135 19.1692 120.719 19.003 120.137C18.8367 119.472 19.1692 118.807 19.8342 118.641C20.4992 118.475 21.1642 118.89 21.3305 119.555C21.5798 120.137 21.1642 120.802 20.4992 120.969Z" fill="white"/>
<path d="M165.967 40.3365L166.382 38.5908C167.38 34.2684 171.619 31.6084 175.942 32.6059C180.264 33.6034 182.924 37.8427 181.927 42.1652V42.0821C181.012 46.1552 179.1 48.3995 176.108 50.2283L174.612 51.1427C172.7 52.3064 171.37 54.2183 170.871 56.4626L170.123 59.6214" fill="#F0F0FF"/>
<path d="M169.711 61.451C168.713 61.2016 168.131 60.2041 168.298 59.2066L169.046 56.0479C169.628 53.3879 171.29 51.0604 173.618 49.6473L175.114 48.7329C177.525 47.2367 179.27 45.4911 180.101 41.8336C180.849 38.5917 178.771 35.2667 175.53 34.5186C172.288 33.7705 168.963 35.8486 168.215 39.0905L167.799 40.8361C167.55 41.8336 166.552 42.4155 165.555 42.2492C164.557 41.9998 163.975 41.0023 164.141 40.0048L164.557 38.2592C165.804 33.0224 171.041 29.6974 176.361 30.8611C181.598 32.108 184.923 37.2617 183.759 42.5817C182.844 46.7379 180.849 49.5642 177.109 51.8916L175.613 52.806C174.116 53.7204 173.036 55.2166 172.703 56.9622L171.955 60.121C171.706 61.0353 170.708 61.6172 169.711 61.451Z" fill="#CFDBFF"/>
<path d="M170.789 66.1895C170.54 67.2701 169.459 67.9351 168.379 67.6858C167.298 67.4364 166.633 66.3558 166.882 65.2751C167.132 64.1945 168.212 63.5295 169.293 63.7789C170.374 63.9452 171.039 65.0258 170.789 66.1895Z" fill="#CFDBFF"/>
<path d="M74.6957 46.3263C75.5269 48.9863 75.1113 50.9813 73.9475 52.9763L73.3657 54.0569C72.6175 55.3869 72.4513 56.9663 72.95 58.3794L73.5319 60.4575L71.6201 58.2963C71.2876 56.6338 71.4538 54.9713 72.2851 53.4751L72.8669 52.3944C73.7813 50.7319 74.1969 49.1526 73.4488 46.742C73.1163 45.6613 72.3682 44.8301 71.4538 44.3314C70.5394 43.8326 69.4588 43.6664 68.3782 43.9989C66.217 44.6638 64.9701 46.9082 65.6351 49.0694L65.9676 50.2332C66.1338 50.7319 65.9676 51.2307 65.6351 51.4801L64.8038 50.5657L64.4713 49.4019C63.6401 46.5757 65.2195 43.5832 68.0457 42.752C69.4588 42.3364 70.8719 42.5026 72.1188 43.1676C73.3657 43.8326 74.28 44.9132 74.6957 46.3263Z" fill="white"/>
<path d="M75.8598 45.908L75.9429 46.0742C76.691 48.7342 76.4417 50.9786 75.1117 53.5554L74.5298 54.6361C73.9479 55.7167 73.8648 56.8804 74.1973 58.0442L74.7792 60.1223C74.9454 60.7873 74.6129 61.4523 73.9479 61.7016C73.2829 61.8679 72.6179 61.5354 72.3686 60.8704L71.7867 58.7923C71.7036 58.626 71.7036 58.5429 71.7036 58.3767C71.3711 56.7142 71.5373 55.0517 72.3686 53.5554L72.9504 52.4748C73.8648 50.8123 74.2804 49.233 73.5323 46.8223C73.1998 45.7417 72.4517 44.9105 71.5373 44.4117C70.623 43.913 69.5423 43.7467 68.4617 44.0792C66.3005 44.7442 65.0536 46.9886 65.7186 49.1498L66.0511 50.3136C66.2174 50.8123 66.0511 51.3111 65.7186 51.5604C65.5524 51.6436 65.4692 51.7267 65.2199 51.8098C64.5549 51.9761 63.8899 51.6436 63.6405 50.9786L63.308 49.7317C62.3105 46.2405 64.3055 42.583 67.7136 41.5855C71.2048 40.5049 74.8623 42.4999 75.8598 45.908Z" fill="white"/>
<path d="M76.1083 63.9478C76.3577 64.6959 75.9421 65.444 75.194 65.6103C74.4459 65.8597 73.6977 65.444 73.5315 64.6959C73.2821 63.9478 73.6977 63.1997 74.4459 63.0334C75.1108 62.7841 75.9421 63.1997 76.1083 63.9478Z" fill="white"/>
<path d="M32.3869 77.3294L15.5957 72.7576L18.5882 61.7852L25.4875 69.5157L35.3793 66.357L32.3869 77.3294Z" fill="white"/>
<path d="M28.1461 59.8726L21.8287 58.127L20.748 62.3663L25.8186 68.185L33.2167 65.7744L34.3805 61.5351L28.1461 59.8726Z" fill="white"/>
<path d="M32.3423 62.9127L22.877 60.3418L22.7898 60.6627L32.2552 63.2335L32.3423 62.9127Z" fill="#A6ABFD"/>
<path d="M31.8443 64.6509L22.3789 62.0801L22.2918 62.4009L31.7571 64.9718L31.8443 64.6509Z" fill="#A6ABFD"/>
<path d="M15.5119 30.1964C15.5119 31.4433 14.5144 32.3576 13.3507 32.3576C12.1038 32.3576 11.1895 31.3601 11.1895 30.1964C11.1895 28.9495 12.1869 28.0352 13.3507 28.0352C14.5144 28.0352 15.5119 29.0327 15.5119 30.1964Z" stroke="white" stroke-width="0.831245" stroke-miterlimit="10" stroke-linecap="round"/>
<path d="M107.447 61.7843C107.447 63.0312 106.45 63.9455 105.286 63.9455C104.039 63.9455 103.125 62.948 103.125 61.7843C103.125 60.5374 104.122 59.623 105.286 59.623C106.45 59.623 107.447 60.5374 107.447 61.7843Z" stroke="white" stroke-width="0.831245" stroke-miterlimit="10" stroke-linecap="round"/>
<path d="M164.139 90.296C164.139 91.5429 163.141 92.4572 161.978 92.4572C160.731 92.4572 159.816 91.4597 159.816 90.296C159.816 89.0491 160.814 88.1348 161.978 88.1348C163.141 88.1348 164.139 89.0491 164.139 90.296Z" stroke="#B0B1FB" stroke-width="0.831245" stroke-miterlimit="10" stroke-linecap="round"/>
<path d="M123.159 253.638C123.159 253.638 121.746 179.075 151.671 150.48C151.671 150.48 165.636 185.642 144.522 253.638H123.159Z" fill="url(#paint7_linear_1167_10793)"/>
<path d="M144.687 173.008C144.687 173.008 146.848 202.85 136.291 247.404" stroke="white" stroke-width="0.831245" stroke-miterlimit="10" stroke-linecap="round"/>
<path d="M105.783 132.359L105.201 139.84L105.035 142.251L104.453 150.231L87.8281 150.48L89.74 134.105L90.7375 125.709L91.1531 121.553L105.783 132.359Z" fill="#FA8FA4"/>
<path d="M105.199 139.842L105.033 142.336C95.3076 142.336 90.8188 128.953 90.4863 127.872L90.7357 125.711C95.7232 136.185 105.199 139.842 105.199 139.842Z" fill="#FA8098"/>
<path d="M195.723 163.117C195.723 163.117 203.453 154.555 209.688 153.89C212.015 153.641 208.108 158.462 208.108 158.462H234.209C234.209 158.462 233.212 161.704 231.3 163.117C229.388 164.53 208.108 170.848 208.108 170.848L195.723 163.117Z" fill="#FA8FA4"/>
<path d="M116.585 102.769C118.829 104.515 122.57 106.427 123.152 109.253C123.651 111.747 118.58 119.976 120.991 123.218C125.396 129.12 116.336 137.515 113.094 139.76C105.363 145.079 85.4965 129.369 92.2296 109.003C97.3002 93.4592 110.018 97.7816 116.585 102.769Z" fill="#FA8FA4"/>
<path d="M93.1465 100.106C93.1465 100.106 114.011 114.569 124.318 108.418C134.626 102.267 124.817 90.1309 124.817 90.1309C124.817 90.1309 122.573 94.3702 115.008 91.8765C107.61 89.3827 93.7284 87.8865 93.1465 100.106Z" fill="#0A0A0F"/>
<path d="M102.123 98.5275C102.123 98.5275 97.219 91.4619 90.5691 95.6181C85.5816 98.7769 86.6622 116.316 91.1509 122.966C91.2341 122.966 91.3172 102.351 102.123 98.5275Z" fill="#0A0A0F"/>
<path d="M105.531 103.017C105.531 103.017 101.374 112.992 96.7193 115.402C96.7193 115.402 97.135 120.806 92.3137 120.806C92.3137 120.806 93.81 119.143 92.2306 115.319C91.8981 114.488 91.6487 113.657 91.4825 112.743C90.5681 107.589 95.0568 98.0295 100.044 98.6113C105.032 99.1932 105.531 103.017 105.531 103.017Z" fill="#0A0A0F"/>
<path d="M92.3139 123.464C92.3139 123.464 88.7396 123.88 87.3265 120.97C84.7496 115.734 90.4021 112.658 92.1477 115.401L92.3139 123.464Z" fill="#FA8FA4"/>
<path d="M106.029 126.125C106.029 126.125 107.858 134.853 112.679 133.107C115.921 131.944 117.916 127.122 117.916 127.122L106.029 126.125Z" fill="white"/>
<path d="M108.189 117.065C108.106 117.979 107.773 118.644 107.441 118.644C107.108 118.644 106.859 117.896 106.942 116.982C107.025 116.067 107.358 115.402 107.69 115.402C108.023 115.402 108.272 116.234 108.189 117.065Z" fill="#2E112E"/>
<path d="M118.913 118.061C118.83 118.975 118.498 119.64 118.165 119.64C117.833 119.64 117.583 118.892 117.667 117.978C117.75 117.063 118.082 116.398 118.415 116.398C118.747 116.398 118.996 117.147 118.913 118.061Z" fill="#2E112E"/>
<path d="M53.8295 253.636C53.8295 253.636 30.6378 179.489 54.5777 163.031C78.6007 146.572 94.3943 143.413 118.999 153.305C143.521 163.197 130.72 253.636 130.72 253.636H53.8295Z" fill="#173796"/>
<path d="M111.268 186.638L149.505 221.384C159.812 230.777 176.188 228.034 182.921 215.898L208.025 170.845L195.722 163.114C195.722 163.114 171.034 192.041 166.795 189.714C162.556 187.386 144.351 147.487 96.804 147.653C74.0279 147.653 111.268 186.638 111.268 186.638Z" fill="#173796"/>
<path d="M54.576 162.949C54.576 162.949 30.553 181.652 15.9231 218.227C9.19002 235.184 21.5756 253.555 39.7799 253.555H93.3952L92.3977 236.93L54.9916 217.811C54.9085 217.895 94.0602 183.813 54.576 162.949Z" fill="#173796"/>
<path d="M95.6415 114.321C95.6415 114.321 97.8859 94.62 110.604 90.8794C110.604 90.8794 106.946 87.8038 102.624 90.2975C102.624 90.2975 92.5659 95.7006 90.8203 114.736L95.6415 114.321Z" fill="#6970FB"/>
<path d="M107.36 137.014C105.864 136.516 102.04 134.687 98.4655 131.279C93.8937 126.873 93.8105 120.805 93.8105 120.556L95.6393 120.473C95.6393 120.556 95.9718 126.208 99.9618 130.115C104.035 134.105 108.44 135.435 108.524 135.435L108.025 137.181C108.025 137.264 107.775 137.181 107.36 137.014Z" fill="#0A0A0F"/>
<path d="M106.694 134.853C106.362 135.767 107.027 136.931 107.941 137.263C108.856 137.596 109.853 137.097 110.186 136.183C110.518 135.269 110.019 134.271 109.105 133.939C108.191 133.606 107.027 133.939 106.694 134.853Z" fill="#0A0A0F"/>
<path d="M91.2352 127.123C95.7801 127.123 99.4645 123.03 99.4645 117.98C99.4645 112.93 95.7801 108.836 91.2352 108.836C86.6903 108.836 83.0059 112.93 83.0059 117.98C83.0059 123.03 86.6903 127.123 91.2352 127.123Z" fill="#173796"/>
<path d="M88.5747 126.126C92.6147 126.126 95.8897 122.479 95.8897 117.98C95.8897 113.481 92.6147 109.834 88.5747 109.834C84.5348 109.834 81.2598 113.481 81.2598 117.98C81.2598 122.479 84.5348 126.126 88.5747 126.126Z" fill="#8885F7"/>
<path d="M83.0059 148.9L88.9908 140.172L99.3814 147.57L104.951 142.25L110.188 148.734L104.369 155.467L99.2983 149.814L94.7264 156.381C94.8927 156.381 87.4946 153.971 83.0059 148.9Z" fill="white"/>
<path d="M67.8773 198.195L55.1593 218.228C53.3305 221.138 54.6605 224.961 57.9024 226.208L94.9759 239.674" fill="#173796"/>
<path d="M67.8773 198.195L55.1593 218.228C53.3305 221.138 54.6605 224.961 57.9024 226.208L94.9759 239.674" stroke="#0A0A0F" stroke-width="0.831245" stroke-miterlimit="10"/>
<path d="M93.3945 253.638L94.9739 242.416C94.9739 242.416 114.093 247.902 115.256 248.983C116.503 249.98 119.911 253.638 119.911 253.638H93.3945Z" fill="#FA8FA4"/>
<path d="M54.7425 75.502L53.8281 81.8194" stroke="white" stroke-width="0.831245" stroke-miterlimit="10" stroke-linecap="round"/>
<path d="M57.4893 79.1577L51.1719 78.1602" stroke="white" stroke-width="0.831245" stroke-miterlimit="10" stroke-linecap="round"/>
<path d="M214.512 109.332L213.598 115.566" stroke="#B0B1FB" stroke-width="0.831245" stroke-miterlimit="10" stroke-linecap="round"/>
<path d="M217.255 112.991L210.938 111.91" stroke="#B0B1FB" stroke-width="0.831245" stroke-miterlimit="10" stroke-linecap="round"/>
<path d="M2.79325 87.1406H-2.27734V92.2112H2.79325V87.1406Z" stroke="white" stroke-width="0.831245" stroke-miterlimit="10" stroke-linecap="round"/>
<path d="M136.504 30.3102L132.666 26.9961L129.352 30.834L133.19 34.1482L136.504 30.3102Z" stroke="#9DA5FE" stroke-width="0.831245" stroke-miterlimit="10" stroke-linecap="round"/>
</g>
<defs>
<linearGradient id="paint0_linear_1167_10793" x1="-15.6602" y1="129.757" x2="311.429" y2="129.757" gradientUnits="userSpaceOnUse">
<stop stop-color="#919DFF"/>
<stop offset="1" stop-color="#FFE5F5"/>
</linearGradient>
<linearGradient id="paint1_linear_1167_10793" x1="49.5944" y1="83.3235" x2="67.2606" y2="226.258" gradientUnits="userSpaceOnUse">
<stop stop-color="#919DFF"/>
<stop offset="1" stop-color="#FFE5F5"/>
</linearGradient>
<linearGradient id="paint2_linear_1167_10793" x1="-53.5435" y1="123.885" x2="10.3053" y2="236.052" gradientUnits="userSpaceOnUse">
<stop stop-color="#919DFF"/>
<stop offset="1" stop-color="#FFE5F5"/>
</linearGradient>
<linearGradient id="paint3_linear_1167_10793" x1="149.61" y1="231.326" x2="179.039" y2="231.326" gradientUnits="userSpaceOnUse">
<stop stop-color="#919DFF"/>
<stop offset="1" stop-color="#FFE5F5"/>
</linearGradient>
<linearGradient id="paint4_linear_1167_10793" x1="28.7951" y1="150.189" x2="39.6715" y2="238.188" gradientUnits="userSpaceOnUse">
<stop stop-color="#919DFF"/>
<stop offset="1" stop-color="#FFE5F5"/>
</linearGradient>
<linearGradient id="paint5_linear_1167_10793" x1="202.336" y1="177.723" x2="335.252" y2="177.723" gradientUnits="userSpaceOnUse">
<stop stop-color="#919DFF"/>
<stop offset="1" stop-color="#FFE5F5"/>
</linearGradient>
<linearGradient id="paint6_linear_1167_10793" x1="214.634" y1="253.726" x2="380.785" y2="111.959" gradientUnits="userSpaceOnUse">
<stop stop-color="#919DFF"/>
<stop offset="1" stop-color="#FFE5F5"/>
</linearGradient>
<linearGradient id="paint7_linear_1167_10793" x1="151.622" y1="128.591" x2="134.663" y2="252.204" gradientUnits="userSpaceOnUse">
<stop stop-color="#919DFF"/>
<stop offset="1" stop-color="#FFE5F5"/>
</linearGradient>
<clipPath id="clip0_1167_10793">
<rect width="401.741" height="258.767" fill="white" transform="translate(-15.6602 0.355469)"/>
</clipPath>
</defs>
</svg>
